%TF.GenerationSoftware,KiCad,Pcbnew,9.0.2*%
%TF.CreationDate,2025-06-14T23:39:35+05:30*%
%TF.ProjectId,ir hub,69722068-7562-42e6-9b69-6361645f7063,rev?*%
%TF.SameCoordinates,Original*%
%TF.FileFunction,Copper,L1,Top*%
%TF.FilePolarity,Positive*%
%FSLAX46Y46*%
G04 Gerber Fmt 4.6, Leading zero omitted, Abs format (unit mm)*
G04 Created by KiCad (PCBNEW 9.0.2) date 2025-06-14 23:39:35*
%MOMM*%
%LPD*%
G01*
G04 APERTURE LIST*
G04 Aperture macros list*
%AMRoundRect*
0 Rectangle with rounded corners*
0 $1 Rounding radius*
0 $2 $3 $4 $5 $6 $7 $8 $9 X,Y pos of 4 corners*
0 Add a 4 corners polygon primitive as box body*
4,1,4,$2,$3,$4,$5,$6,$7,$8,$9,$2,$3,0*
0 Add four circle primitives for the rounded corners*
1,1,$1+$1,$2,$3*
1,1,$1+$1,$4,$5*
1,1,$1+$1,$6,$7*
1,1,$1+$1,$8,$9*
0 Add four rect primitives between the rounded corners*
20,1,$1+$1,$2,$3,$4,$5,0*
20,1,$1+$1,$4,$5,$6,$7,0*
20,1,$1+$1,$6,$7,$8,$9,0*
20,1,$1+$1,$8,$9,$2,$3,0*%
%AMRotRect*
0 Rectangle, with rotation*
0 The origin of the aperture is its center*
0 $1 length*
0 $2 width*
0 $3 Rotation angle, in degrees counterclockwise*
0 Add horizontal line*
21,1,$1,$2,0,0,$3*%
%AMFreePoly0*
4,1,23,0.500000,-0.750000,0.000000,-0.750000,0.000000,-0.745722,-0.065263,-0.745722,-0.191342,-0.711940,-0.304381,-0.646677,-0.396677,-0.554381,-0.461940,-0.441342,-0.495722,-0.315263,-0.495722,-0.250000,-0.500000,-0.250000,-0.500000,0.250000,-0.495722,0.250000,-0.495722,0.315263,-0.461940,0.441342,-0.396677,0.554381,-0.304381,0.646677,-0.191342,0.711940,-0.065263,0.745722,0.000000,0.745722,
0.000000,0.750000,0.500000,0.750000,0.500000,-0.750000,0.500000,-0.750000,$1*%
%AMFreePoly1*
4,1,23,0.000000,0.745722,0.065263,0.745722,0.191342,0.711940,0.304381,0.646677,0.396677,0.554381,0.461940,0.441342,0.495722,0.315263,0.495722,0.250000,0.500000,0.250000,0.500000,-0.250000,0.495722,-0.250000,0.495722,-0.315263,0.461940,-0.441342,0.396677,-0.554381,0.304381,-0.646677,0.191342,-0.711940,0.065263,-0.745722,0.000000,-0.745722,0.000000,-0.750000,-0.500000,-0.750000,
-0.500000,0.750000,0.000000,0.750000,0.000000,0.745722,0.000000,0.745722,$1*%
G04 Aperture macros list end*
%TA.AperFunction,ComponentPad*%
%ADD10RotRect,1.800000X1.800000X70.000000*%
%TD*%
%TA.AperFunction,ComponentPad*%
%ADD11C,1.800000*%
%TD*%
%TA.AperFunction,ComponentPad*%
%ADD12RotRect,1.800000X1.800000X150.000000*%
%TD*%
%TA.AperFunction,ComponentPad*%
%ADD13R,1.800000X1.800000*%
%TD*%
%TA.AperFunction,ComponentPad*%
%ADD14RoundRect,0.250000X-0.350000X-0.625000X0.350000X-0.625000X0.350000X0.625000X-0.350000X0.625000X0*%
%TD*%
%TA.AperFunction,ComponentPad*%
%ADD15O,1.200000X1.750000*%
%TD*%
%TA.AperFunction,ComponentPad*%
%ADD16C,3.800000*%
%TD*%
%TA.AperFunction,SMDPad,CuDef*%
%ADD17RoundRect,0.135000X0.185000X-0.135000X0.185000X0.135000X-0.185000X0.135000X-0.185000X-0.135000X0*%
%TD*%
%TA.AperFunction,ComponentPad*%
%ADD18RotRect,1.800000X1.800000X30.000000*%
%TD*%
%TA.AperFunction,ComponentPad*%
%ADD19RotRect,1.800000X1.800000X110.000000*%
%TD*%
%TA.AperFunction,SMDPad,CuDef*%
%ADD20RoundRect,0.140000X0.170000X-0.140000X0.170000X0.140000X-0.170000X0.140000X-0.170000X-0.140000X0*%
%TD*%
%TA.AperFunction,SMDPad,CuDef*%
%ADD21RoundRect,0.135000X-0.135000X-0.185000X0.135000X-0.185000X0.135000X0.185000X-0.135000X0.185000X0*%
%TD*%
%TA.AperFunction,SMDPad,CuDef*%
%ADD22RoundRect,0.140000X-0.170000X0.140000X-0.170000X-0.140000X0.170000X-0.140000X0.170000X0.140000X0*%
%TD*%
%TA.AperFunction,SMDPad,CuDef*%
%ADD23RoundRect,0.250000X0.475000X-0.250000X0.475000X0.250000X-0.475000X0.250000X-0.475000X-0.250000X0*%
%TD*%
%TA.AperFunction,ComponentPad*%
%ADD24RotRect,1.800000X1.800000X230.000000*%
%TD*%
%TA.AperFunction,SMDPad,CuDef*%
%ADD25RoundRect,0.135000X0.135000X0.185000X-0.135000X0.185000X-0.135000X-0.185000X0.135000X-0.185000X0*%
%TD*%
%TA.AperFunction,ComponentPad*%
%ADD26RotRect,1.800000X1.800000X310.000000*%
%TD*%
%TA.AperFunction,SMDPad,CuDef*%
%ADD27RoundRect,0.250000X-0.475000X0.250000X-0.475000X-0.250000X0.475000X-0.250000X0.475000X0.250000X0*%
%TD*%
%TA.AperFunction,ComponentPad*%
%ADD28C,2.100000*%
%TD*%
%TA.AperFunction,ComponentPad*%
%ADD29C,1.750000*%
%TD*%
%TA.AperFunction,ComponentPad*%
%ADD30RoundRect,0.250200X0.649800X-0.649800X0.649800X0.649800X-0.649800X0.649800X-0.649800X-0.649800X0*%
%TD*%
%TA.AperFunction,SMDPad,CuDef*%
%ADD31RoundRect,0.150000X0.425000X-0.150000X0.425000X0.150000X-0.425000X0.150000X-0.425000X-0.150000X0*%
%TD*%
%TA.AperFunction,SMDPad,CuDef*%
%ADD32RoundRect,0.075000X0.500000X-0.075000X0.500000X0.075000X-0.500000X0.075000X-0.500000X-0.075000X0*%
%TD*%
%TA.AperFunction,SMDPad,CuDef*%
%ADD33RoundRect,0.250000X0.750000X-0.840000X0.750000X0.840000X-0.750000X0.840000X-0.750000X-0.840000X0*%
%TD*%
%TA.AperFunction,SMDPad,CuDef*%
%ADD34RoundRect,0.100000X-0.130000X-0.100000X0.130000X-0.100000X0.130000X0.100000X-0.130000X0.100000X0*%
%TD*%
%TA.AperFunction,SMDPad,CuDef*%
%ADD35RoundRect,0.250000X-1.000000X-0.650000X1.000000X-0.650000X1.000000X0.650000X-1.000000X0.650000X0*%
%TD*%
%TA.AperFunction,SMDPad,CuDef*%
%ADD36R,0.700000X0.900000*%
%TD*%
%TA.AperFunction,SMDPad,CuDef*%
%ADD37RoundRect,0.150000X0.825000X0.150000X-0.825000X0.150000X-0.825000X-0.150000X0.825000X-0.150000X0*%
%TD*%
%TA.AperFunction,HeatsinkPad*%
%ADD38C,0.500000*%
%TD*%
%TA.AperFunction,HeatsinkPad*%
%ADD39R,2.410000X3.300000*%
%TD*%
%TA.AperFunction,ComponentPad*%
%ADD40RotRect,1.800000X1.800000X190.000000*%
%TD*%
%TA.AperFunction,SMDPad,CuDef*%
%ADD41RoundRect,0.375000X-0.625000X-0.375000X0.625000X-0.375000X0.625000X0.375000X-0.625000X0.375000X0*%
%TD*%
%TA.AperFunction,SMDPad,CuDef*%
%ADD42RoundRect,0.500000X-0.500000X-1.400000X0.500000X-1.400000X0.500000X1.400000X-0.500000X1.400000X0*%
%TD*%
%TA.AperFunction,ComponentPad*%
%ADD43RotRect,1.800000X1.800000X350.000000*%
%TD*%
%TA.AperFunction,SMDPad,CuDef*%
%ADD44FreePoly0,180.000000*%
%TD*%
%TA.AperFunction,SMDPad,CuDef*%
%ADD45FreePoly1,180.000000*%
%TD*%
%TA.AperFunction,ComponentPad*%
%ADD46R,1.050000X1.500000*%
%TD*%
%TA.AperFunction,ComponentPad*%
%ADD47O,1.050000X1.500000*%
%TD*%
%TA.AperFunction,HeatsinkPad*%
%ADD48C,0.600000*%
%TD*%
%TA.AperFunction,ViaPad*%
%ADD49C,0.600000*%
%TD*%
%TA.AperFunction,Conductor*%
%ADD50C,0.200000*%
%TD*%
G04 APERTURE END LIST*
D10*
%TO.P,D10,1,K*%
%TO.N,Net-(D10-K)*%
X150594500Y-94038800D03*
D11*
%TO.P,D10,2,A*%
%TO.N,VCC*%
X151463231Y-91651981D03*
%TD*%
D12*
%TO.P,D12,1,K*%
%TO.N,Net-(D10-K)*%
X162754600Y-89612900D03*
D11*
%TO.P,D12,2,A*%
%TO.N,VCC*%
X160554895Y-88342900D03*
%TD*%
D13*
%TO.P,D14,1,K*%
%TO.N,Net-(D10-K)*%
X153199600Y-84596000D03*
D11*
%TO.P,D14,2,A*%
%TO.N,VCC*%
X155739600Y-84596000D03*
%TD*%
D14*
%TO.P,J2,1,Pin_1*%
%TO.N,+3.3V*%
X150879900Y-116271700D03*
D15*
%TO.P,J2,2,Pin_2*%
%TO.N,/IO18_SCL*%
X152879900Y-116271700D03*
%TO.P,J2,3,Pin_3*%
%TO.N,/IO17_SDA*%
X154879900Y-116271700D03*
%TO.P,J2,4,Pin_4*%
%TO.N,GND*%
X156879900Y-116271700D03*
%TD*%
D16*
%TO.P,,1*%
%TO.N,N/C*%
X183550650Y-75236419D03*
%TD*%
D17*
%TO.P,R4,1*%
%TO.N,Net-(D1-K)*%
X167319600Y-91059200D03*
%TO.P,R4,2*%
%TO.N,Net-(U3-~{CHRG})*%
X167319600Y-90039200D03*
%TD*%
D18*
%TO.P,D9,1,K*%
%TO.N,Net-(D10-K)*%
X145319800Y-89612900D03*
D11*
%TO.P,D9,2,A*%
%TO.N,VCC*%
X147519505Y-88342900D03*
%TD*%
D19*
%TO.P,D11,1,K*%
%TO.N,Net-(D10-K)*%
X157480000Y-94038800D03*
D11*
%TO.P,D11,2,A*%
%TO.N,VCC*%
X156611269Y-91651981D03*
%TD*%
D20*
%TO.P,C5,1*%
%TO.N,VCC*%
X123843300Y-85236400D03*
%TO.P,C5,2*%
%TO.N,GND*%
X123843300Y-84276400D03*
%TD*%
D21*
%TO.P,R2,1*%
%TO.N,Net-(J1-CC1)*%
X179110900Y-86151400D03*
%TO.P,R2,2*%
%TO.N,GND*%
X180130900Y-86151400D03*
%TD*%
D22*
%TO.P,C3,1*%
%TO.N,VCC*%
X175925300Y-74243200D03*
%TO.P,C3,2*%
%TO.N,GND*%
X175925300Y-75203200D03*
%TD*%
D16*
%TO.P,,1*%
%TO.N,N/C*%
X139700000Y-58420000D03*
%TD*%
D23*
%TO.P,C4,1*%
%TO.N,+3.3V*%
X170385100Y-68857100D03*
%TO.P,C4,2*%
%TO.N,GND*%
X170385100Y-66957100D03*
%TD*%
D16*
%TO.P,,1*%
%TO.N,N/C*%
X137101413Y-96302615D03*
%TD*%
D21*
%TO.P,R3,1*%
%TO.N,Net-(J1-CC2)*%
X179127700Y-83160500D03*
%TO.P,R3,2*%
%TO.N,GND*%
X180147700Y-83160500D03*
%TD*%
D24*
%TO.P,D5,1,K*%
%TO.N,Net-(D10-K)*%
X160507500Y-76868900D03*
D11*
%TO.P,D5,2,A*%
%TO.N,VCC*%
X158874819Y-78814653D03*
%TD*%
D13*
%TO.P,D6,1,K*%
%TO.N,Net-(D10-K)*%
X154037200Y-74513900D03*
D11*
%TO.P,D6,2,A*%
%TO.N,VCC*%
X154037200Y-77053900D03*
%TD*%
D25*
%TO.P,R6,1*%
%TO.N,GND*%
X180127100Y-90034500D03*
%TO.P,R6,2*%
%TO.N,Net-(U3-PROG)*%
X179107100Y-90034500D03*
%TD*%
D26*
%TO.P,D7,1,K*%
%TO.N,Net-(D10-K)*%
X147566900Y-76868900D03*
D11*
%TO.P,D7,2,A*%
%TO.N,VCC*%
X149199581Y-78814653D03*
%TD*%
D27*
%TO.P,C2,1*%
%TO.N,VCC*%
X174293400Y-74568400D03*
%TO.P,C2,2*%
%TO.N,GND*%
X174293400Y-76468400D03*
%TD*%
D28*
%TO.P,SW1,*%
%TO.N,*%
X179530034Y-101476503D03*
X175024092Y-106846476D03*
D29*
%TO.P,SW1,1,1*%
%TO.N,GND*%
X180634000Y-104034600D03*
%TO.P,SW1,2,2*%
%TO.N,/IO2*%
X177741456Y-107481800D03*
%TD*%
D16*
%TO.P,REF\u002A\u002A,1*%
%TO.N,N/C*%
X167640000Y-109220000D03*
%TD*%
D30*
%TO.P,U1,1,OUT*%
%TO.N,/IO3*%
X132904800Y-87471400D03*
D11*
%TO.P,U1,2,GND*%
%TO.N,GND*%
X132904800Y-84931400D03*
%TO.P,U1,3,Vs*%
%TO.N,+3.3V*%
X132904800Y-82391400D03*
%TD*%
D31*
%TO.P,J1,A1,GND*%
%TO.N,GND*%
X182191300Y-88108400D03*
%TO.P,J1,A4,VBUS*%
%TO.N,Net-(D1-A)*%
X182191300Y-87308400D03*
D32*
%TO.P,J1,A5,CC1*%
%TO.N,Net-(J1-CC1)*%
X182191301Y-86158400D03*
%TO.P,J1,A6,D+*%
%TO.N,/DP*%
X182191299Y-85158401D03*
%TO.P,J1,A7,D-*%
%TO.N,/DN*%
X182191299Y-84658399D03*
%TO.P,J1,A8,SBU1*%
%TO.N,unconnected-(J1-SBU1-PadA8)*%
X182191300Y-83658399D03*
D31*
%TO.P,J1,A9,VBUS*%
%TO.N,Net-(D1-A)*%
X182191299Y-82508399D03*
%TO.P,J1,A12,GND*%
%TO.N,GND*%
X182191299Y-81708400D03*
%TO.P,J1,B1,GND*%
X182191299Y-81708400D03*
%TO.P,J1,B4,VBUS*%
%TO.N,Net-(D1-A)*%
X182191299Y-82508399D03*
D32*
%TO.P,J1,B5,CC2*%
%TO.N,Net-(J1-CC2)*%
X182191300Y-83158400D03*
%TO.P,J1,B6,D+*%
%TO.N,/DP*%
X182191301Y-84158400D03*
%TO.P,J1,B7,D-*%
%TO.N,/DN*%
X182191300Y-85658400D03*
%TO.P,J1,B8,SBU2*%
%TO.N,unconnected-(J1-SBU2-PadB8)*%
X182191301Y-86658400D03*
D31*
%TO.P,J1,B9,VBUS*%
%TO.N,Net-(D1-A)*%
X182191300Y-87308400D03*
%TO.P,J1,B12,GND*%
%TO.N,GND*%
X182191300Y-88108400D03*
D33*
%TO.P,J1,S1,SHIELD*%
X186696299Y-90018401D03*
X182766300Y-90018399D03*
X182766300Y-79798400D03*
X186696300Y-79798400D03*
%TD*%
D34*
%TO.P,D1,1,K*%
%TO.N,Net-(D1-K)*%
X170091800Y-92866100D03*
%TO.P,D1,2,A*%
%TO.N,Net-(D1-A)*%
X170731800Y-92866100D03*
%TD*%
D35*
%TO.P,D3,1,K*%
%TO.N,VCC*%
X170999100Y-84328500D03*
%TO.P,D3,2,A*%
%TO.N,+BATT*%
X174999100Y-84328500D03*
%TD*%
D36*
%TO.P,D4,1,DOUT*%
%TO.N,unconnected-(D4-DOUT-Pad1)*%
X121920000Y-83820000D03*
%TO.P,D4,2,VSS*%
%TO.N,GND*%
X120820000Y-83820000D03*
%TO.P,D4,3,DIN*%
%TO.N,Net-(D4-DIN)*%
X120820000Y-85650000D03*
%TO.P,D4,4,VDD*%
%TO.N,VCC*%
X121920000Y-85650000D03*
%TD*%
D37*
%TO.P,U3,1,TEMP*%
%TO.N,Net-(D1-A)*%
X175677700Y-91312800D03*
%TO.P,U3,2,PROG*%
%TO.N,Net-(U3-PROG)*%
X175677700Y-90042800D03*
%TO.P,U3,3,GND*%
%TO.N,GND*%
X175677700Y-88772800D03*
%TO.P,U3,4,V_{CC}*%
%TO.N,Net-(D1-A)*%
X175677700Y-87502800D03*
%TO.P,U3,5,BAT*%
%TO.N,+BATT*%
X170727700Y-87502800D03*
%TO.P,U3,6,~{STDBY}*%
%TO.N,unconnected-(U3-~{STDBY}-Pad6)*%
X170727700Y-88772800D03*
%TO.P,U3,7,~{CHRG}*%
%TO.N,Net-(U3-~{CHRG})*%
X170727700Y-90042800D03*
%TO.P,U3,8,CE*%
%TO.N,Net-(D1-A)*%
X170727700Y-91312800D03*
D38*
%TO.P,U3,9,EPAD*%
%TO.N,GND*%
X173902700Y-90607800D03*
X173902700Y-89407800D03*
X173902700Y-88207800D03*
D39*
X173202700Y-89407800D03*
D38*
X172502700Y-90607800D03*
X172502700Y-89407800D03*
X172502700Y-88207800D03*
%TD*%
D40*
%TO.P,D13,1,K*%
%TO.N,Net-(D10-K)*%
X163950300Y-82831900D03*
D11*
%TO.P,D13,2,A*%
%TO.N,VCC*%
X161448888Y-83272966D03*
%TD*%
D41*
%TO.P,U4,1,GND*%
%TO.N,GND*%
X174349000Y-67378600D03*
%TO.P,U4,2,VO*%
%TO.N,+3.3V*%
X174349000Y-69678600D03*
D42*
X180649000Y-69678600D03*
D41*
%TO.P,U4,3,VI*%
%TO.N,VCC*%
X174349000Y-71978600D03*
%TD*%
D43*
%TO.P,D8,1,K*%
%TO.N,Net-(D10-K)*%
X144124200Y-82831900D03*
D11*
%TO.P,D8,2,A*%
%TO.N,VCC*%
X146625612Y-83272966D03*
%TD*%
D44*
%TO.P,En_Boot,1,A*%
%TO.N,Net-(En_Boot1-A)*%
X136178300Y-60457500D03*
D45*
%TO.P,En_Boot,2,B*%
%TO.N,GND*%
X134878300Y-60457500D03*
%TD*%
D21*
%TO.P,R7,1*%
%TO.N,Net-(D4-DIN)*%
X120819900Y-87361700D03*
%TO.P,R7,2*%
%TO.N,/IO16*%
X121839900Y-87361700D03*
%TD*%
D46*
%TO.P,U2,1,GND*%
%TO.N,GND*%
X137160000Y-105193300D03*
D47*
%TO.P,U2,2,DQ*%
%TO.N,/IO10*%
X135890000Y-105193300D03*
%TO.P,U2,3,V_{DD}*%
%TO.N,+3.3V*%
X134620000Y-105193300D03*
%TD*%
D20*
%TO.P,C6,1*%
%TO.N,+3.3V*%
X171982800Y-68844800D03*
%TO.P,C6,2*%
%TO.N,GND*%
X171982800Y-67884800D03*
%TD*%
D14*
%TO.P,J3,1,Pin_1*%
%TO.N,+3.3V*%
X132361300Y-66520500D03*
D15*
%TO.P,J3,2,Pin_2*%
%TO.N,/IO18_SCL*%
X134361301Y-66520499D03*
%TO.P,J3,3,Pin_3*%
%TO.N,/IO17_SDA*%
X136361299Y-66520501D03*
%TO.P,J3,4,Pin_4*%
%TO.N,GND*%
X138361300Y-66520500D03*
%TD*%
D35*
%TO.P,D2,1,K*%
%TO.N,VCC*%
X171004100Y-80810700D03*
%TO.P,D2,2,A*%
%TO.N,Net-(D1-A)*%
X175004100Y-80810700D03*
%TD*%
D48*
%TO.P,U5,41,GND*%
%TO.N,GND*%
X156745100Y-60695400D03*
X156745100Y-59295400D03*
X156045100Y-61395400D03*
X156045100Y-59995400D03*
X156045100Y-58595400D03*
X155345100Y-60695400D03*
X155345100Y-59295400D03*
X154645100Y-61395400D03*
X154645100Y-59995400D03*
X154645100Y-58595400D03*
X153945100Y-60695400D03*
X153945100Y-59295400D03*
%TD*%
D14*
%TO.P,J4,1,Pin_1*%
%TO.N,+BATT*%
X152912000Y-103552300D03*
D15*
%TO.P,J4,2,Pin_2*%
%TO.N,GND*%
X154912000Y-103552300D03*
%TD*%
D49*
%TO.N,+3.3V*%
X156652600Y-65941300D03*
X170937500Y-70891400D03*
X139347800Y-73327200D03*
%TO.N,GND*%
X172317500Y-77112600D03*
X177656900Y-86771400D03*
X173118200Y-68443200D03*
%TO.N,Net-(En_Boot1-A)*%
X148153800Y-64556600D03*
X139620000Y-67247100D03*
%TO.N,Net-(D1-A)*%
X177532000Y-91156100D03*
X173938600Y-87025900D03*
%TO.N,/DN*%
X171335900Y-78792400D03*
X180740700Y-81234900D03*
X180761600Y-84893600D03*
%TO.N,/DP*%
X162619000Y-96436400D03*
%TO.N,/IO17_SDA*%
X156328100Y-66878200D03*
X151151600Y-71852900D03*
%TO.N,/IO18_SCL*%
X153310900Y-67771900D03*
X151796600Y-71335900D03*
%TO.N,/IO3*%
X156690700Y-79557200D03*
X129990700Y-87444200D03*
%TO.N,/IO10*%
X152393600Y-101688900D03*
%TO.N,/IO16*%
X164076000Y-66769400D03*
X162413500Y-70349700D03*
X162483800Y-78366300D03*
%TO.N,/IO2*%
X155865000Y-68641600D03*
X163081500Y-70985200D03*
%TO.N,/IO13*%
X173082900Y-70743200D03*
X153401900Y-71564000D03*
%TO.N,/IO5*%
X165564000Y-68031000D03*
X166492600Y-66885000D03*
%TD*%
D50*
%TO.N,+3.3V*%
X151305200Y-73327200D02*
X139347800Y-73327200D01*
X165519200Y-68857100D02*
X164677700Y-68015600D01*
X170385100Y-68857100D02*
X165519200Y-68857100D01*
X172150300Y-69012300D02*
X171982800Y-68844800D01*
X171970500Y-68857100D02*
X171982800Y-68844800D01*
X174349000Y-69678600D02*
X172150300Y-69678600D01*
X172150300Y-69678600D02*
X170937500Y-70891400D01*
X180649000Y-69678600D02*
X174349000Y-69678600D01*
X144646700Y-116271700D02*
X134620000Y-106245000D01*
X164677700Y-66520200D02*
X164291200Y-66133700D01*
X157407300Y-66695900D02*
X156652600Y-65941300D01*
X156063300Y-68039900D02*
X155615900Y-68039900D01*
X157407300Y-66695900D02*
X156063300Y-68039900D01*
X134620000Y-105193300D02*
X134620000Y-106245000D01*
X152800100Y-70855700D02*
X152800100Y-71832300D01*
X164291200Y-66133700D02*
X157969500Y-66133700D01*
X150879900Y-116271700D02*
X144646700Y-116271700D01*
X155615900Y-68039900D02*
X152800100Y-70855700D01*
X164677700Y-68015600D02*
X164677700Y-66520200D01*
X152800100Y-71832300D02*
X151305200Y-73327200D01*
X170385100Y-68857100D02*
X171970500Y-68857100D01*
X157969500Y-66133700D02*
X157407300Y-66695900D01*
X172150300Y-69678600D02*
X172150300Y-69012300D01*
%TO.N,GND*%
X124498300Y-84931400D02*
X123843300Y-84276400D01*
X134878300Y-63037500D02*
X138361300Y-66520500D01*
X173649200Y-77112600D02*
X174293400Y-76468400D01*
X180130900Y-86321700D02*
X180130900Y-86151400D01*
X173902700Y-89407800D02*
X173202700Y-89407800D01*
X174467700Y-88772800D02*
X175677700Y-88772800D01*
X180718200Y-89443400D02*
X180127100Y-90034500D01*
X182191300Y-89443400D02*
X180718200Y-89443400D01*
X180147700Y-83160500D02*
X178538700Y-84769500D01*
X173118200Y-68443200D02*
X173118200Y-67884800D01*
X173118200Y-67884800D02*
X173842800Y-67884800D01*
X142438500Y-65330300D02*
X139920000Y-67848800D01*
X153945100Y-59295400D02*
X155345100Y-59295400D01*
X178538700Y-86517500D02*
X178539900Y-86516300D01*
X179436300Y-76468400D02*
X182766300Y-79798400D01*
X132904800Y-84931400D02*
X124498300Y-84931400D01*
X171982800Y-67884800D02*
X173118200Y-67884800D01*
X174660100Y-76468400D02*
X175925300Y-75203200D01*
X182191300Y-81708400D02*
X182191299Y-81708400D01*
X156045100Y-65330300D02*
X156045100Y-61395400D01*
X182766300Y-79798400D02*
X182766300Y-81133400D01*
X181526900Y-88772800D02*
X182191300Y-88108400D01*
X177656900Y-86771400D02*
X179510900Y-86771400D01*
X138361300Y-66884500D02*
X138361300Y-66520500D01*
X186696300Y-79798400D02*
X182766300Y-79798400D01*
X123548000Y-84571700D02*
X123843300Y-84276400D01*
X173842800Y-67884800D02*
X174349000Y-67378600D01*
X172317500Y-77112600D02*
X173649200Y-77112600D01*
X156296000Y-104034600D02*
X155813700Y-103552300D01*
X154645100Y-59995400D02*
X156045100Y-59995400D01*
X139325600Y-67848800D02*
X138361300Y-66884500D01*
X171312800Y-67884800D02*
X171982800Y-67884800D01*
X182766300Y-81133400D02*
X182191300Y-81708400D01*
X172502700Y-89407800D02*
X173202700Y-89407800D01*
X178289240Y-86771400D02*
X177656900Y-86771400D01*
X173902700Y-88207800D02*
X174467700Y-88772800D01*
X175677700Y-88772800D02*
X181526900Y-88772800D01*
X179510900Y-86771400D02*
X180130900Y-86151400D01*
X156045100Y-65330300D02*
X142438500Y-65330300D01*
X170385100Y-66957100D02*
X168758300Y-65330300D01*
X120820000Y-83820000D02*
X120820000Y-84571700D01*
X170385100Y-66957100D02*
X171312800Y-67884800D01*
X137160000Y-105193300D02*
X154172700Y-105193300D01*
X174505200Y-76468400D02*
X179436300Y-76468400D01*
X174505200Y-76468400D02*
X174660100Y-76468400D01*
X186696300Y-90018400D02*
X182766300Y-90018400D01*
X156745100Y-60695400D02*
X155345100Y-60695400D01*
X154645100Y-61395400D02*
X156045100Y-61395400D01*
X134878300Y-60457500D02*
X134878300Y-63037500D01*
X154912000Y-103552300D02*
X155813700Y-103552300D01*
X174293400Y-76468400D02*
X174505200Y-76468400D01*
X182191300Y-89443400D02*
X182766300Y-90018400D01*
X177656900Y-86771400D02*
X178284800Y-86771400D01*
X178284800Y-86771400D02*
X178538700Y-86517500D01*
X178538700Y-84769500D02*
X178538700Y-86517500D01*
X180634000Y-104034600D02*
X156296000Y-104034600D01*
X139920000Y-67848800D02*
X139325600Y-67848800D01*
X168758300Y-65330300D02*
X156045100Y-65330300D01*
X120820000Y-84571700D02*
X123548000Y-84571700D01*
X178539900Y-86520740D02*
X178289240Y-86771400D01*
X154172700Y-105193300D02*
X155813700Y-103552300D01*
X178539900Y-86516300D02*
X178539900Y-86520740D01*
X182191300Y-88108400D02*
X182191300Y-89443400D01*
%TO.N,VCC*%
X174293400Y-74568400D02*
X174010900Y-74568400D01*
X148154100Y-88342900D02*
X151463200Y-91652000D01*
X146057600Y-83273000D02*
X143181300Y-86149300D01*
X170734200Y-80540800D02*
X171004100Y-80810700D01*
X170999100Y-84328500D02*
X162504400Y-84328500D01*
X123843300Y-85236400D02*
X122985300Y-85236400D01*
X155798000Y-78814700D02*
X154037200Y-77053900D01*
X174349000Y-71978600D02*
X174293400Y-72034200D01*
X161448900Y-83273000D02*
X160125900Y-84596000D01*
X174010900Y-74568400D02*
X170734200Y-77845100D01*
X170734200Y-77845100D02*
X170734200Y-80540800D01*
X158874800Y-78814700D02*
X155798000Y-78814700D01*
X160125900Y-84596000D02*
X155739600Y-84596000D01*
X121920000Y-85650000D02*
X122571700Y-85650000D01*
X147519500Y-88342900D02*
X148154100Y-88342900D01*
X146625600Y-83273000D02*
X146057600Y-83273000D01*
X143181300Y-86149300D02*
X124756200Y-86149300D01*
X174293400Y-72034200D02*
X174293400Y-74568400D01*
X151463200Y-91652000D02*
X156611300Y-91652000D01*
X122985300Y-85236400D02*
X122571700Y-85650000D01*
X149199600Y-78814700D02*
X150960400Y-77053900D01*
X162504400Y-84328500D02*
X161448900Y-83273000D01*
X175925300Y-74243200D02*
X174618600Y-74243200D01*
X174618600Y-74243200D02*
X174293400Y-74568400D01*
X124756200Y-86149300D02*
X123843300Y-85236400D01*
X150960400Y-77053900D02*
X154037200Y-77053900D01*
X170999100Y-84328500D02*
X171004100Y-84323500D01*
X171004100Y-84323500D02*
X171004100Y-80810700D01*
%TO.N,Net-(En_Boot1-A)*%
X139620000Y-64556600D02*
X139620000Y-67247100D01*
X136178300Y-60457500D02*
X139620000Y-63899200D01*
X148153800Y-64556600D02*
X139620000Y-64556600D01*
X139620000Y-63899200D02*
X139620000Y-64556600D01*
%TO.N,Net-(D1-A)*%
X177546500Y-87577000D02*
X180347400Y-87577000D01*
X170731800Y-91413700D02*
X175576800Y-91413700D01*
X170731800Y-91316900D02*
X170727700Y-91312800D01*
X181473400Y-82508400D02*
X181003900Y-82038900D01*
X180347400Y-87577000D02*
X180616000Y-87308400D01*
X175974800Y-87205700D02*
X175677700Y-87205700D01*
X181003900Y-82038900D02*
X176917700Y-82038900D01*
X177375300Y-91312800D02*
X177532000Y-91156100D01*
X174118400Y-87205700D02*
X173938600Y-87025900D01*
X180616000Y-87308400D02*
X182191300Y-87308400D01*
X170731800Y-91413700D02*
X170731800Y-91316900D01*
X176575000Y-86605500D02*
X177546500Y-87577000D01*
X175677700Y-87205700D02*
X174118400Y-87205700D01*
X175576800Y-91413700D02*
X175677700Y-91312800D01*
X176575000Y-82381600D02*
X176575000Y-86605500D01*
X176575000Y-86605500D02*
X175974800Y-87205700D01*
X175677700Y-91312800D02*
X177375300Y-91312800D01*
X182191300Y-82508400D02*
X181473400Y-82508400D01*
X170731800Y-92866100D02*
X170731800Y-91413700D01*
X175677700Y-87205700D02*
X175677700Y-87502800D01*
X176917700Y-82038900D02*
X176575000Y-82381600D01*
X175004100Y-80810700D02*
X176575000Y-82381600D01*
%TO.N,Net-(D1-K)*%
X169126500Y-92866100D02*
X170091800Y-92866100D01*
X167319600Y-91059200D02*
X169126500Y-92866100D01*
%TO.N,+BATT*%
X168872900Y-87502800D02*
X152912000Y-103463700D01*
X171824800Y-87502800D02*
X170727700Y-87502800D01*
X174999100Y-84328500D02*
X171824800Y-87502800D01*
X152912000Y-103463700D02*
X152912000Y-103552300D01*
X170727700Y-87502800D02*
X168872900Y-87502800D01*
%TO.N,Net-(D4-DIN)*%
X120820000Y-87361600D02*
X120820000Y-85650000D01*
X120819900Y-87361700D02*
X120820000Y-87361600D01*
%TO.N,Net-(D10-K)*%
X155939700Y-94599300D02*
X152134800Y-94599300D01*
X147566900Y-76868900D02*
X148567900Y-76028900D01*
X150594500Y-94038800D02*
X152134800Y-94599400D01*
X157480000Y-94038800D02*
X155939700Y-94599400D01*
X155238900Y-75715600D02*
X155238900Y-74513900D01*
X146508400Y-90932400D02*
X149054200Y-93478200D01*
X146081700Y-90932400D02*
X146508400Y-90932400D01*
X145319800Y-89612900D02*
X146081700Y-90932400D01*
X148881200Y-75715600D02*
X155238900Y-75715600D01*
X148567900Y-76028900D02*
X148881200Y-75715600D01*
X160507500Y-76868900D02*
X159506500Y-76028900D01*
X159506500Y-76028900D02*
X155552200Y-76028900D01*
X155552200Y-76028900D02*
X155238900Y-75715600D01*
X154037200Y-74513900D02*
X155238900Y-74513900D01*
X150594500Y-94038800D02*
X149054200Y-93478200D01*
X152134800Y-94599300D02*
X152134800Y-94599400D01*
X155939700Y-94599400D02*
X155939700Y-94599300D01*
%TO.N,Net-(J1-CC1)*%
X179733100Y-85529200D02*
X179110900Y-86151400D01*
X180886500Y-85585600D02*
X180886500Y-85575900D01*
X179774068Y-85529200D02*
X179733100Y-85529200D01*
X181360300Y-86059400D02*
X180886500Y-85585600D01*
X179776651Y-85526617D02*
X179774068Y-85529200D01*
X180837217Y-85526617D02*
X179776651Y-85526617D01*
X181370000Y-86059400D02*
X181360300Y-86059400D01*
X181469000Y-86158400D02*
X181370000Y-86059400D01*
X180886500Y-85575900D02*
X180837217Y-85526617D01*
X182191300Y-86158400D02*
X181469000Y-86158400D01*
%TO.N,Net-(J1-CC2)*%
X179127700Y-83160500D02*
X179796900Y-82491300D01*
X179796900Y-82491300D02*
X180430200Y-82491300D01*
X181097300Y-83158400D02*
X182191300Y-83158400D01*
X180430200Y-82491300D02*
X181097300Y-83158400D01*
%TO.N,/DN*%
X181526400Y-85658400D02*
X181287500Y-85419500D01*
X181287500Y-85419500D02*
X181287500Y-84942100D01*
X181571200Y-84658400D02*
X182191300Y-84658400D01*
X181287500Y-84942100D02*
X180810100Y-84942100D01*
X180810100Y-84942100D02*
X180761600Y-84893600D01*
X171335900Y-78792400D02*
X178298200Y-78792400D01*
X182191300Y-85658400D02*
X181526400Y-85658400D01*
X181287500Y-84942100D02*
X181571200Y-84658400D01*
X178298200Y-78792400D02*
X180740700Y-81234900D01*
%TO.N,/DP*%
X188001500Y-88936800D02*
X188001500Y-91087300D01*
X188001500Y-91087300D02*
X182652400Y-96436400D01*
X182923400Y-85158400D02*
X182191300Y-85158400D01*
X182191300Y-84158400D02*
X182817300Y-84158400D01*
X182817300Y-84158400D02*
X183087000Y-84428100D01*
X183087000Y-84994800D02*
X184059500Y-84994800D01*
X182652400Y-96436400D02*
X162619000Y-96436400D01*
X183087000Y-84428100D02*
X183087000Y-84994800D01*
X183087000Y-84994800D02*
X182923400Y-85158400D01*
X184059500Y-84994800D02*
X188001500Y-88936800D01*
%TO.N,/IO17_SDA*%
X136361300Y-66520500D02*
X137263000Y-66520500D01*
X140186500Y-68250500D02*
X141300000Y-67137000D01*
X137263000Y-66520500D02*
X137263000Y-67007000D01*
X153937400Y-68286900D02*
X152398400Y-69825900D01*
X141300000Y-67137000D02*
X153937400Y-67137000D01*
X153937400Y-67137000D02*
X153937400Y-68286900D01*
X151462800Y-72164100D02*
X151151600Y-71852900D01*
X152398400Y-69825900D02*
X152398400Y-71666000D01*
X151900300Y-72164100D02*
X151462800Y-72164100D01*
X153937400Y-67137000D02*
X156069300Y-67137000D01*
X137263000Y-67007000D02*
X138506500Y-68250500D01*
X138506500Y-68250500D02*
X140186500Y-68250500D01*
X156069300Y-67137000D02*
X156328100Y-66878200D01*
X152398400Y-71666000D02*
X151900300Y-72164100D01*
%TO.N,/IO18_SCL*%
X134361300Y-66520500D02*
X135263000Y-66520500D01*
X151796600Y-71335900D02*
X151796600Y-68652200D01*
X135263000Y-66520500D02*
X135263000Y-67007000D01*
X152430600Y-68652200D02*
X153310900Y-67771900D01*
X135263000Y-67007000D02*
X136908200Y-68652200D01*
X136908200Y-68652200D02*
X151796600Y-68652200D01*
X151796600Y-68652200D02*
X152430600Y-68652200D01*
%TO.N,/IO3*%
X132877600Y-87444200D02*
X132904800Y-87471400D01*
X146575800Y-85265700D02*
X144715600Y-85265700D01*
X142509900Y-87471400D02*
X132904800Y-87471400D01*
X144715600Y-85265700D02*
X142509900Y-87471400D01*
X156690700Y-79557200D02*
X152284300Y-79557200D01*
X152284300Y-79557200D02*
X146575800Y-85265700D01*
X129990700Y-87444200D02*
X132877600Y-87444200D01*
%TO.N,Net-(U3-~{CHRG})*%
X167323200Y-90042800D02*
X167319600Y-90039200D01*
X170727700Y-90042800D02*
X167323200Y-90042800D01*
%TO.N,/IO10*%
X135890000Y-104141600D02*
X149940900Y-104141600D01*
X149940900Y-104141600D02*
X152393600Y-101688900D01*
X135890000Y-105193300D02*
X135890000Y-104141600D01*
%TO.N,Net-(U3-PROG)*%
X175677700Y-90042800D02*
X179098800Y-90042800D01*
X179098800Y-90042800D02*
X179107100Y-90034500D01*
%TO.N,/IO16*%
X151965100Y-80444400D02*
X160405700Y-80444400D01*
X160405700Y-80444400D02*
X162483800Y-78366300D01*
X162413500Y-70349700D02*
X162413500Y-68431900D01*
X123160500Y-88682300D02*
X143727200Y-88682300D01*
X143727200Y-88682300D02*
X151965100Y-80444400D01*
X121839900Y-87361700D02*
X123160500Y-88682300D01*
X162413500Y-68431900D02*
X164076000Y-66769400D01*
%TO.N,/IO2*%
X158208600Y-70985200D02*
X163081500Y-70985200D01*
X155865000Y-68641600D02*
X158208600Y-70985200D01*
%TO.N,/IO13*%
X153401900Y-71564000D02*
X153424800Y-71586900D01*
X172239200Y-71586900D02*
X173082900Y-70743200D01*
X153424800Y-71586900D02*
X172239200Y-71586900D01*
%TO.N,/IO5*%
X166492600Y-66885000D02*
X165564000Y-67813600D01*
X165564000Y-67813600D02*
X165564000Y-68031000D01*
%TD*%
%TA.AperFunction,Conductor*%
%TO.N,GND*%
G36*
X154496849Y-49438005D02*
G01*
X155651292Y-49475798D01*
X155655287Y-49475994D01*
X156807885Y-49551539D01*
X156811923Y-49551870D01*
X157961434Y-49665087D01*
X157965366Y-49665540D01*
X159110561Y-49816308D01*
X159114528Y-49816896D01*
X160254204Y-50005057D01*
X160258146Y-50005775D01*
X161391013Y-50231116D01*
X161394888Y-50231953D01*
X162519844Y-50494256D01*
X162523697Y-50495221D01*
X163639435Y-50794182D01*
X163643261Y-50795274D01*
X164748636Y-51130586D01*
X164752442Y-51131809D01*
X165846204Y-51503092D01*
X165849997Y-51504449D01*
X166930989Y-51911306D01*
X166934758Y-51912795D01*
X168001894Y-52354816D01*
X168005582Y-52356415D01*
X168216219Y-52451854D01*
X169057672Y-52833112D01*
X169061340Y-52834847D01*
X170097252Y-53345702D01*
X170100861Y-53347556D01*
X171119491Y-53892025D01*
X171123038Y-53893996D01*
X171718580Y-54237831D01*
X172123341Y-54471520D01*
X172126807Y-54473598D01*
X173107646Y-55083523D01*
X173111057Y-55085722D01*
X174071432Y-55727425D01*
X174074768Y-55729734D01*
X175013623Y-56402507D01*
X175016882Y-56404924D01*
X175933255Y-57108083D01*
X175936372Y-57110556D01*
X176829267Y-57843336D01*
X176832324Y-57845929D01*
X176852405Y-57863540D01*
X177700745Y-58607515D01*
X177703751Y-58610240D01*
X178546752Y-59399796D01*
X178549668Y-59402618D01*
X179366395Y-60219345D01*
X179369217Y-60222261D01*
X180158773Y-61065262D01*
X180161498Y-61068268D01*
X180573907Y-61538530D01*
X180726913Y-61713000D01*
X180923068Y-61936671D01*
X180925682Y-61939752D01*
X181658450Y-62832633D01*
X181660936Y-62835766D01*
X181905542Y-63154541D01*
X182364089Y-63752131D01*
X182366506Y-63755390D01*
X183039279Y-64694245D01*
X183041588Y-64697581D01*
X183683291Y-65657956D01*
X183685490Y-65661367D01*
X184295415Y-66642206D01*
X184297501Y-66645686D01*
X184875017Y-67645975D01*
X184876988Y-67649522D01*
X185421457Y-68668152D01*
X185423311Y-68671761D01*
X185934166Y-69707673D01*
X185935901Y-69711341D01*
X186412590Y-70763414D01*
X186414204Y-70767137D01*
X186856216Y-71834250D01*
X186857707Y-71838024D01*
X187264559Y-72919003D01*
X187265926Y-72922823D01*
X187637194Y-74016542D01*
X187638436Y-74020406D01*
X187973728Y-75125714D01*
X187974842Y-75129616D01*
X188273781Y-76245274D01*
X188274767Y-76249210D01*
X188378662Y-76694792D01*
X188527346Y-77332464D01*
X188537050Y-77374080D01*
X188537906Y-77378046D01*
X188763233Y-78510842D01*
X188763960Y-78514834D01*
X188952113Y-79654462D01*
X188952708Y-79658476D01*
X189103467Y-80803598D01*
X189103931Y-80807629D01*
X189217142Y-81957087D01*
X189217474Y-81961131D01*
X189293017Y-83113697D01*
X189293216Y-83117750D01*
X189331009Y-84272164D01*
X189331075Y-84276221D01*
X189331075Y-85431222D01*
X189331009Y-85435279D01*
X189293216Y-86589693D01*
X189293017Y-86593746D01*
X189217474Y-87746312D01*
X189217142Y-87750356D01*
X189103931Y-88899814D01*
X189103467Y-88903845D01*
X188952708Y-90048967D01*
X188952113Y-90052981D01*
X188848344Y-90681505D01*
X188818002Y-90744442D01*
X188758450Y-90780985D01*
X188688595Y-90779530D01*
X188630617Y-90740540D01*
X188602921Y-90676394D01*
X188602000Y-90661306D01*
X188602000Y-89025859D01*
X188602001Y-89025846D01*
X188602001Y-88857745D01*
X188602001Y-88857743D01*
X188561077Y-88705015D01*
X188532139Y-88654895D01*
X188482020Y-88568084D01*
X188370216Y-88456280D01*
X188370215Y-88456279D01*
X188365885Y-88451949D01*
X188365874Y-88451939D01*
X184547090Y-84633155D01*
X184547088Y-84633152D01*
X184428217Y-84514281D01*
X184428216Y-84514280D01*
X184336936Y-84461580D01*
X184291285Y-84435223D01*
X184138557Y-84394299D01*
X183980443Y-84394299D01*
X183972847Y-84394299D01*
X183972831Y-84394300D01*
X183794775Y-84394300D01*
X183727736Y-84374615D01*
X183681981Y-84321811D01*
X183675000Y-84302392D01*
X183666806Y-84271811D01*
X183646577Y-84196316D01*
X183633612Y-84173859D01*
X183567524Y-84059390D01*
X183567521Y-84059386D01*
X183567520Y-84059384D01*
X183455716Y-83947580D01*
X183455715Y-83947579D01*
X183451385Y-83943249D01*
X183451374Y-83943239D01*
X183304890Y-83796755D01*
X183304888Y-83796752D01*
X183303119Y-83794983D01*
X183302484Y-83793820D01*
X183289397Y-83777857D01*
X183289395Y-83777854D01*
X183292599Y-83775717D01*
X183269634Y-83733660D01*
X183266800Y-83707302D01*
X183266800Y-83545685D01*
X183266800Y-83545679D01*
X183251987Y-83433163D01*
X183251986Y-83433162D01*
X183250926Y-83425104D01*
X183253992Y-83424700D01*
X183254000Y-83392099D01*
X183250926Y-83391695D01*
X183255208Y-83359168D01*
X183266800Y-83271120D01*
X183266800Y-83045680D01*
X183251987Y-82933164D01*
X183246247Y-82919306D01*
X183244316Y-82901349D01*
X183237468Y-82884634D01*
X183239769Y-82859060D01*
X183238778Y-82849837D01*
X183238864Y-82849367D01*
X183239992Y-82843245D01*
X183263897Y-82760968D01*
X183266799Y-82724093D01*
X183266799Y-82697877D01*
X183268855Y-82686728D01*
X183279707Y-82665255D01*
X183286484Y-82642176D01*
X183295178Y-82634642D01*
X183300370Y-82624370D01*
X183321110Y-82612171D01*
X183339288Y-82596421D01*
X183358693Y-82589444D01*
X183488434Y-82554681D01*
X183619664Y-82478915D01*
X183726814Y-82371765D01*
X183802580Y-82240535D01*
X183841799Y-82094166D01*
X183841799Y-81942634D01*
X183802580Y-81796265D01*
X183726814Y-81665035D01*
X183638911Y-81577132D01*
X183605426Y-81515809D01*
X183610410Y-81446117D01*
X183652282Y-81390184D01*
X183687588Y-81371745D01*
X183835420Y-81322758D01*
X183898312Y-81283964D01*
X183898313Y-81283964D01*
X183898312Y-81283963D01*
X185564286Y-81283963D01*
X185564286Y-81283965D01*
X185627173Y-81322755D01*
X185627179Y-81322758D01*
X185793602Y-81377905D01*
X185793609Y-81377906D01*
X185896319Y-81388399D01*
X187496271Y-81388399D01*
X187496287Y-81388398D01*
X187598997Y-81377905D01*
X187765420Y-81322758D01*
X187828312Y-81283964D01*
X187828313Y-81283964D01*
X186696300Y-80151952D01*
X185564286Y-81283963D01*
X183898312Y-81283963D01*
X182589524Y-79975176D01*
X182449067Y-79834719D01*
X182412747Y-79798399D01*
X183119852Y-79798399D01*
X183119852Y-79798401D01*
X184220149Y-80898698D01*
X184255805Y-80791097D01*
X184255806Y-80791090D01*
X184266299Y-80688386D01*
X184266299Y-78908429D01*
X184266298Y-78908413D01*
X185196300Y-78908413D01*
X185196300Y-80688371D01*
X185196301Y-80688387D01*
X185206794Y-80791096D01*
X185206795Y-80791102D01*
X185242448Y-80898698D01*
X185242449Y-80898698D01*
X186342748Y-79798400D01*
X186342748Y-79798399D01*
X187049852Y-79798399D01*
X187049852Y-79798400D01*
X188150149Y-80898698D01*
X188185805Y-80791097D01*
X188185806Y-80791090D01*
X188196299Y-80688386D01*
X188196299Y-78908428D01*
X188196298Y-78908412D01*
X188185805Y-78805702D01*
X188150149Y-78698100D01*
X187049852Y-79798399D01*
X186342748Y-79798399D01*
X185242449Y-78698100D01*
X185242448Y-78698100D01*
X185206794Y-78805700D01*
X185196300Y-78908413D01*
X184266298Y-78908413D01*
X184266298Y-78908412D01*
X184255805Y-78805702D01*
X184220149Y-78698100D01*
X183119852Y-79798399D01*
X182412747Y-79798399D01*
X181312449Y-78698100D01*
X181312448Y-78698100D01*
X181276794Y-78805700D01*
X181266300Y-78908413D01*
X181266300Y-80400576D01*
X181246615Y-80467615D01*
X181193811Y-80513370D01*
X181124653Y-80523314D01*
X181094848Y-80515137D01*
X180974201Y-80465164D01*
X180974191Y-80465161D01*
X180818851Y-80434262D01*
X180756941Y-80401877D01*
X180755362Y-80400326D01*
X178800781Y-78445746D01*
X178785790Y-78430755D01*
X178785788Y-78430752D01*
X178667870Y-78312834D01*
X181634286Y-78312834D01*
X182766300Y-79444848D01*
X182766301Y-79444848D01*
X183898312Y-78312835D01*
X183898312Y-78312834D01*
X185564286Y-78312834D01*
X186696300Y-79444848D01*
X186696301Y-79444848D01*
X187828312Y-78312835D01*
X187828312Y-78312834D01*
X187765426Y-78274044D01*
X187765419Y-78274041D01*
X187598997Y-78218894D01*
X187598990Y-78218893D01*
X187496280Y-78208400D01*
X185896328Y-78208400D01*
X185896312Y-78208401D01*
X185793602Y-78218894D01*
X185627180Y-78274041D01*
X185627175Y-78274043D01*
X185564286Y-78312834D01*
X183898312Y-78312834D01*
X183835426Y-78274044D01*
X183835419Y-78274041D01*
X183668997Y-78218894D01*
X183668990Y-78218893D01*
X183566280Y-78208400D01*
X181966328Y-78208400D01*
X181966312Y-78208401D01*
X181863602Y-78218894D01*
X181697180Y-78274041D01*
X181697175Y-78274043D01*
X181634286Y-78312834D01*
X178667870Y-78312834D01*
X178666917Y-78311881D01*
X178666916Y-78311880D01*
X178568609Y-78255123D01*
X178568608Y-78255122D01*
X178529983Y-78232822D01*
X178460484Y-78214200D01*
X178377257Y-78191899D01*
X178219143Y-78191899D01*
X178211547Y-78191899D01*
X178211531Y-78191900D01*
X171915666Y-78191900D01*
X171848627Y-78172215D01*
X171846775Y-78171002D01*
X171715085Y-78083009D01*
X171715072Y-78083002D01*
X171625219Y-78045785D01*
X171570815Y-78001945D01*
X171548750Y-77935651D01*
X171566029Y-77867951D01*
X171584986Y-77843547D01*
X172856723Y-76571810D01*
X172918042Y-76538328D01*
X172987734Y-76543312D01*
X173043667Y-76585184D01*
X173068084Y-76650648D01*
X173068400Y-76659493D01*
X173068400Y-76768370D01*
X173068401Y-76768387D01*
X173078894Y-76871097D01*
X173134041Y-77037519D01*
X173134043Y-77037524D01*
X173226084Y-77186745D01*
X173350054Y-77310715D01*
X173499275Y-77402756D01*
X173499280Y-77402758D01*
X173665702Y-77457905D01*
X173665709Y-77457906D01*
X173768419Y-77468399D01*
X174043399Y-77468399D01*
X174543400Y-77468399D01*
X174818372Y-77468399D01*
X174818386Y-77468398D01*
X174921097Y-77457905D01*
X175087519Y-77402758D01*
X175087524Y-77402756D01*
X175236745Y-77310715D01*
X175360715Y-77186745D01*
X175452756Y-77037524D01*
X175452758Y-77037519D01*
X175507905Y-76871097D01*
X175507906Y-76871090D01*
X175518399Y-76768386D01*
X175518400Y-76768373D01*
X175518400Y-76718400D01*
X174543400Y-76718400D01*
X174543400Y-77468399D01*
X174043399Y-77468399D01*
X174043400Y-77468398D01*
X174043400Y-76592400D01*
X174063085Y-76525361D01*
X174115889Y-76479606D01*
X174167400Y-76468400D01*
X174293400Y-76468400D01*
X174293400Y-76342400D01*
X174313085Y-76275361D01*
X174365889Y-76229606D01*
X174417400Y-76218400D01*
X175518399Y-76218400D01*
X175518399Y-76168428D01*
X175518398Y-76168413D01*
X175513014Y-76115707D01*
X175525784Y-76047014D01*
X175573664Y-75996130D01*
X175641454Y-75979209D01*
X175648060Y-75979945D01*
X175648068Y-75979848D01*
X175675300Y-75981989D01*
X176175300Y-75981989D01*
X176196210Y-75980345D01*
X176351495Y-75935231D01*
X176490674Y-75852921D01*
X176490683Y-75852914D01*
X176605014Y-75738583D01*
X176605021Y-75738574D01*
X176687331Y-75599395D01*
X176729804Y-75453200D01*
X176175300Y-75453200D01*
X176175300Y-75981989D01*
X175675300Y-75981989D01*
X175675300Y-75327200D01*
X175694985Y-75260161D01*
X175747789Y-75214406D01*
X175799300Y-75203200D01*
X175925300Y-75203200D01*
X175925300Y-75147700D01*
X175938835Y-75101605D01*
X181150150Y-75101605D01*
X181150150Y-75371232D01*
X181180336Y-75639138D01*
X181180338Y-75639150D01*
X181240334Y-75902013D01*
X181240337Y-75902021D01*
X181329384Y-76156501D01*
X181446364Y-76399413D01*
X181456064Y-76414851D01*
X181589812Y-76627708D01*
X181757916Y-76838504D01*
X181948565Y-77029153D01*
X182159361Y-77197257D01*
X182387653Y-77340703D01*
X182630571Y-77457686D01*
X182821149Y-77524372D01*
X182885047Y-77546731D01*
X182885055Y-77546734D01*
X182885058Y-77546734D01*
X182885059Y-77546735D01*
X183147918Y-77606731D01*
X183415837Y-77636918D01*
X183415838Y-77636919D01*
X183415841Y-77636919D01*
X183685462Y-77636919D01*
X183685462Y-77636918D01*
X183953382Y-77606731D01*
X184216241Y-77546735D01*
X184470729Y-77457686D01*
X184713647Y-77340703D01*
X184941939Y-77197257D01*
X185152735Y-77029153D01*
X185343384Y-76838504D01*
X185511488Y-76627708D01*
X185654934Y-76399416D01*
X185771917Y-76156498D01*
X185860966Y-75902010D01*
X185920962Y-75639151D01*
X185951150Y-75371228D01*
X185951150Y-75101610D01*
X185920962Y-74833687D01*
X185860966Y-74570828D01*
X185771917Y-74316340D01*
X185654934Y-74073422D01*
X185511488Y-73845130D01*
X185343384Y-73634334D01*
X185152735Y-73443685D01*
X184941939Y-73275581D01*
X184713647Y-73132135D01*
X184713644Y-73132133D01*
X184470732Y-73015153D01*
X184216252Y-72926106D01*
X184216244Y-72926103D01*
X184019096Y-72881106D01*
X183953382Y-72866107D01*
X183953378Y-72866106D01*
X183953369Y-72866105D01*
X183685463Y-72835919D01*
X183685459Y-72835919D01*
X183415841Y-72835919D01*
X183415836Y-72835919D01*
X183147930Y-72866105D01*
X183147918Y-72866107D01*
X182885055Y-72926103D01*
X182885047Y-72926106D01*
X182630567Y-73015153D01*
X182387655Y-73132133D01*
X182159362Y-73275580D01*
X181948565Y-73443684D01*
X181757915Y-73634334D01*
X181589811Y-73845131D01*
X181446364Y-74073424D01*
X181329384Y-74316336D01*
X181240337Y-74570816D01*
X181240334Y-74570824D01*
X181180338Y-74833687D01*
X181180336Y-74833699D01*
X181150150Y-75101605D01*
X175938835Y-75101605D01*
X175944985Y-75080661D01*
X175997789Y-75034906D01*
X176049300Y-75023700D01*
X176159982Y-75023700D01*
X176159990Y-75023700D01*
X176196293Y-75020843D01*
X176196295Y-75020842D01*
X176196297Y-75020842D01*
X176298668Y-74991100D01*
X176351695Y-74975694D01*
X176367473Y-74966362D01*
X176374881Y-74963194D01*
X176396570Y-74960608D01*
X176423652Y-74953200D01*
X176729804Y-74953200D01*
X176687331Y-74807003D01*
X176675390Y-74786813D01*
X176658206Y-74719089D01*
X176675389Y-74660569D01*
X176687794Y-74639595D01*
X176732943Y-74484193D01*
X176735800Y-74447890D01*
X176735800Y-74038510D01*
X176732943Y-74002207D01*
X176732030Y-73999066D01*
X176692699Y-73863687D01*
X176687794Y-73846805D01*
X176605417Y-73707513D01*
X176605415Y-73707511D01*
X176605412Y-73707507D01*
X176490992Y-73593087D01*
X176490984Y-73593081D01*
X176351693Y-73510705D01*
X176351690Y-73510704D01*
X176196297Y-73465557D01*
X176196291Y-73465556D01*
X176159997Y-73462700D01*
X176159990Y-73462700D01*
X175690610Y-73462700D01*
X175690602Y-73462700D01*
X175654308Y-73465556D01*
X175654302Y-73465557D01*
X175498909Y-73510704D01*
X175498906Y-73510705D01*
X175359615Y-73593081D01*
X175359607Y-73593087D01*
X175346314Y-73606381D01*
X175319386Y-73621084D01*
X175293568Y-73637677D01*
X175287367Y-73638568D01*
X175284991Y-73639866D01*
X175258633Y-73642700D01*
X175134768Y-73642700D01*
X175095226Y-73633932D01*
X175094588Y-73635858D01*
X175087736Y-73633587D01*
X175087734Y-73633586D01*
X175005635Y-73606381D01*
X174978895Y-73597520D01*
X174921450Y-73557747D01*
X174894628Y-73493231D01*
X174893900Y-73479814D01*
X174893900Y-73353099D01*
X174913585Y-73286060D01*
X174966389Y-73240305D01*
X175017900Y-73229099D01*
X175050123Y-73229099D01*
X175050123Y-73229098D01*
X175092889Y-73226200D01*
X175277693Y-73180241D01*
X175448296Y-73095630D01*
X175596722Y-72976322D01*
X175716030Y-72827896D01*
X175800641Y-72657293D01*
X175846600Y-72472489D01*
X175849500Y-72429723D01*
X175849499Y-71527478D01*
X175846600Y-71484711D01*
X175800641Y-71299907D01*
X175778872Y-71256013D01*
X175716032Y-71129307D01*
X175716030Y-71129304D01*
X175596722Y-70980878D01*
X175596721Y-70980877D01*
X175527514Y-70925247D01*
X175487595Y-70867904D01*
X175485015Y-70798082D01*
X175520594Y-70737949D01*
X175527514Y-70731953D01*
X175536909Y-70724400D01*
X175596722Y-70676322D01*
X175716030Y-70527896D01*
X175777923Y-70403100D01*
X175803628Y-70351271D01*
X175805535Y-70352217D01*
X175841131Y-70304190D01*
X175906478Y-70279460D01*
X175915916Y-70279100D01*
X179024501Y-70279100D01*
X179091540Y-70298785D01*
X179137295Y-70351589D01*
X179148501Y-70403100D01*
X179148501Y-71136636D01*
X179149112Y-71143506D01*
X179159113Y-71256015D01*
X179215089Y-71451645D01*
X179215090Y-71451648D01*
X179215091Y-71451649D01*
X179309302Y-71632007D01*
X179309304Y-71632009D01*
X179437890Y-71789709D01*
X179531803Y-71866284D01*
X179595593Y-71918298D01*
X179775951Y-72012509D01*
X179971582Y-72068486D01*
X180090963Y-72079100D01*
X181207036Y-72079099D01*
X181326418Y-72068486D01*
X181522049Y-72012509D01*
X181702407Y-71918298D01*
X181860109Y-71789709D01*
X181988698Y-71632007D01*
X182082909Y-71451649D01*
X182138886Y-71256018D01*
X182149500Y-71136637D01*
X182149499Y-68220564D01*
X182138886Y-68101182D01*
X182089599Y-67928930D01*
X182082910Y-67905554D01*
X182082909Y-67905553D01*
X182082909Y-67905551D01*
X181988698Y-67725193D01*
X181927386Y-67650000D01*
X181860109Y-67567490D01*
X181744933Y-67473577D01*
X181702407Y-67438902D01*
X181522049Y-67344691D01*
X181522048Y-67344690D01*
X181522045Y-67344689D01*
X181404829Y-67311150D01*
X181326418Y-67288714D01*
X181326415Y-67288713D01*
X181326413Y-67288713D01*
X181260102Y-67282817D01*
X181207037Y-67278100D01*
X181207032Y-67278100D01*
X180090971Y-67278100D01*
X180090965Y-67278100D01*
X180090964Y-67278101D01*
X180079316Y-67279136D01*
X179971584Y-67288713D01*
X179775954Y-67344689D01*
X179711035Y-67378600D01*
X179595593Y-67438902D01*
X179595591Y-67438903D01*
X179595590Y-67438904D01*
X179437890Y-67567490D01*
X179309304Y-67725190D01*
X179309302Y-67725193D01*
X179268190Y-67803898D01*
X179215089Y-67905554D01*
X179159114Y-68101183D01*
X179159113Y-68101186D01*
X179152772Y-68172516D01*
X179148718Y-68218119D01*
X179148500Y-68220566D01*
X179148500Y-68954100D01*
X179128815Y-69021139D01*
X179076011Y-69066894D01*
X179024500Y-69078100D01*
X175915916Y-69078100D01*
X175848877Y-69058415D01*
X175803122Y-69005611D01*
X175801425Y-69001487D01*
X175716032Y-68829307D01*
X175716030Y-68829304D01*
X175596724Y-68680880D01*
X175596722Y-68680878D01*
X175527112Y-68624924D01*
X175487196Y-68567585D01*
X175484616Y-68497763D01*
X175520194Y-68437630D01*
X175527115Y-68431633D01*
X175596366Y-68375967D01*
X175596367Y-68375966D01*
X175715607Y-68227625D01*
X175715609Y-68227622D01*
X175800168Y-68057123D01*
X175846102Y-67872424D01*
X175849000Y-67829696D01*
X175849000Y-67628600D01*
X174473000Y-67628600D01*
X174405961Y-67608915D01*
X174360206Y-67556111D01*
X174349000Y-67504600D01*
X174349000Y-67378600D01*
X174223000Y-67378600D01*
X174155961Y-67358915D01*
X174110206Y-67306111D01*
X174099000Y-67254600D01*
X174099000Y-67128600D01*
X174599000Y-67128600D01*
X175849000Y-67128600D01*
X175849000Y-66927503D01*
X175846102Y-66884775D01*
X175800168Y-66700076D01*
X175715609Y-66529577D01*
X175715607Y-66529574D01*
X175596367Y-66381233D01*
X175596366Y-66381232D01*
X175448025Y-66261992D01*
X175448022Y-66261990D01*
X175277523Y-66177431D01*
X175092824Y-66131497D01*
X175050097Y-66128600D01*
X174599000Y-66128600D01*
X174599000Y-67128600D01*
X174099000Y-67128600D01*
X174099000Y-66128600D01*
X173647903Y-66128600D01*
X173605175Y-66131497D01*
X173420476Y-66177431D01*
X173249977Y-66261990D01*
X173249974Y-66261992D01*
X173101633Y-66381232D01*
X173101632Y-66381233D01*
X172982392Y-66529574D01*
X172982390Y-66529577D01*
X172897831Y-66700076D01*
X172851897Y-66884775D01*
X172849000Y-66927503D01*
X172849000Y-67236540D01*
X172829315Y-67303579D01*
X172776511Y-67349334D01*
X172707353Y-67359278D01*
X172643797Y-67330253D01*
X172637319Y-67324221D01*
X172548183Y-67235085D01*
X172548174Y-67235078D01*
X172408995Y-67152768D01*
X172408990Y-67152766D01*
X172253718Y-67107655D01*
X172253712Y-67107654D01*
X172232800Y-67106009D01*
X172232800Y-67760800D01*
X172213115Y-67827839D01*
X172160311Y-67873594D01*
X172108800Y-67884800D01*
X171856800Y-67884800D01*
X171789761Y-67865115D01*
X171744006Y-67812311D01*
X171732800Y-67760800D01*
X171732800Y-67207100D01*
X169160101Y-67207100D01*
X169160101Y-67257086D01*
X169170594Y-67359797D01*
X169225741Y-67526219D01*
X169225743Y-67526224D01*
X169317784Y-67675445D01*
X169441755Y-67799416D01*
X169441759Y-67799419D01*
X169444756Y-67801268D01*
X169446379Y-67803072D01*
X169447423Y-67803898D01*
X169447281Y-67804076D01*
X169491481Y-67853216D01*
X169502702Y-67922179D01*
X169474859Y-67986261D01*
X169444761Y-68012341D01*
X169441449Y-68014383D01*
X169441443Y-68014388D01*
X169317389Y-68138442D01*
X169317388Y-68138444D01*
X169284368Y-68191979D01*
X169280841Y-68197697D01*
X169228893Y-68244421D01*
X169175302Y-68256600D01*
X166486403Y-68256600D01*
X166419364Y-68236915D01*
X166373609Y-68184111D01*
X166362410Y-68133905D01*
X166362274Y-68121030D01*
X166364500Y-68109842D01*
X166364500Y-67952158D01*
X166360273Y-67930911D01*
X166360152Y-67919356D01*
X166366628Y-67896407D01*
X166368754Y-67872653D01*
X166376796Y-67860380D01*
X166379130Y-67852113D01*
X166386475Y-67845611D01*
X166396461Y-67830373D01*
X166507265Y-67719570D01*
X166568584Y-67686088D01*
X166570751Y-67685637D01*
X166571440Y-67685500D01*
X166571442Y-67685500D01*
X166726097Y-67654737D01*
X166871779Y-67594394D01*
X167002889Y-67506789D01*
X167114389Y-67395289D01*
X167201994Y-67264179D01*
X167262337Y-67118497D01*
X167293100Y-66963842D01*
X167293100Y-66806158D01*
X167293100Y-66806155D01*
X167293099Y-66806153D01*
X167267639Y-66678155D01*
X167263453Y-66657113D01*
X169160100Y-66657113D01*
X169160100Y-66707100D01*
X170135100Y-66707100D01*
X170635100Y-66707100D01*
X171610099Y-66707100D01*
X171610099Y-66657128D01*
X171610098Y-66657113D01*
X171599605Y-66554402D01*
X171544458Y-66387980D01*
X171544456Y-66387975D01*
X171452415Y-66238754D01*
X171328445Y-66114784D01*
X171179224Y-66022743D01*
X171179219Y-66022741D01*
X171012797Y-65967594D01*
X171012790Y-65967593D01*
X170910086Y-65957100D01*
X170635100Y-65957100D01*
X170635100Y-66707100D01*
X170135100Y-66707100D01*
X170135100Y-65957100D01*
X169860129Y-65957100D01*
X169860112Y-65957101D01*
X169757402Y-65967594D01*
X169590980Y-66022741D01*
X169590975Y-66022743D01*
X169441754Y-66114784D01*
X169317784Y-66238754D01*
X169225743Y-66387975D01*
X169225741Y-66387980D01*
X169170594Y-66554402D01*
X169170593Y-66554409D01*
X169160100Y-66657113D01*
X167263453Y-66657113D01*
X167262338Y-66651508D01*
X167262337Y-66651507D01*
X167262337Y-66651503D01*
X167259928Y-66645686D01*
X167201997Y-66505827D01*
X167201990Y-66505814D01*
X167114389Y-66374711D01*
X167114386Y-66374707D01*
X167002892Y-66263213D01*
X167002888Y-66263210D01*
X166871785Y-66175609D01*
X166871772Y-66175602D01*
X166726101Y-66115264D01*
X166726089Y-66115261D01*
X166571445Y-66084500D01*
X166571442Y-66084500D01*
X166413758Y-66084500D01*
X166413755Y-66084500D01*
X166259110Y-66115261D01*
X166259098Y-66115264D01*
X166113427Y-66175602D01*
X166113414Y-66175609D01*
X165982311Y-66263210D01*
X165982307Y-66263213D01*
X165870813Y-66374707D01*
X165870810Y-66374711D01*
X165783209Y-66505814D01*
X165783202Y-66505827D01*
X165722864Y-66651498D01*
X165722861Y-66651508D01*
X165691962Y-66806848D01*
X165683196Y-66823604D01*
X165679177Y-66842083D01*
X165660432Y-66867123D01*
X165659577Y-66868759D01*
X165658027Y-66870337D01*
X165489879Y-67038484D01*
X165428558Y-67071968D01*
X165358867Y-67066984D01*
X165302933Y-67025113D01*
X165278516Y-66959648D01*
X165278200Y-66950802D01*
X165278200Y-66609260D01*
X165278201Y-66609247D01*
X165278201Y-66441144D01*
X165278201Y-66441143D01*
X165237277Y-66288416D01*
X165222725Y-66263211D01*
X165158224Y-66151490D01*
X165158218Y-66151482D01*
X164659917Y-65653181D01*
X164659916Y-65653180D01*
X164573104Y-65603060D01*
X164573104Y-65603059D01*
X164573100Y-65603058D01*
X164522985Y-65574123D01*
X164370257Y-65533199D01*
X164212143Y-65533199D01*
X164204547Y-65533199D01*
X164204531Y-65533200D01*
X158056169Y-65533200D01*
X158056153Y-65533199D01*
X158048557Y-65533199D01*
X157890443Y-65533199D01*
X157783087Y-65561965D01*
X157737710Y-65574124D01*
X157737709Y-65574125D01*
X157690598Y-65601325D01*
X157690582Y-65601335D01*
X157687595Y-65603060D01*
X157600784Y-65653180D01*
X157580769Y-65673194D01*
X157570044Y-65680213D01*
X157548373Y-65686770D01*
X157528501Y-65697621D01*
X157515574Y-65696695D01*
X157503169Y-65700450D01*
X157481390Y-65694249D01*
X157458810Y-65692634D01*
X157448436Y-65684868D01*
X157435970Y-65681319D01*
X157420999Y-65664327D01*
X157402878Y-65650761D01*
X157391603Y-65630962D01*
X157389781Y-65628894D01*
X157389545Y-65627349D01*
X157387588Y-65623912D01*
X157361994Y-65562121D01*
X157361992Y-65562118D01*
X157361990Y-65562114D01*
X157274389Y-65431011D01*
X157274386Y-65431007D01*
X157162892Y-65319513D01*
X157162888Y-65319510D01*
X157031785Y-65231909D01*
X157031772Y-65231902D01*
X156886101Y-65171564D01*
X156886089Y-65171561D01*
X156731445Y-65140800D01*
X156731442Y-65140800D01*
X156573758Y-65140800D01*
X156573755Y-65140800D01*
X156419110Y-65171561D01*
X156419098Y-65171564D01*
X156273427Y-65231902D01*
X156273414Y-65231909D01*
X156142311Y-65319510D01*
X156142307Y-65319513D01*
X156030813Y-65431007D01*
X156030810Y-65431011D01*
X155943209Y-65562114D01*
X155943202Y-65562127D01*
X155882864Y-65707798D01*
X155882861Y-65707810D01*
X155852100Y-65862453D01*
X155852100Y-66020146D01*
X155873396Y-66127207D01*
X155867169Y-66196798D01*
X155824306Y-66251976D01*
X155820682Y-66254492D01*
X155817813Y-66256408D01*
X155817804Y-66256417D01*
X155706313Y-66367907D01*
X155706310Y-66367910D01*
X155630486Y-66481391D01*
X155576874Y-66526196D01*
X155527384Y-66536500D01*
X141386670Y-66536500D01*
X141386654Y-66536499D01*
X141379058Y-66536499D01*
X141220943Y-66536499D01*
X141068215Y-66577423D01*
X140939905Y-66651503D01*
X140931281Y-66656482D01*
X140574977Y-67012786D01*
X140513654Y-67046271D01*
X140443962Y-67041287D01*
X140388029Y-66999415D01*
X140372738Y-66972565D01*
X140329394Y-66867921D01*
X140329392Y-66867918D01*
X140329390Y-66867914D01*
X140241398Y-66736225D01*
X140220520Y-66669547D01*
X140220500Y-66667334D01*
X140220500Y-65281100D01*
X140240185Y-65214061D01*
X140292989Y-65168306D01*
X140344500Y-65157100D01*
X147574034Y-65157100D01*
X147641073Y-65176785D01*
X147642925Y-65177998D01*
X147774614Y-65265990D01*
X147774627Y-65265997D01*
X147868054Y-65304695D01*
X147920303Y-65326337D01*
X148074953Y-65357099D01*
X148074956Y-65357100D01*
X148074958Y-65357100D01*
X148232644Y-65357100D01*
X148232645Y-65357099D01*
X148387297Y-65326337D01*
X148532979Y-65265994D01*
X148664089Y-65178389D01*
X148775589Y-65066889D01*
X148863194Y-64935779D01*
X148923537Y-64790097D01*
X148954300Y-64635442D01*
X148954300Y-64477758D01*
X148954300Y-64477755D01*
X148954299Y-64477753D01*
X148923538Y-64323110D01*
X148923537Y-64323103D01*
X148923535Y-64323098D01*
X148863197Y-64177427D01*
X148863190Y-64177414D01*
X148775589Y-64046311D01*
X148775586Y-64046307D01*
X148664092Y-63934813D01*
X148664088Y-63934810D01*
X148532985Y-63847209D01*
X148532972Y-63847202D01*
X148387301Y-63786864D01*
X148387289Y-63786861D01*
X148232645Y-63756100D01*
X148232642Y-63756100D01*
X148074958Y-63756100D01*
X148074955Y-63756100D01*
X147920310Y-63786861D01*
X147920298Y-63786864D01*
X147774627Y-63847202D01*
X147774614Y-63847209D01*
X147642925Y-63935202D01*
X147576247Y-63956080D01*
X147574034Y-63956100D01*
X140344501Y-63956100D01*
X140277462Y-63936415D01*
X140231707Y-63883611D01*
X140220501Y-63832100D01*
X140220501Y-63820145D01*
X140220501Y-63820143D01*
X140179577Y-63667415D01*
X140150639Y-63617295D01*
X140100520Y-63530484D01*
X139988716Y-63418680D01*
X139988715Y-63418679D01*
X139984385Y-63414349D01*
X139984374Y-63414339D01*
X137220119Y-60650084D01*
X137186634Y-60588761D01*
X137183800Y-60562403D01*
X137183800Y-60141680D01*
X137183799Y-60141666D01*
X137181753Y-60126129D01*
X137166575Y-60010838D01*
X137132500Y-59883671D01*
X137082001Y-59761757D01*
X137081998Y-59761752D01*
X137081997Y-59761749D01*
X137081996Y-59761748D01*
X137016179Y-59647750D01*
X137016175Y-59647743D01*
X136952748Y-59565085D01*
X136935844Y-59543055D01*
X136935841Y-59543051D01*
X136842749Y-59449959D01*
X136842744Y-59449955D01*
X136738067Y-59369632D01*
X136738049Y-59369620D01*
X136624051Y-59303803D01*
X136624050Y-59303802D01*
X136502129Y-59253300D01*
X136374958Y-59219224D01*
X136244133Y-59202000D01*
X136244126Y-59202000D01*
X135678300Y-59202000D01*
X135678297Y-59202000D01*
X135606359Y-59207144D01*
X135468305Y-59247682D01*
X135347269Y-59325467D01*
X135347265Y-59325471D01*
X135253050Y-59434200D01*
X135253044Y-59434209D01*
X135193276Y-59565080D01*
X135193275Y-59565085D01*
X135172800Y-59707499D01*
X135172800Y-61207502D01*
X135177944Y-61279440D01*
X135218482Y-61417494D01*
X135296267Y-61538530D01*
X135296269Y-61538532D01*
X135405006Y-61632754D01*
X135445474Y-61651235D01*
X135535880Y-61692523D01*
X135535883Y-61692523D01*
X135535884Y-61692524D01*
X135678300Y-61713000D01*
X135678303Y-61713000D01*
X136244119Y-61713000D01*
X136244126Y-61713000D01*
X136374962Y-61695775D01*
X136457535Y-61673649D01*
X136527383Y-61675312D01*
X136577308Y-61705743D01*
X138983181Y-64111616D01*
X139016666Y-64172939D01*
X139019500Y-64199297D01*
X139019500Y-65143961D01*
X138999815Y-65211000D01*
X138947011Y-65256755D01*
X138877853Y-65266699D01*
X138839205Y-65254446D01*
X138783557Y-65226091D01*
X138618889Y-65172587D01*
X138618881Y-65172585D01*
X138611300Y-65171384D01*
X138611300Y-66240170D01*
X138591555Y-66220425D01*
X138506045Y-66171056D01*
X138410670Y-66145500D01*
X138311930Y-66145500D01*
X138216555Y-66171056D01*
X138131045Y-66220425D01*
X138111300Y-66240170D01*
X138111300Y-65171384D01*
X138111299Y-65171384D01*
X138103718Y-65172585D01*
X138103710Y-65172587D01*
X137939042Y-65226091D01*
X137784775Y-65304695D01*
X137644697Y-65406467D01*
X137522265Y-65528899D01*
X137522261Y-65528904D01*
X137461926Y-65611949D01*
X137406596Y-65654615D01*
X137336983Y-65660594D01*
X137275188Y-65627988D01*
X137261290Y-65611950D01*
X137254830Y-65603058D01*
X137200713Y-65528573D01*
X137078227Y-65406087D01*
X136938087Y-65304269D01*
X136783744Y-65225628D01*
X136619000Y-65172099D01*
X136618998Y-65172098D01*
X136618997Y-65172098D01*
X136487570Y-65151282D01*
X136447910Y-65145001D01*
X136274688Y-65145001D01*
X136235027Y-65151282D01*
X136103601Y-65172098D01*
X135938851Y-65225629D01*
X135784510Y-65304269D01*
X135711797Y-65357099D01*
X135644371Y-65406087D01*
X135644369Y-65406089D01*
X135644368Y-65406089D01*
X135521884Y-65528573D01*
X135461617Y-65611523D01*
X135406287Y-65654188D01*
X135336673Y-65660166D01*
X135274879Y-65627559D01*
X135260983Y-65611523D01*
X135200715Y-65528571D01*
X135078229Y-65406085D01*
X134938089Y-65304267D01*
X134783746Y-65225626D01*
X134619002Y-65172097D01*
X134619000Y-65172096D01*
X134618999Y-65172096D01*
X134487572Y-65151280D01*
X134447912Y-65144999D01*
X134274690Y-65144999D01*
X134235029Y-65151280D01*
X134103603Y-65172096D01*
X133938853Y-65225627D01*
X133784512Y-65304267D01*
X133644374Y-65406084D01*
X133536830Y-65513628D01*
X133475507Y-65547112D01*
X133405815Y-65542128D01*
X133349882Y-65500256D01*
X133343610Y-65491043D01*
X133304012Y-65426844D01*
X133179956Y-65302788D01*
X133054859Y-65225628D01*
X133030636Y-65210687D01*
X133030631Y-65210685D01*
X133029162Y-65210198D01*
X132864097Y-65155501D01*
X132864095Y-65155500D01*
X132761310Y-65145000D01*
X131961298Y-65145000D01*
X131961280Y-65145001D01*
X131858503Y-65155500D01*
X131858500Y-65155501D01*
X131691968Y-65210685D01*
X131691963Y-65210687D01*
X131542642Y-65302789D01*
X131418589Y-65426842D01*
X131326487Y-65576163D01*
X131326485Y-65576168D01*
X131309456Y-65627559D01*
X131271301Y-65742703D01*
X131271301Y-65742704D01*
X131271300Y-65742704D01*
X131260800Y-65845483D01*
X131260800Y-67195501D01*
X131260801Y-67195518D01*
X131271300Y-67298296D01*
X131271301Y-67298299D01*
X131326485Y-67464831D01*
X131326487Y-67464836D01*
X131343246Y-67492007D01*
X131418588Y-67614156D01*
X131542644Y-67738212D01*
X131691966Y-67830314D01*
X131858503Y-67885499D01*
X131961291Y-67896000D01*
X132761308Y-67895999D01*
X132761316Y-67895998D01*
X132761319Y-67895998D01*
X132817602Y-67890248D01*
X132864097Y-67885499D01*
X133030634Y-67830314D01*
X133179956Y-67738212D01*
X133304012Y-67614156D01*
X133343612Y-67549952D01*
X133395556Y-67503230D01*
X133464519Y-67492007D01*
X133528601Y-67519849D01*
X133536830Y-67527370D01*
X133644373Y-67634913D01*
X133784513Y-67736731D01*
X133938856Y-67815372D01*
X134103600Y-67868901D01*
X134274690Y-67895999D01*
X134274691Y-67895999D01*
X134447911Y-67895999D01*
X134447912Y-67895999D01*
X134619002Y-67868901D01*
X134783746Y-67815372D01*
X134938089Y-67736731D01*
X134971379Y-67712543D01*
X135037181Y-67689063D01*
X135105235Y-67704887D01*
X135131945Y-67725180D01*
X136423339Y-69016574D01*
X136423349Y-69016585D01*
X136427679Y-69020915D01*
X136427680Y-69020916D01*
X136539484Y-69132720D01*
X136626295Y-69182839D01*
X136626297Y-69182841D01*
X136664351Y-69204811D01*
X136676415Y-69211777D01*
X136829143Y-69252700D01*
X151072100Y-69252700D01*
X151139139Y-69272385D01*
X151184894Y-69325189D01*
X151196100Y-69376700D01*
X151196100Y-70756134D01*
X151191619Y-70772292D01*
X151192077Y-70787465D01*
X151179888Y-70814594D01*
X151178390Y-70819997D01*
X151175326Y-70825095D01*
X151174811Y-70825611D01*
X151087206Y-70956721D01*
X151067153Y-71005132D01*
X151062405Y-71013035D01*
X151043206Y-71030711D01*
X151026833Y-71051030D01*
X151016266Y-71055517D01*
X151011005Y-71060362D01*
X151000564Y-71062185D01*
X150980307Y-71070789D01*
X150918108Y-71083161D01*
X150918098Y-71083164D01*
X150772427Y-71143502D01*
X150772414Y-71143509D01*
X150641311Y-71231110D01*
X150641307Y-71231113D01*
X150529813Y-71342607D01*
X150529810Y-71342611D01*
X150442209Y-71473714D01*
X150442202Y-71473727D01*
X150381864Y-71619398D01*
X150381861Y-71619410D01*
X150351100Y-71774053D01*
X150351100Y-71931746D01*
X150381861Y-72086389D01*
X150381864Y-72086401D01*
X150442202Y-72232072D01*
X150442209Y-72232085D01*
X150529810Y-72363188D01*
X150529813Y-72363192D01*
X150641307Y-72474686D01*
X150641311Y-72474689D01*
X150678589Y-72499598D01*
X150723394Y-72553211D01*
X150732101Y-72622536D01*
X150701946Y-72685563D01*
X150642503Y-72722282D01*
X150609698Y-72726700D01*
X139927566Y-72726700D01*
X139860527Y-72707015D01*
X139858675Y-72705802D01*
X139726985Y-72617809D01*
X139726972Y-72617802D01*
X139581301Y-72557464D01*
X139581289Y-72557461D01*
X139426645Y-72526700D01*
X139426642Y-72526700D01*
X139268958Y-72526700D01*
X139268955Y-72526700D01*
X139114310Y-72557461D01*
X139114298Y-72557464D01*
X138968627Y-72617802D01*
X138968614Y-72617809D01*
X138837511Y-72705410D01*
X138837507Y-72705413D01*
X138726013Y-72816907D01*
X138726010Y-72816911D01*
X138638409Y-72948014D01*
X138638402Y-72948027D01*
X138578064Y-73093698D01*
X138578061Y-73093710D01*
X138547300Y-73248353D01*
X138547300Y-73406046D01*
X138578061Y-73560689D01*
X138578064Y-73560701D01*
X138638402Y-73706372D01*
X138638409Y-73706385D01*
X138726010Y-73837488D01*
X138726013Y-73837492D01*
X138837507Y-73948986D01*
X138837511Y-73948989D01*
X138968614Y-74036590D01*
X138968627Y-74036597D01*
X139057532Y-74073422D01*
X139114303Y-74096937D01*
X139268953Y-74127699D01*
X139268956Y-74127700D01*
X139268958Y-74127700D01*
X139426644Y-74127700D01*
X139426645Y-74127699D01*
X139581297Y-74096937D01*
X139693966Y-74050267D01*
X139726972Y-74036597D01*
X139726972Y-74036596D01*
X139726979Y-74036594D01*
X139756989Y-74016542D01*
X139858675Y-73948598D01*
X139925353Y-73927720D01*
X139927566Y-73927700D01*
X151218531Y-73927700D01*
X151218547Y-73927701D01*
X151226143Y-73927701D01*
X151384254Y-73927701D01*
X151384257Y-73927701D01*
X151536985Y-73886777D01*
X151587104Y-73857839D01*
X151673916Y-73807720D01*
X151785720Y-73695916D01*
X151785720Y-73695914D01*
X151795928Y-73685707D01*
X151795930Y-73685704D01*
X153104434Y-72377199D01*
X153165755Y-72343716D01*
X153216303Y-72343265D01*
X153267353Y-72353419D01*
X153323056Y-72364500D01*
X153323058Y-72364500D01*
X153480744Y-72364500D01*
X153480745Y-72364499D01*
X153635397Y-72333737D01*
X153781079Y-72273394D01*
X153878502Y-72208298D01*
X153945179Y-72187420D01*
X153947393Y-72187400D01*
X172152531Y-72187400D01*
X172152547Y-72187401D01*
X172160143Y-72187401D01*
X172318254Y-72187401D01*
X172318257Y-72187401D01*
X172470985Y-72146477D01*
X172528523Y-72113257D01*
X172607916Y-72067420D01*
X172644355Y-72030980D01*
X172653055Y-72024848D01*
X172676447Y-72016876D01*
X172698140Y-72005031D01*
X172708941Y-72005803D01*
X172719190Y-72002311D01*
X172743181Y-72008252D01*
X172767832Y-72010015D01*
X172776499Y-72016502D01*
X172787011Y-72019106D01*
X172803981Y-72037075D01*
X172823766Y-72051885D01*
X172827550Y-72062030D01*
X172834985Y-72069903D01*
X172839546Y-72094191D01*
X172848184Y-72117349D01*
X172848500Y-72126197D01*
X172848500Y-72429721D01*
X172848501Y-72429725D01*
X172851399Y-72472486D01*
X172851399Y-72472487D01*
X172897360Y-72657296D01*
X172981967Y-72827892D01*
X172981969Y-72827895D01*
X173101277Y-72976321D01*
X173101278Y-72976322D01*
X173249704Y-73095630D01*
X173249707Y-73095632D01*
X173415075Y-73177646D01*
X173420307Y-73180241D01*
X173595373Y-73223778D01*
X173598826Y-73224637D01*
X173623789Y-73239242D01*
X173650103Y-73251259D01*
X173653581Y-73256672D01*
X173659133Y-73259920D01*
X173672237Y-73285700D01*
X173687877Y-73310037D01*
X173689166Y-73319007D01*
X173690792Y-73322205D01*
X173692900Y-73344972D01*
X173692900Y-73479814D01*
X173673215Y-73546853D01*
X173620411Y-73592608D01*
X173607905Y-73597520D01*
X173499066Y-73633586D01*
X173499063Y-73633587D01*
X173349742Y-73725689D01*
X173225689Y-73849742D01*
X173133587Y-73999063D01*
X173133585Y-73999068D01*
X173120513Y-74038517D01*
X173078401Y-74165603D01*
X173078401Y-74165604D01*
X173078400Y-74165604D01*
X173067900Y-74268383D01*
X173067900Y-74610801D01*
X173048215Y-74677840D01*
X173031581Y-74698482D01*
X170365486Y-77364578D01*
X170253681Y-77476382D01*
X170253675Y-77476390D01*
X170213063Y-77546734D01*
X170213063Y-77546735D01*
X170174623Y-77613315D01*
X170133699Y-77766043D01*
X170133699Y-77766045D01*
X170133699Y-77934146D01*
X170133700Y-77934159D01*
X170133700Y-79286200D01*
X170114015Y-79353239D01*
X170061211Y-79398994D01*
X170009702Y-79410200D01*
X169954099Y-79410200D01*
X169954080Y-79410201D01*
X169851303Y-79420700D01*
X169851300Y-79420701D01*
X169684768Y-79475885D01*
X169684763Y-79475887D01*
X169535442Y-79567989D01*
X169411389Y-79692042D01*
X169319287Y-79841363D01*
X169319285Y-79841368D01*
X169305524Y-79882896D01*
X169264101Y-80007903D01*
X169264101Y-80007904D01*
X169264100Y-80007904D01*
X169253600Y-80110683D01*
X169253600Y-81510701D01*
X169253601Y-81510718D01*
X169264100Y-81613496D01*
X169264101Y-81613499D01*
X169296344Y-81710801D01*
X169319286Y-81780034D01*
X169411388Y-81929356D01*
X169535444Y-82053412D01*
X169684766Y-82145514D01*
X169851303Y-82200699D01*
X169954091Y-82211200D01*
X170279600Y-82211199D01*
X170346639Y-82230883D01*
X170392394Y-82283687D01*
X170403600Y-82335199D01*
X170403600Y-82804000D01*
X170383915Y-82871039D01*
X170331111Y-82916794D01*
X170279600Y-82928000D01*
X169949099Y-82928000D01*
X169949080Y-82928001D01*
X169846303Y-82938500D01*
X169846300Y-82938501D01*
X169679768Y-82993685D01*
X169679763Y-82993687D01*
X169530442Y-83085789D01*
X169406389Y-83209842D01*
X169314287Y-83359163D01*
X169314286Y-83359166D01*
X169260268Y-83522183D01*
X169259101Y-83525704D01*
X169259100Y-83525705D01*
X169249814Y-83616603D01*
X169223417Y-83681295D01*
X169166236Y-83721446D01*
X169126456Y-83728000D01*
X165620192Y-83728000D01*
X165553153Y-83708315D01*
X165507398Y-83655511D01*
X165497942Y-83589751D01*
X165497713Y-83589738D01*
X165497778Y-83588607D01*
X165497454Y-83586353D01*
X165498153Y-83582094D01*
X165498159Y-83581990D01*
X165494121Y-83522183D01*
X165494120Y-83522178D01*
X165164928Y-81655243D01*
X165164927Y-81655240D01*
X165164926Y-81655234D01*
X165148264Y-81597642D01*
X165097155Y-81510718D01*
X165075319Y-81473579D01*
X165075318Y-81473578D01*
X165075317Y-81473576D01*
X164970370Y-81375088D01*
X164970368Y-81375087D01*
X164970367Y-81375086D01*
X164970366Y-81375085D01*
X164841930Y-81310156D01*
X164700391Y-81284040D01*
X164640583Y-81288078D01*
X164640578Y-81288079D01*
X162773643Y-81617271D01*
X162773637Y-81617273D01*
X162716041Y-81633936D01*
X162716038Y-81633937D01*
X162591979Y-81706880D01*
X162591976Y-81706882D01*
X162591976Y-81706883D01*
X162558998Y-81742024D01*
X162493486Y-81811832D01*
X162493485Y-81811833D01*
X162428555Y-81940273D01*
X162413264Y-82023144D01*
X162381742Y-82085499D01*
X162321512Y-82120913D01*
X162251697Y-82118142D01*
X162218439Y-82100963D01*
X162182912Y-82075152D01*
X161986494Y-81975070D01*
X161986491Y-81975069D01*
X161776840Y-81906951D01*
X161587212Y-81876917D01*
X161559110Y-81872466D01*
X161338666Y-81872466D01*
X161310564Y-81876917D01*
X161120935Y-81906951D01*
X160911284Y-81975069D01*
X160911281Y-81975070D01*
X160714862Y-82075153D01*
X160536529Y-82204718D01*
X160536524Y-82204722D01*
X160380644Y-82360602D01*
X160380640Y-82360607D01*
X160251075Y-82538940D01*
X160150992Y-82735359D01*
X160150991Y-82735362D01*
X160082873Y-82945013D01*
X160059624Y-83091800D01*
X160048388Y-83162744D01*
X160048388Y-83383188D01*
X160060497Y-83459641D01*
X160082873Y-83600918D01*
X160105710Y-83671204D01*
X160106144Y-83686415D01*
X160111463Y-83700675D01*
X160107121Y-83720631D01*
X160107705Y-83741046D01*
X160099617Y-83755131D01*
X160096612Y-83768948D01*
X160075460Y-83797203D01*
X159913482Y-83959182D01*
X159852162Y-83992666D01*
X159825803Y-83995500D01*
X157081436Y-83995500D01*
X157014397Y-83975815D01*
X156970952Y-83927796D01*
X156937414Y-83861976D01*
X156807847Y-83683641D01*
X156807843Y-83683636D01*
X156651963Y-83527756D01*
X156651958Y-83527752D01*
X156473625Y-83398187D01*
X156473624Y-83398186D01*
X156473622Y-83398185D01*
X156356391Y-83338452D01*
X156277206Y-83298104D01*
X156277203Y-83298103D01*
X156067552Y-83229985D01*
X155940386Y-83209844D01*
X155849822Y-83195500D01*
X155629378Y-83195500D01*
X155556801Y-83206995D01*
X155411647Y-83229985D01*
X155201996Y-83298103D01*
X155201993Y-83298104D01*
X155005574Y-83398187D01*
X154827241Y-83527752D01*
X154827236Y-83527756D01*
X154777063Y-83577929D01*
X154715740Y-83611413D01*
X154646048Y-83606428D01*
X154590115Y-83564557D01*
X154573201Y-83533580D01*
X154543397Y-83453671D01*
X154543393Y-83453664D01*
X154457147Y-83338455D01*
X154457144Y-83338452D01*
X154341935Y-83252206D01*
X154341928Y-83252202D01*
X154207082Y-83201908D01*
X154207083Y-83201908D01*
X154147483Y-83195501D01*
X154147481Y-83195500D01*
X154147473Y-83195500D01*
X154147464Y-83195500D01*
X152251729Y-83195500D01*
X152251723Y-83195501D01*
X152192116Y-83201908D01*
X152057271Y-83252202D01*
X152057264Y-83252206D01*
X151942055Y-83338452D01*
X151942052Y-83338455D01*
X151855806Y-83453664D01*
X151855802Y-83453671D01*
X151805508Y-83588517D01*
X151799101Y-83648116D01*
X151799100Y-83648135D01*
X151799100Y-85543870D01*
X151799101Y-85543876D01*
X151805508Y-85603483D01*
X151855802Y-85738328D01*
X151855806Y-85738335D01*
X151942052Y-85853544D01*
X151942055Y-85853547D01*
X152057264Y-85939793D01*
X152057271Y-85939797D01*
X152192117Y-85990091D01*
X152192116Y-85990091D01*
X152199044Y-85990835D01*
X152251727Y-85996500D01*
X154147472Y-85996499D01*
X154207083Y-85990091D01*
X154341931Y-85939796D01*
X154457146Y-85853546D01*
X154543396Y-85738331D01*
X154571029Y-85664243D01*
X154573201Y-85658420D01*
X154615071Y-85602486D01*
X154680536Y-85578068D01*
X154748809Y-85592919D01*
X154777064Y-85614071D01*
X154827236Y-85664243D01*
X154827241Y-85664247D01*
X154929203Y-85738326D01*
X155005578Y-85793815D01*
X155133975Y-85859237D01*
X155201993Y-85893895D01*
X155201996Y-85893896D01*
X155228536Y-85902519D01*
X155411649Y-85962015D01*
X155629378Y-85996500D01*
X155629379Y-85996500D01*
X155849821Y-85996500D01*
X155849822Y-85996500D01*
X156067551Y-85962015D01*
X156277206Y-85893895D01*
X156473622Y-85793815D01*
X156651965Y-85664242D01*
X156807842Y-85508365D01*
X156937415Y-85330022D01*
X156970952Y-85264204D01*
X157018926Y-85213409D01*
X157081436Y-85196500D01*
X160039231Y-85196500D01*
X160039247Y-85196501D01*
X160046843Y-85196501D01*
X160204954Y-85196501D01*
X160204957Y-85196501D01*
X160357685Y-85155577D01*
X160445146Y-85105081D01*
X160494616Y-85076520D01*
X160606420Y-84964716D01*
X160606420Y-84964714D01*
X160616624Y-84954511D01*
X160616628Y-84954506D01*
X160924720Y-84646413D01*
X160986041Y-84612930D01*
X161050716Y-84616164D01*
X161084639Y-84627187D01*
X161120936Y-84638981D01*
X161222670Y-84655094D01*
X161338666Y-84673466D01*
X161338667Y-84673466D01*
X161559109Y-84673466D01*
X161559110Y-84673466D01*
X161776839Y-84638981D01*
X161842331Y-84617701D01*
X161847076Y-84616160D01*
X161862288Y-84615725D01*
X161876548Y-84610407D01*
X161896503Y-84614748D01*
X161916917Y-84614165D01*
X161931003Y-84622253D01*
X161944821Y-84625259D01*
X161973075Y-84646410D01*
X162019539Y-84692874D01*
X162019549Y-84692885D01*
X162023879Y-84697215D01*
X162023880Y-84697216D01*
X162135684Y-84809020D01*
X162135686Y-84809021D01*
X162135690Y-84809024D01*
X162203664Y-84848268D01*
X162272616Y-84888077D01*
X162375867Y-84915743D01*
X162375866Y-84915743D01*
X162386321Y-84918544D01*
X162425342Y-84929000D01*
X162425343Y-84929000D01*
X169126457Y-84929000D01*
X169193496Y-84948685D01*
X169239251Y-85001489D01*
X169249815Y-85040398D01*
X169259101Y-85131297D01*
X169259101Y-85131299D01*
X169314285Y-85297831D01*
X169314287Y-85297836D01*
X169334140Y-85330023D01*
X169406388Y-85447156D01*
X169530444Y-85571212D01*
X169679766Y-85663314D01*
X169846303Y-85718499D01*
X169949091Y-85729000D01*
X172049108Y-85728999D01*
X172151897Y-85718499D01*
X172318434Y-85663314D01*
X172467756Y-85571212D01*
X172591812Y-85447156D01*
X172683914Y-85297834D01*
X172739099Y-85131297D01*
X172749600Y-85028509D01*
X172749599Y-83628492D01*
X172749414Y-83626685D01*
X172739099Y-83525703D01*
X172739098Y-83525700D01*
X172729790Y-83497610D01*
X172683914Y-83359166D01*
X172591812Y-83209844D01*
X172467756Y-83085788D01*
X172374988Y-83028569D01*
X172318436Y-82993687D01*
X172318431Y-82993685D01*
X172316460Y-82993032D01*
X172151897Y-82938501D01*
X172151895Y-82938500D01*
X172049116Y-82928000D01*
X172049109Y-82928000D01*
X171728600Y-82928000D01*
X171661561Y-82908315D01*
X171615806Y-82855511D01*
X171604600Y-82804000D01*
X171604600Y-82335199D01*
X171624285Y-82268160D01*
X171677089Y-82222405D01*
X171728600Y-82211199D01*
X172054102Y-82211199D01*
X172054108Y-82211199D01*
X172156897Y-82200699D01*
X172323434Y-82145514D01*
X172472756Y-82053412D01*
X172596812Y-81929356D01*
X172688914Y-81780034D01*
X172744099Y-81613497D01*
X172754600Y-81510709D01*
X172754599Y-80110692D01*
X172744099Y-80007903D01*
X172688914Y-79841366D01*
X172596812Y-79692044D01*
X172509349Y-79604581D01*
X172475864Y-79543258D01*
X172480848Y-79473566D01*
X172522720Y-79417633D01*
X172588184Y-79393216D01*
X172597030Y-79392900D01*
X173411170Y-79392900D01*
X173478209Y-79412585D01*
X173523964Y-79465389D01*
X173533908Y-79534547D01*
X173504883Y-79598103D01*
X173498851Y-79604581D01*
X173411389Y-79692042D01*
X173319287Y-79841363D01*
X173319285Y-79841368D01*
X173305524Y-79882896D01*
X173264101Y-80007903D01*
X173264101Y-80007904D01*
X173264100Y-80007904D01*
X173253600Y-80110683D01*
X173253600Y-81510701D01*
X173253601Y-81510718D01*
X173264100Y-81613496D01*
X173264101Y-81613499D01*
X173296344Y-81710801D01*
X173319286Y-81780034D01*
X173411388Y-81929356D01*
X173535444Y-82053412D01*
X173684766Y-82145514D01*
X173851303Y-82200699D01*
X173954091Y-82211200D01*
X175504002Y-82211199D01*
X175571041Y-82230884D01*
X175591683Y-82247518D01*
X175938181Y-82594016D01*
X175952884Y-82620943D01*
X175969477Y-82646762D01*
X175970368Y-82652962D01*
X175971666Y-82655339D01*
X175974500Y-82681697D01*
X175974500Y-82804000D01*
X175954815Y-82871039D01*
X175902011Y-82916794D01*
X175850500Y-82928000D01*
X173949098Y-82928000D01*
X173949081Y-82928001D01*
X173846303Y-82938500D01*
X173846300Y-82938501D01*
X173679768Y-82993685D01*
X173679763Y-82993687D01*
X173530442Y-83085789D01*
X173406389Y-83209842D01*
X173314287Y-83359163D01*
X173314286Y-83359166D01*
X173259101Y-83525703D01*
X173259101Y-83525704D01*
X173259100Y-83525704D01*
X173248600Y-83628483D01*
X173248600Y-85028501D01*
X173248601Y-85028518D01*
X173259101Y-85131304D01*
X173260495Y-85137816D01*
X173255273Y-85207490D01*
X173226921Y-85251442D01*
X171798476Y-86679887D01*
X171737153Y-86713372D01*
X171676204Y-86711283D01*
X171655278Y-86705204D01*
X171655271Y-86705202D01*
X171655269Y-86705202D01*
X171655267Y-86705201D01*
X171655263Y-86705201D01*
X171618401Y-86702300D01*
X171618394Y-86702300D01*
X169837006Y-86702300D01*
X169836998Y-86702300D01*
X169800132Y-86705201D01*
X169800126Y-86705202D01*
X169642306Y-86751054D01*
X169642303Y-86751055D01*
X169500837Y-86834717D01*
X169500829Y-86834723D01*
X169469574Y-86865980D01*
X169408252Y-86899466D01*
X169381892Y-86902300D01*
X168793842Y-86902300D01*
X168641113Y-86943223D01*
X168605683Y-86963680D01*
X168605682Y-86963680D01*
X168504187Y-87022277D01*
X168504182Y-87022281D01*
X153385983Y-102140481D01*
X153359055Y-102155184D01*
X153333237Y-102171777D01*
X153327036Y-102172668D01*
X153324660Y-102173966D01*
X153298302Y-102176800D01*
X153243539Y-102176800D01*
X153176500Y-102157115D01*
X153130745Y-102104311D01*
X153120801Y-102035153D01*
X153128978Y-102005347D01*
X153163337Y-101922397D01*
X153194100Y-101767742D01*
X153194100Y-101610058D01*
X153194100Y-101610055D01*
X153194099Y-101610053D01*
X153163338Y-101455410D01*
X153163338Y-101455408D01*
X153163337Y-101455403D01*
X153121532Y-101354476D01*
X153102997Y-101309727D01*
X153102990Y-101309714D01*
X153015389Y-101178611D01*
X153015386Y-101178607D01*
X152903892Y-101067113D01*
X152903888Y-101067110D01*
X152772785Y-100979509D01*
X152772772Y-100979502D01*
X152627101Y-100919164D01*
X152627089Y-100919161D01*
X152472445Y-100888400D01*
X152472442Y-100888400D01*
X152314758Y-100888400D01*
X152314755Y-100888400D01*
X152160110Y-100919161D01*
X152160098Y-100919164D01*
X152014427Y-100979502D01*
X152014414Y-100979509D01*
X151883311Y-101067110D01*
X151883307Y-101067113D01*
X151771813Y-101178607D01*
X151771810Y-101178611D01*
X151684209Y-101309714D01*
X151684202Y-101309727D01*
X151623864Y-101455398D01*
X151623861Y-101455408D01*
X151592962Y-101610748D01*
X151560577Y-101672659D01*
X151559026Y-101674237D01*
X149728484Y-103504781D01*
X149667161Y-103538266D01*
X149640803Y-103541100D01*
X135810943Y-103541100D01*
X135658216Y-103582023D01*
X135658209Y-103582026D01*
X135521290Y-103661075D01*
X135521282Y-103661081D01*
X135409481Y-103772882D01*
X135409475Y-103772890D01*
X135330426Y-103909809D01*
X135330423Y-103909814D01*
X135307073Y-103996959D01*
X135270707Y-104056620D01*
X135207860Y-104087148D01*
X135138485Y-104078853D01*
X135118408Y-104067968D01*
X135105754Y-104059512D01*
X134919127Y-103982209D01*
X134919119Y-103982207D01*
X134721007Y-103942800D01*
X134721003Y-103942800D01*
X134518997Y-103942800D01*
X134518992Y-103942800D01*
X134320880Y-103982207D01*
X134320872Y-103982209D01*
X134134247Y-104059512D01*
X134134237Y-104059517D01*
X133966281Y-104171741D01*
X133823441Y-104314581D01*
X133711217Y-104482537D01*
X133711212Y-104482547D01*
X133633909Y-104669172D01*
X133633907Y-104669180D01*
X133594500Y-104867292D01*
X133594500Y-105519307D01*
X133633907Y-105717419D01*
X133633909Y-105717427D01*
X133711212Y-105904052D01*
X133711217Y-105904062D01*
X133823441Y-106072018D01*
X133966276Y-106214853D01*
X133970986Y-106218718D01*
X133969838Y-106220116D01*
X134009190Y-106267194D01*
X134015147Y-106284132D01*
X134019499Y-106300123D01*
X134019499Y-106324057D01*
X134060423Y-106476785D01*
X134065917Y-106486300D01*
X134073957Y-106500227D01*
X134073958Y-106500228D01*
X134139477Y-106613712D01*
X134139481Y-106613717D01*
X134258349Y-106732585D01*
X134258355Y-106732590D01*
X144161839Y-116636074D01*
X144161849Y-116636085D01*
X144166179Y-116640415D01*
X144166180Y-116640416D01*
X144277984Y-116752220D01*
X144364795Y-116802339D01*
X144364797Y-116802341D01*
X144402851Y-116824311D01*
X144414915Y-116831277D01*
X144567643Y-116872200D01*
X149659811Y-116872200D01*
X149726850Y-116891885D01*
X149772605Y-116944689D01*
X149783169Y-116983598D01*
X149789901Y-117049497D01*
X149789901Y-117049499D01*
X149845085Y-117216031D01*
X149845087Y-117216036D01*
X149868770Y-117254432D01*
X149937188Y-117365356D01*
X150061244Y-117489412D01*
X150210566Y-117581514D01*
X150377103Y-117636699D01*
X150479891Y-117647200D01*
X151279908Y-117647199D01*
X151279916Y-117647198D01*
X151279919Y-117647198D01*
X151336202Y-117641448D01*
X151382697Y-117636699D01*
X151549234Y-117581514D01*
X151698556Y-117489412D01*
X151822612Y-117365356D01*
X151862210Y-117301156D01*
X151914158Y-117254432D01*
X151983120Y-117243209D01*
X152047203Y-117271052D01*
X152055430Y-117278572D01*
X152162972Y-117386114D01*
X152303112Y-117487932D01*
X152457455Y-117566573D01*
X152622199Y-117620102D01*
X152793289Y-117647200D01*
X152793290Y-117647200D01*
X152966510Y-117647200D01*
X152966511Y-117647200D01*
X153137601Y-117620102D01*
X153302345Y-117566573D01*
X153456688Y-117487932D01*
X153596828Y-117386114D01*
X153719314Y-117263628D01*
X153779582Y-117180675D01*
X153834912Y-117138011D01*
X153904526Y-117132032D01*
X153966321Y-117164638D01*
X153980215Y-117180673D01*
X154040486Y-117263628D01*
X154162972Y-117386114D01*
X154303112Y-117487932D01*
X154457455Y-117566573D01*
X154622199Y-117620102D01*
X154793289Y-117647200D01*
X154793290Y-117647200D01*
X154966510Y-117647200D01*
X154966511Y-117647200D01*
X155137601Y-117620102D01*
X155302345Y-117566573D01*
X155456688Y-117487932D01*
X155596828Y-117386114D01*
X155719314Y-117263628D01*
X155779891Y-117180250D01*
X155835221Y-117137585D01*
X155904834Y-117131606D01*
X155966629Y-117164212D01*
X155980528Y-117180251D01*
X156040867Y-117263302D01*
X156163297Y-117385732D01*
X156303375Y-117487504D01*
X156457644Y-117566108D01*
X156622315Y-117619614D01*
X156622314Y-117619614D01*
X156629899Y-117620815D01*
X156629900Y-117620814D01*
X156629900Y-116552030D01*
X156649645Y-116571775D01*
X156735155Y-116621144D01*
X156830530Y-116646700D01*
X156929270Y-116646700D01*
X157024645Y-116621144D01*
X157110155Y-116571775D01*
X157129900Y-116552030D01*
X157129900Y-117620815D01*
X157137484Y-117619614D01*
X157302155Y-117566108D01*
X157456424Y-117487504D01*
X157596502Y-117385732D01*
X157718932Y-117263302D01*
X157820704Y-117123224D01*
X157899308Y-116968957D01*
X157952814Y-116804284D01*
X157979900Y-116633271D01*
X157979900Y-116521700D01*
X157160230Y-116521700D01*
X157179975Y-116501955D01*
X157229344Y-116416445D01*
X157254900Y-116321070D01*
X157254900Y-116222330D01*
X157229344Y-116126955D01*
X157179975Y-116041445D01*
X157160230Y-116021700D01*
X157979900Y-116021700D01*
X157979900Y-115910128D01*
X157952814Y-115739115D01*
X157899308Y-115574442D01*
X157820704Y-115420175D01*
X157718932Y-115280097D01*
X157596502Y-115157667D01*
X157456424Y-115055895D01*
X157302157Y-114977291D01*
X157137489Y-114923787D01*
X157137481Y-114923785D01*
X157129900Y-114922584D01*
X157129900Y-115991370D01*
X157110155Y-115971625D01*
X157024645Y-115922256D01*
X156929270Y-115896700D01*
X156830530Y-115896700D01*
X156735155Y-115922256D01*
X156649645Y-115971625D01*
X156629900Y-115991370D01*
X156629900Y-114922584D01*
X156629899Y-114922584D01*
X156622318Y-114923785D01*
X156622310Y-114923787D01*
X156457642Y-114977291D01*
X156303375Y-115055895D01*
X156163297Y-115157667D01*
X156040865Y-115280099D01*
X156040861Y-115280104D01*
X155980527Y-115363148D01*
X155925197Y-115405814D01*
X155855584Y-115411793D01*
X155793789Y-115379188D01*
X155779891Y-115363149D01*
X155779890Y-115363148D01*
X155719314Y-115279772D01*
X155596828Y-115157286D01*
X155456688Y-115055468D01*
X155302345Y-114976827D01*
X155137601Y-114923298D01*
X155137599Y-114923297D01*
X155137598Y-114923297D01*
X155006171Y-114902481D01*
X154966511Y-114896200D01*
X154793289Y-114896200D01*
X154753628Y-114902481D01*
X154622202Y-114923297D01*
X154457452Y-114976828D01*
X154303111Y-115055468D01*
X154223156Y-115113559D01*
X154162972Y-115157286D01*
X154162970Y-115157288D01*
X154162969Y-115157288D01*
X154040488Y-115279769D01*
X154040481Y-115279778D01*
X153980217Y-115362723D01*
X153924887Y-115405389D01*
X153855274Y-115411367D01*
X153793479Y-115378761D01*
X153779583Y-115362723D01*
X153719555Y-115280104D01*
X153719314Y-115279772D01*
X153596828Y-115157286D01*
X153456688Y-115055468D01*
X153302345Y-114976827D01*
X153137601Y-114923298D01*
X153137599Y-114923297D01*
X153137598Y-114923297D01*
X153006171Y-114902481D01*
X152966511Y-114896200D01*
X152793289Y-114896200D01*
X152753628Y-114902481D01*
X152622202Y-114923297D01*
X152457452Y-114976828D01*
X152303111Y-115055468D01*
X152162973Y-115157285D01*
X152055430Y-115264828D01*
X151994107Y-115298312D01*
X151924415Y-115293328D01*
X151868482Y-115251456D01*
X151862210Y-115242243D01*
X151858317Y-115235931D01*
X151822612Y-115178044D01*
X151698556Y-115053988D01*
X151573459Y-114976828D01*
X151549236Y-114961887D01*
X151549231Y-114961885D01*
X151547762Y-114961398D01*
X151382697Y-114906701D01*
X151382695Y-114906700D01*
X151279910Y-114896200D01*
X150479898Y-114896200D01*
X150479880Y-114896201D01*
X150377103Y-114906700D01*
X150377100Y-114906701D01*
X150210568Y-114961885D01*
X150210563Y-114961887D01*
X150061242Y-115053989D01*
X149937189Y-115178042D01*
X149845087Y-115327363D01*
X149845085Y-115327368D01*
X149789901Y-115493904D01*
X149789900Y-115493905D01*
X149783168Y-115559803D01*
X149756771Y-115624495D01*
X149699590Y-115664646D01*
X149659810Y-115671200D01*
X144946797Y-115671200D01*
X144879758Y-115651515D01*
X144859116Y-115634881D01*
X138309421Y-109085186D01*
X165239500Y-109085186D01*
X165239500Y-109354813D01*
X165269686Y-109622719D01*
X165269688Y-109622731D01*
X165329684Y-109885594D01*
X165329687Y-109885602D01*
X165418734Y-110140082D01*
X165535714Y-110382994D01*
X165535716Y-110382997D01*
X165679162Y-110611289D01*
X165847266Y-110822085D01*
X166037915Y-111012734D01*
X166248711Y-111180838D01*
X166477003Y-111324284D01*
X166719921Y-111441267D01*
X166911049Y-111508145D01*
X166974397Y-111530312D01*
X166974405Y-111530315D01*
X166974408Y-111530315D01*
X166974409Y-111530316D01*
X167237268Y-111590312D01*
X167505187Y-111620499D01*
X167505188Y-111620500D01*
X167505191Y-111620500D01*
X167774812Y-111620500D01*
X167774812Y-111620499D01*
X168042732Y-111590312D01*
X168305591Y-111530316D01*
X168560079Y-111441267D01*
X168802997Y-111324284D01*
X169031289Y-111180838D01*
X169242085Y-111012734D01*
X169432734Y-110822085D01*
X169600838Y-110611289D01*
X169744284Y-110382997D01*
X169861267Y-110140079D01*
X169950316Y-109885591D01*
X170010312Y-109622732D01*
X170040500Y-109354809D01*
X170040500Y-109085191D01*
X170010312Y-108817268D01*
X169950316Y-108554409D01*
X169861267Y-108299921D01*
X169744284Y-108057003D01*
X169600838Y-107828711D01*
X169432734Y-107617915D01*
X169242085Y-107427266D01*
X169031289Y-107259162D01*
X168802997Y-107115716D01*
X168802994Y-107115714D01*
X168560082Y-106998734D01*
X168305602Y-106909687D01*
X168305594Y-106909684D01*
X168108446Y-106864687D01*
X168042732Y-106849688D01*
X168042728Y-106849687D01*
X168042719Y-106849686D01*
X167981578Y-106842797D01*
X167774813Y-106819500D01*
X167774809Y-106819500D01*
X167505191Y-106819500D01*
X167505186Y-106819500D01*
X167237280Y-106849686D01*
X167237268Y-106849688D01*
X166974405Y-106909684D01*
X166974397Y-106909687D01*
X166719917Y-106998734D01*
X166477005Y-107115714D01*
X166248712Y-107259161D01*
X166037915Y-107427265D01*
X165847265Y-107617915D01*
X165679161Y-107828712D01*
X165535714Y-108057005D01*
X165418734Y-108299917D01*
X165329687Y-108554397D01*
X165329684Y-108554405D01*
X165269688Y-108817268D01*
X165269686Y-108817280D01*
X165239500Y-109085186D01*
X138309421Y-109085186D01*
X135948684Y-106724449D01*
X173473592Y-106724449D01*
X173473592Y-106968502D01*
X173503875Y-107159703D01*
X173511771Y-107209552D01*
X173587188Y-107441661D01*
X173677620Y-107619145D01*
X173697988Y-107659118D01*
X173841431Y-107856552D01*
X173841435Y-107856557D01*
X174014010Y-108029132D01*
X174014015Y-108029136D01*
X174052374Y-108057005D01*
X174211453Y-108172582D01*
X174428907Y-108283380D01*
X174661016Y-108358797D01*
X174902065Y-108396976D01*
X174902066Y-108396976D01*
X175146118Y-108396976D01*
X175146119Y-108396976D01*
X175387168Y-108358797D01*
X175619277Y-108283380D01*
X175836731Y-108172582D01*
X176034175Y-108029131D01*
X176206747Y-107856559D01*
X176208930Y-107853554D01*
X176264254Y-107810882D01*
X176333867Y-107804895D01*
X176395666Y-107837493D01*
X176427187Y-107888110D01*
X176466728Y-108009806D01*
X176466729Y-108009809D01*
X176549666Y-108172579D01*
X176565023Y-108202719D01*
X176692284Y-108377878D01*
X176845378Y-108530972D01*
X177020537Y-108658233D01*
X177115153Y-108706442D01*
X177213446Y-108756526D01*
X177213449Y-108756527D01*
X177316403Y-108789978D01*
X177419359Y-108823430D01*
X177633202Y-108857300D01*
X177633203Y-108857300D01*
X177849709Y-108857300D01*
X177849710Y-108857300D01*
X178063553Y-108823430D01*
X178269465Y-108756526D01*
X178462375Y-108658233D01*
X178637534Y-108530972D01*
X178790628Y-108377878D01*
X178917889Y-108202719D01*
X179016182Y-108009809D01*
X179083086Y-107803897D01*
X179116956Y-107590054D01*
X179116956Y-107373546D01*
X179083086Y-107159703D01*
X179030785Y-106998734D01*
X179016183Y-106953793D01*
X179016182Y-106953790D01*
X178917888Y-106760880D01*
X178790628Y-106585722D01*
X178637534Y-106432628D01*
X178462375Y-106305367D01*
X178452798Y-106300487D01*
X178269465Y-106207073D01*
X178269462Y-106207072D01*
X178063554Y-106140170D01*
X177956631Y-106123235D01*
X177849710Y-106106300D01*
X177633202Y-106106300D01*
X177561921Y-106117590D01*
X177419357Y-106140170D01*
X177213449Y-106207072D01*
X177213446Y-106207073D01*
X177020536Y-106305367D01*
X176845379Y-106432627D01*
X176742813Y-106535193D01*
X176681490Y-106568677D01*
X176611798Y-106563693D01*
X176555865Y-106521821D01*
X176537201Y-106485829D01*
X176536413Y-106483403D01*
X176536413Y-106483400D01*
X176460996Y-106251291D01*
X176350198Y-106033837D01*
X176319180Y-105991144D01*
X176206752Y-105836399D01*
X176206748Y-105836394D01*
X176034173Y-105663819D01*
X176034168Y-105663815D01*
X175836734Y-105520372D01*
X175836733Y-105520371D01*
X175836731Y-105520370D01*
X175619277Y-105409572D01*
X175387168Y-105334155D01*
X175387166Y-105334154D01*
X175387164Y-105334154D01*
X175218861Y-105307497D01*
X175146119Y-105295976D01*
X174902065Y-105295976D01*
X174846185Y-105304826D01*
X174661019Y-105334154D01*
X174428904Y-105409573D01*
X174211449Y-105520372D01*
X174014015Y-105663815D01*
X174014010Y-105663819D01*
X173841435Y-105836394D01*
X173841431Y-105836399D01*
X173697988Y-106033833D01*
X173587189Y-106251288D01*
X173511770Y-106483403D01*
X173473592Y-106724449D01*
X135948684Y-106724449D01*
X135879716Y-106655481D01*
X135846231Y-106594158D01*
X135851215Y-106524466D01*
X135893087Y-106468533D01*
X135958551Y-106444116D01*
X135967397Y-106443800D01*
X135991004Y-106443800D01*
X135991005Y-106443799D01*
X136189127Y-106404391D01*
X136270338Y-106370751D01*
X136339804Y-106363283D01*
X136384859Y-106382894D01*
X136385128Y-106382403D01*
X136390613Y-106385398D01*
X136392099Y-106386045D01*
X136392911Y-106386653D01*
X136392913Y-106386654D01*
X136527620Y-106436896D01*
X136527627Y-106436898D01*
X136587155Y-106443299D01*
X136587172Y-106443300D01*
X136910000Y-106443300D01*
X136910000Y-105559165D01*
X136910067Y-105555089D01*
X136910400Y-105544938D01*
X136915500Y-105519303D01*
X136915500Y-105479130D01*
X136929745Y-105493375D01*
X137015255Y-105542744D01*
X137110630Y-105568300D01*
X137209370Y-105568300D01*
X137304745Y-105542744D01*
X137390255Y-105493375D01*
X137410000Y-105473630D01*
X137410000Y-106443300D01*
X137732828Y-106443300D01*
X137732844Y-106443299D01*
X137792372Y-106436898D01*
X137792379Y-106436896D01*
X137927086Y-106386654D01*
X137927093Y-106386650D01*
X138042187Y-106300490D01*
X138042190Y-106300487D01*
X138128350Y-106185393D01*
X138128354Y-106185386D01*
X138178596Y-106050679D01*
X138178598Y-106050672D01*
X138184999Y-105991144D01*
X138185000Y-105991127D01*
X138185000Y-105443300D01*
X137440330Y-105443300D01*
X137460075Y-105423555D01*
X137509444Y-105338045D01*
X137535000Y-105242670D01*
X137535000Y-105143930D01*
X137509444Y-105048555D01*
X137460075Y-104963045D01*
X137440330Y-104943300D01*
X138185000Y-104943300D01*
X138185000Y-104866100D01*
X138204685Y-104799061D01*
X138257489Y-104753306D01*
X138309000Y-104742100D01*
X149854231Y-104742100D01*
X149854247Y-104742101D01*
X149861843Y-104742101D01*
X150019954Y-104742101D01*
X150019957Y-104742101D01*
X150172685Y-104701177D01*
X150268330Y-104645956D01*
X150309616Y-104622120D01*
X150421420Y-104510316D01*
X150421420Y-104510314D01*
X150431624Y-104500111D01*
X150431627Y-104500106D01*
X151599820Y-103331913D01*
X151661142Y-103298430D01*
X151730834Y-103303414D01*
X151786767Y-103345286D01*
X151811184Y-103410750D01*
X151811500Y-103419596D01*
X151811500Y-104227301D01*
X151811501Y-104227319D01*
X151822000Y-104330096D01*
X151822001Y-104330099D01*
X151877185Y-104496631D01*
X151877187Y-104496636D01*
X151885623Y-104510313D01*
X151969288Y-104645956D01*
X152093344Y-104770012D01*
X152242666Y-104862114D01*
X152409203Y-104917299D01*
X152511991Y-104927800D01*
X153312008Y-104927799D01*
X153312016Y-104927798D01*
X153312019Y-104927798D01*
X153368302Y-104922048D01*
X153414797Y-104917299D01*
X153581334Y-104862114D01*
X153730656Y-104770012D01*
X153854712Y-104645956D01*
X153894581Y-104581316D01*
X153946525Y-104534594D01*
X154015488Y-104523371D01*
X154079570Y-104551214D01*
X154087799Y-104558734D01*
X154195397Y-104666332D01*
X154335475Y-104768104D01*
X154489744Y-104846708D01*
X154654415Y-104900214D01*
X154654414Y-104900214D01*
X154661999Y-104901415D01*
X154662000Y-104901414D01*
X154662000Y-103832630D01*
X154681745Y-103852375D01*
X154767255Y-103901744D01*
X154862630Y-103927300D01*
X154961370Y-103927300D01*
X155056745Y-103901744D01*
X155142255Y-103852375D01*
X155162000Y-103832630D01*
X155162000Y-104901415D01*
X155169584Y-104900214D01*
X155334255Y-104846708D01*
X155488524Y-104768104D01*
X155628602Y-104666332D01*
X155751032Y-104543902D01*
X155852804Y-104403824D01*
X155892076Y-104326749D01*
X155892077Y-104326747D01*
X155931407Y-104249559D01*
X155984914Y-104084884D01*
X156012000Y-103913871D01*
X156012000Y-103802300D01*
X155192330Y-103802300D01*
X155212075Y-103782555D01*
X155261444Y-103697045D01*
X155287000Y-103601670D01*
X155287000Y-103502930D01*
X155261444Y-103407555D01*
X155212075Y-103322045D01*
X155192330Y-103302300D01*
X156012000Y-103302300D01*
X156012000Y-103190728D01*
X155984914Y-103019715D01*
X155931408Y-102855042D01*
X155852804Y-102700775D01*
X155751032Y-102560697D01*
X155628602Y-102438267D01*
X155488524Y-102336495D01*
X155334256Y-102257891D01*
X155249541Y-102230365D01*
X155191866Y-102190927D01*
X155164668Y-102126568D01*
X155176583Y-102057721D01*
X155200173Y-102024760D01*
X155870457Y-101354476D01*
X177979534Y-101354476D01*
X177979534Y-101598530D01*
X177981360Y-101610058D01*
X178006335Y-101767746D01*
X178017713Y-101839579D01*
X178093130Y-102071688D01*
X178148465Y-102180290D01*
X178203930Y-102289145D01*
X178347373Y-102486579D01*
X178347377Y-102486584D01*
X178519952Y-102659159D01*
X178519957Y-102659163D01*
X178659211Y-102760336D01*
X178717395Y-102802609D01*
X178934849Y-102913407D01*
X179166958Y-102988824D01*
X179408007Y-103027003D01*
X179408008Y-103027003D01*
X179423105Y-103027003D01*
X179490144Y-103046688D01*
X179535899Y-103099492D01*
X179545843Y-103168650D01*
X179523423Y-103223889D01*
X179457994Y-103313942D01*
X179359736Y-103506782D01*
X179359735Y-103506785D01*
X179292857Y-103712618D01*
X179262604Y-103903625D01*
X180184613Y-103822960D01*
X180172734Y-103843537D01*
X180139000Y-103969432D01*
X180139000Y-104099768D01*
X180172734Y-104225663D01*
X180227828Y-104321088D01*
X179307487Y-104401609D01*
X179359738Y-104562421D01*
X179457994Y-104755257D01*
X179585211Y-104930354D01*
X179585211Y-104930355D01*
X179738244Y-105083388D01*
X179913342Y-105210605D01*
X180106182Y-105308863D01*
X180106185Y-105308864D01*
X180312018Y-105375742D01*
X180503026Y-105405995D01*
X180422360Y-104483986D01*
X180442937Y-104495866D01*
X180568832Y-104529600D01*
X180699168Y-104529600D01*
X180825063Y-104495866D01*
X180920489Y-104440771D01*
X181001009Y-105361111D01*
X181001009Y-105361112D01*
X181161811Y-105308865D01*
X181161817Y-105308863D01*
X181354657Y-105210605D01*
X181529754Y-105083388D01*
X181529755Y-105083388D01*
X181682788Y-104930355D01*
X181682788Y-104930354D01*
X181810005Y-104755257D01*
X181908263Y-104562417D01*
X181908264Y-104562414D01*
X181975142Y-104356581D01*
X182005395Y-104165572D01*
X181083387Y-104246236D01*
X181095266Y-104225663D01*
X181129000Y-104099768D01*
X181129000Y-103969432D01*
X181095266Y-103843537D01*
X181040170Y-103748109D01*
X181960511Y-103667589D01*
X181908264Y-103506785D01*
X181908263Y-103506782D01*
X181810005Y-103313942D01*
X181682788Y-103138845D01*
X181682788Y-103138844D01*
X181529755Y-102985811D01*
X181354657Y-102858594D01*
X181161817Y-102760336D01*
X181161814Y-102760335D01*
X180955980Y-102693456D01*
X180802865Y-102669205D01*
X180739730Y-102639275D01*
X180702799Y-102579964D01*
X180703797Y-102510101D01*
X180721945Y-102473847D01*
X180821736Y-102336495D01*
X180856140Y-102289142D01*
X180966938Y-102071688D01*
X181042355Y-101839579D01*
X181080534Y-101598530D01*
X181080534Y-101354476D01*
X181042355Y-101113427D01*
X180966938Y-100881318D01*
X180856140Y-100663864D01*
X180837813Y-100638639D01*
X180712694Y-100466426D01*
X180712690Y-100466421D01*
X180540115Y-100293846D01*
X180540110Y-100293842D01*
X180342676Y-100150399D01*
X180342675Y-100150398D01*
X180342673Y-100150397D01*
X180125219Y-100039599D01*
X179893110Y-99964182D01*
X179893108Y-99964181D01*
X179893106Y-99964181D01*
X179724803Y-99937524D01*
X179652061Y-99926003D01*
X179408007Y-99926003D01*
X179352127Y-99934853D01*
X179166961Y-99964181D01*
X178934846Y-100039600D01*
X178717391Y-100150399D01*
X178519957Y-100293842D01*
X178519952Y-100293846D01*
X178347377Y-100466421D01*
X178347373Y-100466426D01*
X178203930Y-100663860D01*
X178093131Y-100881315D01*
X178017712Y-101113430D01*
X177994193Y-101261923D01*
X177979534Y-101354476D01*
X155870457Y-101354476D01*
X166287421Y-90937512D01*
X166348742Y-90904029D01*
X166418434Y-90909013D01*
X166474367Y-90950885D01*
X166498784Y-91016349D01*
X166499100Y-91025194D01*
X166499100Y-91258369D01*
X166499101Y-91258391D01*
X166501935Y-91294405D01*
X166546729Y-91448588D01*
X166546731Y-91448593D01*
X166628463Y-91586795D01*
X166628469Y-91586803D01*
X166741996Y-91700330D01*
X166742000Y-91700333D01*
X166742002Y-91700335D01*
X166880207Y-91782069D01*
X166920868Y-91793882D01*
X167034391Y-91826864D01*
X167034394Y-91826864D01*
X167034396Y-91826865D01*
X167070419Y-91829700D01*
X167189502Y-91829699D01*
X167256541Y-91849383D01*
X167277183Y-91866018D01*
X168641639Y-93230474D01*
X168641649Y-93230485D01*
X168645979Y-93234815D01*
X168645980Y-93234816D01*
X168757784Y-93346620D01*
X168757786Y-93346621D01*
X168757790Y-93346624D01*
X168893483Y-93424965D01*
X168894716Y-93425677D01*
X168976064Y-93447474D01*
X169047442Y-93466600D01*
X169047443Y-93466600D01*
X169585543Y-93466600D01*
X169652582Y-93486285D01*
X169657899Y-93490024D01*
X169658957Y-93490634D01*
X169658959Y-93490636D01*
X169658960Y-93490636D01*
X169658963Y-93490638D01*
X169731998Y-93520890D01*
X169805038Y-93551144D01*
X169922439Y-93566600D01*
X170261160Y-93566599D01*
X170261163Y-93566599D01*
X170378555Y-93551145D01*
X170378555Y-93551144D01*
X170378562Y-93551144D01*
X170378567Y-93551141D01*
X170379700Y-93550839D01*
X170380885Y-93550838D01*
X170386621Y-93550084D01*
X170386720Y-93550838D01*
X170436880Y-93550837D01*
X170436980Y-93550083D01*
X170442707Y-93550837D01*
X170443891Y-93550837D01*
X170445034Y-93551143D01*
X170445036Y-93551143D01*
X170445038Y-93551144D01*
X170562439Y-93566600D01*
X170901160Y-93566599D01*
X170901163Y-93566599D01*
X171018553Y-93551146D01*
X171018557Y-93551144D01*
X171018562Y-93551144D01*
X171164641Y-93490636D01*
X171290082Y-93394382D01*
X171386336Y-93268941D01*
X171446844Y-93122862D01*
X171462300Y-93005461D01*
X171462299Y-92726740D01*
X171462299Y-92726736D01*
X171446846Y-92609346D01*
X171446844Y-92609341D01*
X171446844Y-92609338D01*
X171386336Y-92463259D01*
X171386335Y-92463258D01*
X171386335Y-92463257D01*
X171357924Y-92426231D01*
X171349681Y-92404910D01*
X171337323Y-92385680D01*
X171334407Y-92365400D01*
X171332730Y-92361062D01*
X171332300Y-92350745D01*
X171332300Y-92237300D01*
X171351985Y-92170261D01*
X171404789Y-92124506D01*
X171456300Y-92113300D01*
X171618386Y-92113300D01*
X171618394Y-92113300D01*
X171655269Y-92110398D01*
X171655271Y-92110397D01*
X171655273Y-92110397D01*
X171696891Y-92098305D01*
X171813098Y-92064544D01*
X171869026Y-92031467D01*
X171932147Y-92014200D01*
X174473253Y-92014200D01*
X174536373Y-92031467D01*
X174592302Y-92064544D01*
X174633924Y-92076636D01*
X174750126Y-92110397D01*
X174750129Y-92110397D01*
X174750131Y-92110398D01*
X174787006Y-92113300D01*
X174787014Y-92113300D01*
X176568386Y-92113300D01*
X176568394Y-92113300D01*
X176605269Y-92110398D01*
X176605271Y-92110397D01*
X176605273Y-92110397D01*
X176646891Y-92098305D01*
X176763098Y-92064544D01*
X176904565Y-91980881D01*
X176935826Y-91949620D01*
X176962756Y-91934914D01*
X176988573Y-91918323D01*
X176994771Y-91917431D01*
X176997148Y-91916134D01*
X177023508Y-91913300D01*
X177243571Y-91913300D01*
X177291023Y-91922739D01*
X177298498Y-91925835D01*
X177298503Y-91925837D01*
X177453153Y-91956599D01*
X177453156Y-91956600D01*
X177453158Y-91956600D01*
X177610844Y-91956600D01*
X177610845Y-91956599D01*
X177765497Y-91925837D01*
X177911179Y-91865494D01*
X178042289Y-91777889D01*
X178153789Y-91666389D01*
X178241394Y-91535279D01*
X178242378Y-91532904D01*
X178254366Y-91503962D01*
X181634286Y-91503962D01*
X181634286Y-91503964D01*
X181697173Y-91542754D01*
X181697179Y-91542757D01*
X181863602Y-91597904D01*
X181863609Y-91597905D01*
X181966319Y-91608398D01*
X183566271Y-91608398D01*
X183566287Y-91608397D01*
X183668997Y-91597904D01*
X183835420Y-91542757D01*
X183898312Y-91503963D01*
X183898313Y-91503963D01*
X182766300Y-90371951D01*
X181634286Y-91503962D01*
X178254366Y-91503962D01*
X178292756Y-91411280D01*
X178301735Y-91389601D01*
X178301737Y-91389597D01*
X178332500Y-91234942D01*
X178332500Y-91077258D01*
X178332500Y-91077255D01*
X178332499Y-91077253D01*
X178319340Y-91011101D01*
X178301737Y-90922603D01*
X178257063Y-90814751D01*
X178253556Y-90782124D01*
X178248887Y-90749653D01*
X178249840Y-90747565D01*
X178249595Y-90745283D01*
X178264283Y-90715939D01*
X178277912Y-90686097D01*
X178279842Y-90684856D01*
X178280870Y-90682804D01*
X178309085Y-90666063D01*
X178336690Y-90648323D01*
X178339719Y-90647887D01*
X178340959Y-90647152D01*
X178371625Y-90643300D01*
X178445805Y-90643300D01*
X178512844Y-90662985D01*
X178533487Y-90679620D01*
X178579496Y-90725630D01*
X178579500Y-90725633D01*
X178579502Y-90725635D01*
X178717707Y-90807369D01*
X178743123Y-90814753D01*
X178871891Y-90852164D01*
X178871894Y-90852164D01*
X178871896Y-90852165D01*
X178907919Y-90855000D01*
X179306280Y-90854999D01*
X179342304Y-90852165D01*
X179496493Y-90807369D01*
X179554469Y-90773081D01*
X179622193Y-90755898D01*
X179680712Y-90773081D01*
X179737905Y-90806904D01*
X179877100Y-90847344D01*
X179877100Y-90847343D01*
X180377100Y-90847343D01*
X180516294Y-90806904D01*
X180654385Y-90725238D01*
X180654394Y-90725231D01*
X180767831Y-90611794D01*
X180767838Y-90611785D01*
X180849506Y-90473691D01*
X180849507Y-90473688D01*
X180894266Y-90319628D01*
X180894267Y-90319622D01*
X180897031Y-90284500D01*
X180377100Y-90284500D01*
X180377100Y-90847343D01*
X179877100Y-90847343D01*
X179877100Y-90294908D01*
X179877104Y-90293904D01*
X179877139Y-90289534D01*
X179877600Y-90283681D01*
X179877599Y-89785320D01*
X179877534Y-89784500D01*
X179877482Y-89783832D01*
X179877100Y-89774107D01*
X179877100Y-89221654D01*
X180377100Y-89221654D01*
X180377100Y-89784500D01*
X180897031Y-89784500D01*
X180894267Y-89749377D01*
X180894266Y-89749371D01*
X180849507Y-89595311D01*
X180849506Y-89595308D01*
X180767838Y-89457214D01*
X180767831Y-89457205D01*
X180654394Y-89343768D01*
X180654385Y-89343761D01*
X180516291Y-89262093D01*
X180516288Y-89262091D01*
X180377101Y-89221653D01*
X180377100Y-89221654D01*
X179877100Y-89221654D01*
X179877098Y-89221653D01*
X179737911Y-89262091D01*
X179737910Y-89262092D01*
X179680711Y-89295919D01*
X179612986Y-89313100D01*
X179554471Y-89295919D01*
X179497274Y-89262093D01*
X179496493Y-89261631D01*
X179496492Y-89261630D01*
X179496491Y-89261630D01*
X179496488Y-89261629D01*
X179342308Y-89216835D01*
X179342302Y-89216834D01*
X179306281Y-89214000D01*
X178907930Y-89214000D01*
X178907908Y-89214001D01*
X178871894Y-89216835D01*
X178717711Y-89261629D01*
X178717706Y-89261631D01*
X178579504Y-89343363D01*
X178579500Y-89343366D01*
X178553056Y-89369811D01*
X178516884Y-89405982D01*
X178455564Y-89439466D01*
X178429205Y-89442300D01*
X177168026Y-89442300D01*
X177100987Y-89422615D01*
X177055232Y-89369811D01*
X177045288Y-89300653D01*
X177061294Y-89255179D01*
X177103981Y-89182998D01*
X177149800Y-89025286D01*
X177149995Y-89022801D01*
X177149995Y-89022800D01*
X175801700Y-89022800D01*
X175734661Y-89003115D01*
X175688906Y-88950311D01*
X175677700Y-88898800D01*
X175677700Y-88646800D01*
X175697385Y-88579761D01*
X175750189Y-88534006D01*
X175801700Y-88522800D01*
X177149995Y-88522800D01*
X177149995Y-88522798D01*
X177149800Y-88520313D01*
X177103981Y-88362601D01*
X177032350Y-88241479D01*
X177015167Y-88173755D01*
X177037327Y-88107493D01*
X177091793Y-88063729D01*
X177161273Y-88056360D01*
X177201082Y-88070971D01*
X177314716Y-88136577D01*
X177426519Y-88166534D01*
X177467442Y-88177500D01*
X177467443Y-88177500D01*
X180260731Y-88177500D01*
X180260747Y-88177501D01*
X180268343Y-88177501D01*
X180426454Y-88177501D01*
X180426457Y-88177501D01*
X180579185Y-88136577D01*
X180636822Y-88103300D01*
X180716116Y-88057520D01*
X180827920Y-87945716D01*
X180827920Y-87945715D01*
X180828417Y-87945219D01*
X180855344Y-87930515D01*
X180881163Y-87913923D01*
X180887363Y-87913031D01*
X180889740Y-87911734D01*
X180916098Y-87908900D01*
X180992300Y-87908900D01*
X181059339Y-87928585D01*
X181105094Y-87981389D01*
X181116300Y-88032900D01*
X181116300Y-88324049D01*
X181119199Y-88360889D01*
X181119200Y-88360895D01*
X181165016Y-88518593D01*
X181165017Y-88518596D01*
X181248614Y-88659952D01*
X181248621Y-88659961D01*
X181267403Y-88678743D01*
X181267404Y-88678743D01*
X181800929Y-88145219D01*
X181862252Y-88111734D01*
X181888610Y-88108900D01*
X182140438Y-88108900D01*
X182169878Y-88117544D01*
X182199865Y-88124068D01*
X182204880Y-88127822D01*
X182207477Y-88128585D01*
X182228119Y-88145219D01*
X182280395Y-88197495D01*
X182313880Y-88258818D01*
X182308896Y-88328510D01*
X182280395Y-88372857D01*
X181525757Y-89127494D01*
X181464434Y-89160979D01*
X181394742Y-89155995D01*
X181350395Y-89127494D01*
X181274180Y-89051279D01*
X181274180Y-89051280D01*
X181266300Y-89128411D01*
X181266300Y-90908370D01*
X181266301Y-90908386D01*
X181276794Y-91011095D01*
X181276795Y-91011101D01*
X181312448Y-91118697D01*
X181312449Y-91118697D01*
X182412749Y-90018398D01*
X183119852Y-90018398D01*
X183119852Y-90018400D01*
X184220149Y-91118697D01*
X184255805Y-91011096D01*
X184255806Y-91011089D01*
X184266299Y-90908385D01*
X184266299Y-89128427D01*
X184266298Y-89128414D01*
X185196299Y-89128414D01*
X185196299Y-90908372D01*
X185196300Y-90908388D01*
X185206793Y-91011097D01*
X185206794Y-91011103D01*
X185242447Y-91118699D01*
X185242448Y-91118699D01*
X186342747Y-90018401D01*
X186342747Y-90018400D01*
X185242448Y-88918101D01*
X185242447Y-88918101D01*
X185206793Y-89025701D01*
X185196299Y-89128414D01*
X184266298Y-89128414D01*
X184266298Y-89128411D01*
X184255805Y-89025701D01*
X184220149Y-88918099D01*
X183119852Y-90018398D01*
X182412749Y-90018398D01*
X182551791Y-89879356D01*
X183898312Y-88532834D01*
X183898312Y-88532833D01*
X183835426Y-88494043D01*
X183835419Y-88494040D01*
X183687589Y-88445054D01*
X183630144Y-88405281D01*
X183603321Y-88340765D01*
X183615636Y-88271989D01*
X183638906Y-88239673D01*
X183726814Y-88151766D01*
X183802580Y-88020536D01*
X183841799Y-87874167D01*
X183841799Y-87722635D01*
X183802580Y-87576266D01*
X183726814Y-87445036D01*
X183619664Y-87337886D01*
X183488434Y-87262120D01*
X183358705Y-87227359D01*
X183299046Y-87190995D01*
X183268856Y-87130072D01*
X183266800Y-87118922D01*
X183266800Y-87092706D01*
X183263898Y-87055831D01*
X183239993Y-86973553D01*
X183238865Y-86967432D01*
X183241849Y-86938627D01*
X183241932Y-86909672D01*
X183246055Y-86898034D01*
X183246066Y-86897934D01*
X183246111Y-86897877D01*
X183246244Y-86897502D01*
X183251988Y-86883636D01*
X183266801Y-86771120D01*
X183266801Y-86545680D01*
X183251988Y-86433164D01*
X183251987Y-86433163D01*
X183250927Y-86425105D01*
X183253990Y-86424701D01*
X183253990Y-86392098D01*
X183250927Y-86391695D01*
X183253462Y-86372442D01*
X183266801Y-86271120D01*
X183266801Y-86045680D01*
X183251988Y-85933164D01*
X183251987Y-85933163D01*
X183250927Y-85925105D01*
X183252610Y-85924883D01*
X183250228Y-85897247D01*
X183251309Y-85885272D01*
X183251987Y-85883636D01*
X183266800Y-85771120D01*
X183266800Y-85713708D01*
X183267302Y-85708149D01*
X183278154Y-85680631D01*
X183286485Y-85652261D01*
X183290826Y-85648498D01*
X183292936Y-85643151D01*
X183316946Y-85625865D01*
X183339289Y-85606506D01*
X183345809Y-85605087D01*
X183349640Y-85602330D01*
X183361319Y-85601713D01*
X183390800Y-85595300D01*
X183759403Y-85595300D01*
X183826442Y-85614985D01*
X183847084Y-85631619D01*
X186432185Y-88216720D01*
X186465670Y-88278043D01*
X186460686Y-88347735D01*
X186418814Y-88403668D01*
X186353350Y-88428085D01*
X186344504Y-88428401D01*
X185896327Y-88428401D01*
X185896311Y-88428402D01*
X185793601Y-88438895D01*
X185627179Y-88494042D01*
X185627174Y-88494044D01*
X185564285Y-88532835D01*
X186696299Y-89664849D01*
X186696300Y-89664849D01*
X187189319Y-89171828D01*
X187250642Y-89138343D01*
X187320333Y-89143327D01*
X187376267Y-89185198D01*
X187400684Y-89250663D01*
X187401000Y-89259509D01*
X187401000Y-89615890D01*
X187381315Y-89682929D01*
X187364681Y-89703571D01*
X187049851Y-90018401D01*
X187364681Y-90333231D01*
X187398166Y-90394554D01*
X187401000Y-90420912D01*
X187401000Y-90777292D01*
X187381315Y-90844331D01*
X187328511Y-90890086D01*
X187259353Y-90900030D01*
X187195797Y-90871005D01*
X187189319Y-90864973D01*
X186696299Y-90371953D01*
X185564285Y-91503964D01*
X185564285Y-91503966D01*
X185627172Y-91542756D01*
X185627178Y-91542759D01*
X185793601Y-91597906D01*
X185793608Y-91597907D01*
X185896318Y-91608400D01*
X186331800Y-91608400D01*
X186398839Y-91628084D01*
X186444594Y-91680888D01*
X186454538Y-91750047D01*
X186425513Y-91813603D01*
X186419481Y-91820081D01*
X182439984Y-95799581D01*
X182378661Y-95833066D01*
X182352303Y-95835900D01*
X163198766Y-95835900D01*
X163131727Y-95816215D01*
X163129875Y-95815002D01*
X162998185Y-95727009D01*
X162998172Y-95727002D01*
X162852501Y-95666664D01*
X162852489Y-95666661D01*
X162697845Y-95635900D01*
X162697842Y-95635900D01*
X162540158Y-95635900D01*
X162540155Y-95635900D01*
X162385510Y-95666661D01*
X162385498Y-95666664D01*
X162239827Y-95727002D01*
X162239814Y-95727009D01*
X162108711Y-95814610D01*
X162108707Y-95814613D01*
X161997213Y-95926107D01*
X161997210Y-95926111D01*
X161909609Y-96057214D01*
X161909602Y-96057227D01*
X161849264Y-96202898D01*
X161849261Y-96202910D01*
X161818500Y-96357553D01*
X161818500Y-96515246D01*
X161849261Y-96669889D01*
X161849264Y-96669901D01*
X161909602Y-96815572D01*
X161909609Y-96815585D01*
X161997210Y-96946688D01*
X161997213Y-96946692D01*
X162108707Y-97058186D01*
X162108711Y-97058189D01*
X162239814Y-97145790D01*
X162239827Y-97145797D01*
X162385498Y-97206135D01*
X162385503Y-97206137D01*
X162540153Y-97236899D01*
X162540156Y-97236900D01*
X162540158Y-97236900D01*
X162697844Y-97236900D01*
X162697845Y-97236899D01*
X162852497Y-97206137D01*
X162998179Y-97145794D01*
X163028690Y-97125407D01*
X163129875Y-97057798D01*
X163196553Y-97036920D01*
X163198766Y-97036900D01*
X182565731Y-97036900D01*
X182565747Y-97036901D01*
X182573343Y-97036901D01*
X182731454Y-97036901D01*
X182731457Y-97036901D01*
X182884185Y-96995977D01*
X182934304Y-96967039D01*
X183021116Y-96916920D01*
X183132920Y-96805116D01*
X183132920Y-96805114D01*
X183143128Y-96794907D01*
X183143129Y-96794904D01*
X188479602Y-91458433D01*
X188540923Y-91424950D01*
X188610615Y-91429934D01*
X188666548Y-91471806D01*
X188690965Y-91537270D01*
X188688898Y-91570307D01*
X188537906Y-92329397D01*
X188537050Y-92333363D01*
X188274767Y-93458233D01*
X188273781Y-93462169D01*
X187974842Y-94577827D01*
X187973728Y-94581729D01*
X187638436Y-95687037D01*
X187637194Y-95690901D01*
X187265926Y-96784620D01*
X187264559Y-96788440D01*
X186857707Y-97869419D01*
X186856216Y-97873193D01*
X186414204Y-98940306D01*
X186412590Y-98944029D01*
X185935901Y-99996102D01*
X185934166Y-99999770D01*
X185423311Y-101035682D01*
X185421457Y-101039291D01*
X184876988Y-102057921D01*
X184875017Y-102061468D01*
X184297501Y-103061757D01*
X184295415Y-103065237D01*
X183685490Y-104046076D01*
X183683291Y-104049487D01*
X183041588Y-105009862D01*
X183039279Y-105013198D01*
X182366506Y-105952053D01*
X182364089Y-105955312D01*
X181660955Y-106871654D01*
X181658432Y-106874833D01*
X180925693Y-107767678D01*
X180923068Y-107770772D01*
X180161498Y-108639175D01*
X180158773Y-108642181D01*
X179369217Y-109485182D01*
X179366395Y-109488098D01*
X178549668Y-110304825D01*
X178546752Y-110307647D01*
X177703751Y-111097203D01*
X177700745Y-111099928D01*
X176832342Y-111861498D01*
X176829248Y-111864123D01*
X175936403Y-112596862D01*
X175933224Y-112599385D01*
X175016882Y-113302519D01*
X175013623Y-113304936D01*
X174074768Y-113977709D01*
X174071432Y-113980018D01*
X173111057Y-114621721D01*
X173107646Y-114623920D01*
X172126807Y-115233845D01*
X172123327Y-115235931D01*
X171123038Y-115813447D01*
X171119491Y-115815418D01*
X170100861Y-116359887D01*
X170097252Y-116361741D01*
X169061340Y-116872596D01*
X169057672Y-116874331D01*
X168005599Y-117351020D01*
X168001876Y-117352634D01*
X166934763Y-117794646D01*
X166930989Y-117796137D01*
X165850010Y-118202989D01*
X165846190Y-118204356D01*
X164752471Y-118575624D01*
X164748607Y-118576866D01*
X163643299Y-118912158D01*
X163639397Y-118913272D01*
X162523739Y-119212211D01*
X162519803Y-119213197D01*
X161394933Y-119475480D01*
X161390967Y-119476336D01*
X160258171Y-119701663D01*
X160254179Y-119702390D01*
X159114551Y-119890543D01*
X159110537Y-119891138D01*
X157965415Y-120041897D01*
X157961384Y-120042361D01*
X156811926Y-120155572D01*
X156807882Y-120155904D01*
X155655316Y-120231447D01*
X155651263Y-120231646D01*
X154496849Y-120269439D01*
X154492792Y-120269505D01*
X153337792Y-120269505D01*
X153333735Y-120269439D01*
X152179320Y-120231646D01*
X152175267Y-120231447D01*
X151022701Y-120155904D01*
X151018657Y-120155572D01*
X149869199Y-120042361D01*
X149865168Y-120041897D01*
X148720046Y-119891138D01*
X148716032Y-119890543D01*
X147576404Y-119702390D01*
X147572412Y-119701663D01*
X146439616Y-119476336D01*
X146435650Y-119475480D01*
X145310780Y-119213197D01*
X145306844Y-119212211D01*
X144191186Y-118913272D01*
X144187284Y-118912158D01*
X143081976Y-118576866D01*
X143078112Y-118575624D01*
X141984393Y-118204356D01*
X141980573Y-118202989D01*
X140899594Y-117796137D01*
X140895820Y-117794646D01*
X139828707Y-117352634D01*
X139824984Y-117351020D01*
X138772911Y-116874331D01*
X138769243Y-116872596D01*
X137733331Y-116361741D01*
X137729722Y-116359887D01*
X136711092Y-115815418D01*
X136707545Y-115813447D01*
X135707256Y-115235931D01*
X135703776Y-115233845D01*
X134722937Y-114623920D01*
X134719526Y-114621721D01*
X133759151Y-113980018D01*
X133755815Y-113977709D01*
X132816960Y-113304936D01*
X132813701Y-113302519D01*
X131937053Y-112629843D01*
X131897336Y-112599366D01*
X131894203Y-112596880D01*
X131001322Y-111864112D01*
X130998241Y-111861498D01*
X130129838Y-111099928D01*
X130126832Y-111097203D01*
X129283831Y-110307647D01*
X129280915Y-110304825D01*
X128464188Y-109488098D01*
X128461366Y-109485182D01*
X127671810Y-108642181D01*
X127669085Y-108639175D01*
X127158533Y-108057003D01*
X126907499Y-107770754D01*
X126904906Y-107767697D01*
X126172126Y-106874802D01*
X126169653Y-106871685D01*
X125466494Y-105955312D01*
X125464077Y-105952053D01*
X125021298Y-105334155D01*
X124791301Y-105013194D01*
X124788995Y-105009862D01*
X124735870Y-104930355D01*
X124147286Y-104049478D01*
X124145093Y-104046076D01*
X124080872Y-103942800D01*
X123535160Y-103065223D01*
X123533082Y-103061757D01*
X123383461Y-102802606D01*
X123214584Y-102510101D01*
X122955566Y-102061468D01*
X122953595Y-102057921D01*
X122409126Y-101039291D01*
X122407272Y-101035682D01*
X121896417Y-99999770D01*
X121894682Y-99996102D01*
X121880219Y-99964181D01*
X121417985Y-98944012D01*
X121416379Y-98940306D01*
X121318131Y-98703115D01*
X120974365Y-97873188D01*
X120972876Y-97869419D01*
X120723234Y-97206137D01*
X120566019Y-96788427D01*
X120564657Y-96784620D01*
X120355275Y-96167801D01*
X134700913Y-96167801D01*
X134700913Y-96437428D01*
X134731099Y-96705334D01*
X134731101Y-96705346D01*
X134791097Y-96968209D01*
X134791100Y-96968217D01*
X134880147Y-97222697D01*
X134997127Y-97465609D01*
X134997129Y-97465612D01*
X135140575Y-97693904D01*
X135265986Y-97851164D01*
X135282066Y-97871329D01*
X135308679Y-97904700D01*
X135499328Y-98095349D01*
X135710124Y-98263453D01*
X135938416Y-98406899D01*
X136181334Y-98523882D01*
X136372462Y-98590760D01*
X136435810Y-98612927D01*
X136435818Y-98612930D01*
X136435821Y-98612930D01*
X136435822Y-98612931D01*
X136698681Y-98672927D01*
X136966600Y-98703114D01*
X136966601Y-98703115D01*
X136966604Y-98703115D01*
X137236225Y-98703115D01*
X137236225Y-98703114D01*
X137504145Y-98672927D01*
X137767004Y-98612931D01*
X138021492Y-98523882D01*
X138264410Y-98406899D01*
X138492702Y-98263453D01*
X138703498Y-98095349D01*
X138894147Y-97904700D01*
X139062251Y-97693904D01*
X139205697Y-97465612D01*
X139322680Y-97222694D01*
X139411729Y-96968206D01*
X139471725Y-96705347D01*
X139501913Y-96437424D01*
X139501913Y-96167806D01*
X139471725Y-95899883D01*
X139411729Y-95637024D01*
X139322680Y-95382536D01*
X139232774Y-95195844D01*
X139205698Y-95139620D01*
X139201312Y-95132639D01*
X139062251Y-94911326D01*
X138894147Y-94700530D01*
X138703498Y-94509881D01*
X138702043Y-94508721D01*
X138629048Y-94450509D01*
X138492702Y-94341777D01*
X138264410Y-94198331D01*
X138264407Y-94198329D01*
X138021495Y-94081349D01*
X137767015Y-93992302D01*
X137767007Y-93992299D01*
X137569859Y-93947302D01*
X137504145Y-93932303D01*
X137504141Y-93932302D01*
X137504132Y-93932301D01*
X137236226Y-93902115D01*
X137236222Y-93902115D01*
X136966604Y-93902115D01*
X136966599Y-93902115D01*
X136698693Y-93932301D01*
X136698681Y-93932303D01*
X136435818Y-93992299D01*
X136435810Y-93992302D01*
X136181330Y-94081349D01*
X135938418Y-94198329D01*
X135710125Y-94341776D01*
X135499328Y-94509880D01*
X135308678Y-94700530D01*
X135140574Y-94911327D01*
X134997127Y-95139620D01*
X134880147Y-95382532D01*
X134791100Y-95637012D01*
X134791097Y-95637020D01*
X134731101Y-95899883D01*
X134731099Y-95899895D01*
X134700913Y-96167801D01*
X120355275Y-96167801D01*
X120193379Y-95690872D01*
X120192156Y-95687066D01*
X119856844Y-94581691D01*
X119855752Y-94577865D01*
X119556791Y-93462127D01*
X119555826Y-93458274D01*
X119293523Y-92333318D01*
X119292686Y-92329443D01*
X119067345Y-91196576D01*
X119066623Y-91192609D01*
X119065510Y-91185869D01*
X118878466Y-90052958D01*
X118877875Y-90048967D01*
X118873851Y-90018400D01*
X118727110Y-88903796D01*
X118726657Y-88899864D01*
X118613440Y-87750353D01*
X118613109Y-87746312D01*
X118606594Y-87646905D01*
X118537564Y-86593717D01*
X118537367Y-86589693D01*
X118537354Y-86589309D01*
X118499575Y-85435279D01*
X118499509Y-85431222D01*
X118499509Y-85152135D01*
X119969500Y-85152135D01*
X119969500Y-86147870D01*
X119969501Y-86147876D01*
X119975908Y-86207483D01*
X120026202Y-86342328D01*
X120026203Y-86342329D01*
X120026204Y-86342331D01*
X120090423Y-86428116D01*
X120112452Y-86457543D01*
X120112455Y-86457547D01*
X120169810Y-86500482D01*
X120172546Y-86504137D01*
X120176703Y-86506036D01*
X120193293Y-86531851D01*
X120211682Y-86556415D01*
X120212697Y-86562045D01*
X120214477Y-86564814D01*
X120219500Y-86599749D01*
X120219500Y-86692004D01*
X120199815Y-86759043D01*
X120183181Y-86779685D01*
X120178769Y-86784096D01*
X120178763Y-86784104D01*
X120097031Y-86922306D01*
X120097029Y-86922311D01*
X120052235Y-87076491D01*
X120052234Y-87076497D01*
X120049400Y-87112511D01*
X120049400Y-87610869D01*
X120049401Y-87610891D01*
X120052235Y-87646905D01*
X120097029Y-87801088D01*
X120097031Y-87801093D01*
X120178763Y-87939295D01*
X120178769Y-87939303D01*
X120292296Y-88052830D01*
X120292300Y-88052833D01*
X120292302Y-88052835D01*
X120430507Y-88134569D01*
X120467165Y-88145219D01*
X120584691Y-88179364D01*
X120584694Y-88179364D01*
X120584696Y-88179365D01*
X120620719Y-88182200D01*
X121019080Y-88182199D01*
X121055104Y-88179365D01*
X121209293Y-88134569D01*
X121266782Y-88100569D01*
X121334502Y-88083388D01*
X121393017Y-88100569D01*
X121450507Y-88134569D01*
X121450510Y-88134569D01*
X121450512Y-88134571D01*
X121604691Y-88179364D01*
X121604694Y-88179364D01*
X121604696Y-88179365D01*
X121640719Y-88182200D01*
X121759802Y-88182199D01*
X121826841Y-88201883D01*
X121847483Y-88218518D01*
X122675639Y-89046674D01*
X122675649Y-89046685D01*
X122679979Y-89051015D01*
X122679980Y-89051016D01*
X122791784Y-89162820D01*
X122791786Y-89162821D01*
X122791790Y-89162824D01*
X122893688Y-89221654D01*
X122928716Y-89241877D01*
X123028821Y-89268700D01*
X123028820Y-89268700D01*
X123042920Y-89272477D01*
X123081442Y-89282800D01*
X123081443Y-89282800D01*
X143477846Y-89282800D01*
X143544885Y-89302485D01*
X143590640Y-89355289D01*
X143600129Y-89386236D01*
X143608739Y-89437436D01*
X143608740Y-89437440D01*
X143632993Y-89492263D01*
X143632997Y-89492272D01*
X144580863Y-91134024D01*
X144616222Y-91182451D01*
X144727203Y-91274085D01*
X144727205Y-91274087D01*
X144859500Y-91330738D01*
X144859503Y-91330739D01*
X144859506Y-91330740D01*
X144979951Y-91345141D01*
X145002409Y-91347827D01*
X145002409Y-91347826D01*
X145002410Y-91347827D01*
X145121536Y-91327794D01*
X145144335Y-91323961D01*
X145144335Y-91323960D01*
X145144340Y-91323960D01*
X145199168Y-91299705D01*
X145392681Y-91187978D01*
X145401377Y-91185869D01*
X145408405Y-91180324D01*
X145434801Y-91177760D01*
X145460577Y-91171507D01*
X145469037Y-91174435D01*
X145477947Y-91173570D01*
X145501539Y-91185684D01*
X145526604Y-91194359D01*
X145533777Y-91202237D01*
X145540102Y-91205485D01*
X145561696Y-91232899D01*
X145561964Y-91233193D01*
X145562305Y-91233783D01*
X145601180Y-91301116D01*
X145601193Y-91301129D01*
X145601199Y-91301139D01*
X145645908Y-91345844D01*
X145712984Y-91412920D01*
X145712990Y-91412923D01*
X145713005Y-91412935D01*
X145713008Y-91412938D01*
X145786393Y-91455302D01*
X145849916Y-91491977D01*
X145849927Y-91491980D01*
X145849943Y-91491989D01*
X145946522Y-91517862D01*
X146002643Y-91532900D01*
X146002653Y-91532900D01*
X146002672Y-91532905D01*
X146090509Y-91532900D01*
X146090515Y-91532900D01*
X146208303Y-91532900D01*
X146275342Y-91552585D01*
X146295984Y-91569219D01*
X148611044Y-93884279D01*
X148645014Y-93924761D01*
X148666734Y-93939969D01*
X148685484Y-93958719D01*
X148731249Y-93985141D01*
X148774535Y-94015450D01*
X148799449Y-94024517D01*
X148822415Y-94037777D01*
X148868240Y-94050055D01*
X148878529Y-94053298D01*
X148956550Y-94081694D01*
X149012811Y-94123118D01*
X149037748Y-94188386D01*
X149030660Y-94240625D01*
X148954267Y-94450513D01*
X148939904Y-94508710D01*
X148939902Y-94508723D01*
X148941044Y-94652629D01*
X148941045Y-94652637D01*
X148982686Y-94790399D01*
X148982686Y-94790400D01*
X149061453Y-94910852D01*
X149061456Y-94910856D01*
X149075515Y-94922844D01*
X149170968Y-95004238D01*
X149224792Y-95030648D01*
X149694985Y-95201784D01*
X151006213Y-95679032D01*
X151052079Y-95690351D01*
X151064417Y-95693397D01*
X151064422Y-95693396D01*
X151064423Y-95693397D01*
X151136376Y-95692826D01*
X151208335Y-95692255D01*
X151346101Y-95650613D01*
X151466555Y-95571845D01*
X151559938Y-95462332D01*
X151586348Y-95408508D01*
X151662753Y-95198584D01*
X151668118Y-95191296D01*
X151669973Y-95182435D01*
X151688511Y-95163600D01*
X151704178Y-95142322D01*
X151712634Y-95139091D01*
X151718985Y-95132639D01*
X151744759Y-95126817D01*
X151769446Y-95117386D01*
X151780111Y-95118833D01*
X151787138Y-95117246D01*
X151821676Y-95124472D01*
X151869864Y-95142010D01*
X151889435Y-95151136D01*
X151903016Y-95158977D01*
X151954059Y-95172654D01*
X152003714Y-95190726D01*
X152030128Y-95193036D01*
X152055743Y-95199900D01*
X152108585Y-95199900D01*
X152161227Y-95204505D01*
X152187342Y-95199900D01*
X152213857Y-95199900D01*
X152221223Y-95199900D01*
X152222748Y-95199800D01*
X155851752Y-95199800D01*
X155852257Y-95199801D01*
X155860397Y-95199834D01*
X155860643Y-95199900D01*
X155876569Y-95199900D01*
X155876815Y-95199901D01*
X155877020Y-95199962D01*
X155897841Y-95201783D01*
X155913273Y-95204505D01*
X155960520Y-95200371D01*
X155971326Y-95199900D01*
X156018757Y-95199900D01*
X156044371Y-95193036D01*
X156070786Y-95190726D01*
X156120440Y-95172654D01*
X156171484Y-95158977D01*
X156185058Y-95151140D01*
X156204632Y-95142011D01*
X156252822Y-95124472D01*
X156322547Y-95120043D01*
X156383602Y-95154015D01*
X156411746Y-95198583D01*
X156488153Y-95408507D01*
X156488153Y-95408508D01*
X156488155Y-95408512D01*
X156488158Y-95408519D01*
X156514561Y-95462330D01*
X156514562Y-95462333D01*
X156571001Y-95528519D01*
X156607945Y-95571845D01*
X156728399Y-95650613D01*
X156866165Y-95692255D01*
X156938124Y-95692826D01*
X157010078Y-95693397D01*
X157010078Y-95693396D01*
X157010083Y-95693397D01*
X157068290Y-95679031D01*
X158849707Y-95030647D01*
X158903532Y-95004238D01*
X159013045Y-94910855D01*
X159091813Y-94790401D01*
X159133455Y-94652635D01*
X159134597Y-94508717D01*
X159120231Y-94450510D01*
X158471847Y-92669093D01*
X158445438Y-92615268D01*
X158445437Y-92615267D01*
X158445437Y-92615266D01*
X158384459Y-92543756D01*
X158352055Y-92505755D01*
X158231601Y-92426987D01*
X158231600Y-92426986D01*
X158231599Y-92426986D01*
X158093837Y-92385345D01*
X158093829Y-92385344D01*
X158011118Y-92384688D01*
X157944237Y-92364472D01*
X157898902Y-92311307D01*
X157889508Y-92242071D01*
X157901620Y-92204392D01*
X157909163Y-92189589D01*
X157909165Y-92189584D01*
X157933951Y-92113299D01*
X157977284Y-91979932D01*
X158011769Y-91762203D01*
X158011769Y-91541759D01*
X157977284Y-91324030D01*
X157937712Y-91202237D01*
X157909165Y-91114377D01*
X157909164Y-91114374D01*
X157866409Y-91030464D01*
X157809084Y-90917959D01*
X157766989Y-90860020D01*
X157679516Y-90739622D01*
X157679512Y-90739617D01*
X157523632Y-90583737D01*
X157523627Y-90583733D01*
X157345294Y-90454168D01*
X157345293Y-90454167D01*
X157345291Y-90454166D01*
X157242440Y-90401760D01*
X157148875Y-90354085D01*
X157148872Y-90354084D01*
X156939221Y-90285966D01*
X156765769Y-90258494D01*
X156721491Y-90251481D01*
X156501047Y-90251481D01*
X156456769Y-90258494D01*
X156283316Y-90285966D01*
X156073665Y-90354084D01*
X156073662Y-90354085D01*
X155877243Y-90454168D01*
X155698910Y-90583733D01*
X155698905Y-90583737D01*
X155543025Y-90739617D01*
X155543021Y-90739622D01*
X155413456Y-90917955D01*
X155379909Y-90983795D01*
X155331934Y-91034591D01*
X155269424Y-91051500D01*
X152805076Y-91051500D01*
X152738037Y-91031815D01*
X152694591Y-90983795D01*
X152692200Y-90979102D01*
X152661046Y-90917959D01*
X152618951Y-90860020D01*
X152531478Y-90739622D01*
X152531474Y-90739617D01*
X152375594Y-90583737D01*
X152375589Y-90583733D01*
X152197256Y-90454168D01*
X152197255Y-90454167D01*
X152197253Y-90454166D01*
X152094402Y-90401760D01*
X152000837Y-90354085D01*
X152000834Y-90354084D01*
X151791183Y-90285966D01*
X151617731Y-90258494D01*
X151573453Y-90251481D01*
X151353009Y-90251481D01*
X151336423Y-90254108D01*
X151135276Y-90285966D01*
X151064987Y-90308804D01*
X150995146Y-90310799D01*
X150938989Y-90278554D01*
X148953554Y-88293119D01*
X148920551Y-88232678D01*
X159154395Y-88232678D01*
X159154395Y-88453122D01*
X159164765Y-88518593D01*
X159188880Y-88670852D01*
X159256998Y-88880503D01*
X159256999Y-88880506D01*
X159312023Y-88988494D01*
X159343364Y-89050004D01*
X159357082Y-89076925D01*
X159486647Y-89255258D01*
X159486651Y-89255263D01*
X159642531Y-89411143D01*
X159642536Y-89411147D01*
X159768968Y-89503004D01*
X159820873Y-89540715D01*
X159928017Y-89595308D01*
X160017288Y-89640795D01*
X160017291Y-89640796D01*
X160122116Y-89674855D01*
X160226944Y-89708915D01*
X160444673Y-89743400D01*
X160444674Y-89743400D01*
X160665116Y-89743400D01*
X160665117Y-89743400D01*
X160779989Y-89725205D01*
X160887658Y-89708153D01*
X160887862Y-89709444D01*
X160951662Y-89712627D01*
X161008486Y-89753282D01*
X161034309Y-89818205D01*
X161033127Y-89850279D01*
X161019673Y-89930287D01*
X161019672Y-89930290D01*
X161036760Y-90073196D01*
X161036761Y-90073199D01*
X161093412Y-90205493D01*
X161093413Y-90205494D01*
X161093414Y-90205496D01*
X161126248Y-90245262D01*
X161185049Y-90316478D01*
X161233459Y-90351826D01*
X161233474Y-90351836D01*
X162113676Y-90860020D01*
X162875232Y-91299704D01*
X162875234Y-91299705D01*
X162875236Y-91299706D01*
X162879228Y-91301472D01*
X162930060Y-91323960D01*
X163071990Y-91347827D01*
X163214894Y-91330740D01*
X163230730Y-91323959D01*
X163287362Y-91299708D01*
X163347196Y-91274086D01*
X163458177Y-91182451D01*
X163493532Y-91134032D01*
X164441404Y-89492268D01*
X164465660Y-89437440D01*
X164489527Y-89295510D01*
X164488994Y-89291056D01*
X164483114Y-89241876D01*
X164472440Y-89152606D01*
X164472439Y-89152603D01*
X164472438Y-89152600D01*
X164415787Y-89020306D01*
X164415786Y-89020305D01*
X164415786Y-89020304D01*
X164342361Y-88931377D01*
X164324150Y-88909321D01*
X164275740Y-88873973D01*
X164275725Y-88873963D01*
X162633963Y-87926093D01*
X162579140Y-87901840D01*
X162579137Y-87901839D01*
X162437211Y-87877973D01*
X162437209Y-87877972D01*
X162294303Y-87895060D01*
X162294300Y-87895061D01*
X162162006Y-87951712D01*
X162096262Y-88005995D01*
X162032033Y-88033498D01*
X161963131Y-88021911D01*
X161911431Y-87974912D01*
X161899382Y-87948692D01*
X161898414Y-87945714D01*
X161877353Y-87880892D01*
X161852792Y-87805299D01*
X161852790Y-87805293D01*
X161772485Y-87647689D01*
X161752710Y-87608878D01*
X161690347Y-87523042D01*
X161623142Y-87430541D01*
X161623138Y-87430536D01*
X161467258Y-87274656D01*
X161467253Y-87274652D01*
X161288920Y-87145087D01*
X161288919Y-87145086D01*
X161288917Y-87145085D01*
X161186119Y-87092706D01*
X161092501Y-87045004D01*
X161092498Y-87045003D01*
X160882847Y-86976885D01*
X160756129Y-86956815D01*
X160665117Y-86942400D01*
X160444673Y-86942400D01*
X160385532Y-86951767D01*
X160226942Y-86976885D01*
X160017291Y-87045003D01*
X160017288Y-87045004D01*
X159820869Y-87145087D01*
X159642536Y-87274652D01*
X159642531Y-87274656D01*
X159486651Y-87430536D01*
X159486647Y-87430541D01*
X159357082Y-87608874D01*
X159256999Y-87805293D01*
X159256998Y-87805296D01*
X159188880Y-88014947D01*
X159156638Y-88218518D01*
X159154395Y-88232678D01*
X148920551Y-88232678D01*
X148920069Y-88231796D01*
X148918767Y-88224861D01*
X148885520Y-88014949D01*
X148885520Y-88014948D01*
X148817401Y-87805296D01*
X148817400Y-87805293D01*
X148737095Y-87647689D01*
X148717320Y-87608878D01*
X148654957Y-87523042D01*
X148587752Y-87430541D01*
X148587748Y-87430536D01*
X148431868Y-87274656D01*
X148431863Y-87274652D01*
X148253530Y-87145087D01*
X148253529Y-87145086D01*
X148253527Y-87145085D01*
X148150729Y-87092706D01*
X148057111Y-87045004D01*
X148057108Y-87045003D01*
X147847457Y-86976885D01*
X147720739Y-86956815D01*
X147629727Y-86942400D01*
X147409283Y-86942400D01*
X147350142Y-86951767D01*
X147191552Y-86976885D01*
X146981901Y-87045003D01*
X146981898Y-87045004D01*
X146785479Y-87145087D01*
X146607146Y-87274652D01*
X146607141Y-87274656D01*
X146451261Y-87430536D01*
X146451257Y-87430541D01*
X146321692Y-87608874D01*
X146221609Y-87805293D01*
X146221608Y-87805296D01*
X146175016Y-87948694D01*
X146135578Y-88006370D01*
X146071220Y-88033568D01*
X146002373Y-88021653D01*
X145978141Y-88005998D01*
X145912396Y-87951714D01*
X145912394Y-87951713D01*
X145912393Y-87951712D01*
X145780099Y-87895061D01*
X145780096Y-87895060D01*
X145661604Y-87880892D01*
X145597376Y-87853387D01*
X145558214Y-87795524D01*
X145556551Y-87725674D01*
X145588643Y-87670090D01*
X152177516Y-81081219D01*
X152238839Y-81047734D01*
X152265197Y-81044900D01*
X160319031Y-81044900D01*
X160319047Y-81044901D01*
X160326643Y-81044901D01*
X160484754Y-81044901D01*
X160484757Y-81044901D01*
X160637485Y-81003977D01*
X160687604Y-80975039D01*
X160774416Y-80924920D01*
X160886220Y-80813116D01*
X160886220Y-80813114D01*
X160896428Y-80802907D01*
X160896429Y-80802904D01*
X162498462Y-79200872D01*
X162559783Y-79167389D01*
X162561950Y-79166938D01*
X162619885Y-79155413D01*
X162717297Y-79136037D01*
X162862979Y-79075694D01*
X162994089Y-78988089D01*
X163105589Y-78876589D01*
X163193194Y-78745479D01*
X163253537Y-78599797D01*
X163284300Y-78445142D01*
X163284300Y-78287458D01*
X163284300Y-78287455D01*
X163284299Y-78287453D01*
X163268574Y-78208400D01*
X163253537Y-78132803D01*
X163231926Y-78080629D01*
X163193197Y-77987127D01*
X163193190Y-77987114D01*
X163105589Y-77856011D01*
X163105586Y-77856007D01*
X162994092Y-77744513D01*
X162994088Y-77744510D01*
X162862985Y-77656909D01*
X162862972Y-77656902D01*
X162717301Y-77596564D01*
X162717289Y-77596561D01*
X162562645Y-77565800D01*
X162562642Y-77565800D01*
X162404958Y-77565800D01*
X162404955Y-77565800D01*
X162250310Y-77596561D01*
X162250298Y-77596564D01*
X162104627Y-77656902D01*
X162104614Y-77656909D01*
X161973511Y-77744510D01*
X161973507Y-77744513D01*
X161862013Y-77856007D01*
X161862010Y-77856011D01*
X161774409Y-77987114D01*
X161774402Y-77987127D01*
X161714064Y-78132798D01*
X161714061Y-78132808D01*
X161683161Y-78288150D01*
X161650776Y-78350061D01*
X161649225Y-78351639D01*
X160193284Y-79807581D01*
X160166356Y-79822284D01*
X160140538Y-79838877D01*
X160134337Y-79839768D01*
X160131961Y-79841066D01*
X160105603Y-79843900D01*
X160101505Y-79843900D01*
X160034466Y-79824215D01*
X159988711Y-79771411D01*
X159978767Y-79702253D01*
X160001187Y-79647015D01*
X160036723Y-79598103D01*
X160072634Y-79548675D01*
X160172714Y-79352259D01*
X160240834Y-79142604D01*
X160275319Y-78924875D01*
X160275319Y-78721748D01*
X160295004Y-78654709D01*
X160347808Y-78608954D01*
X160416966Y-78599010D01*
X160440805Y-78604894D01*
X160518799Y-78632584D01*
X160533175Y-78633382D01*
X160662501Y-78640571D01*
X160802631Y-78607752D01*
X160927838Y-78536781D01*
X160971064Y-78495237D01*
X162189625Y-77043011D01*
X162223033Y-76993228D01*
X162266392Y-76871097D01*
X162271184Y-76857600D01*
X162272245Y-76838503D01*
X162279171Y-76713899D01*
X162252418Y-76599669D01*
X162246353Y-76573772D01*
X162246351Y-76573767D01*
X162175381Y-76448562D01*
X162133837Y-76405336D01*
X161626875Y-75979945D01*
X160681611Y-75186775D01*
X160635786Y-75156023D01*
X160631827Y-75153366D01*
X160631824Y-75153365D01*
X160496200Y-75105215D01*
X160359686Y-75097628D01*
X160352499Y-75097229D01*
X160352498Y-75097229D01*
X160212372Y-75130046D01*
X160212367Y-75130048D01*
X160087162Y-75201018D01*
X160043931Y-75242567D01*
X159882345Y-75435138D01*
X159865966Y-75446035D01*
X159852868Y-75460713D01*
X159837475Y-75464989D01*
X159824174Y-75473840D01*
X159804503Y-75474151D01*
X159785549Y-75479419D01*
X159763212Y-75474806D01*
X159754313Y-75474948D01*
X159750691Y-75473887D01*
X159740986Y-75470883D01*
X159738284Y-75469323D01*
X159720868Y-75464656D01*
X159718584Y-75463949D01*
X159717434Y-75463186D01*
X159702848Y-75457877D01*
X159688653Y-75451258D01*
X159688651Y-75451257D01*
X159688648Y-75451256D01*
X159641936Y-75443018D01*
X159631381Y-75440678D01*
X159585558Y-75428400D01*
X159585557Y-75428400D01*
X159569901Y-75428400D01*
X159548363Y-75426515D01*
X159532941Y-75423795D01*
X159501839Y-75426515D01*
X159485670Y-75427929D01*
X159474867Y-75428400D01*
X155963400Y-75428400D01*
X155896361Y-75408715D01*
X155850606Y-75355911D01*
X155839400Y-75304400D01*
X155839400Y-74434845D01*
X155839400Y-74434843D01*
X155798477Y-74282116D01*
X155790548Y-74268383D01*
X155719424Y-74145190D01*
X155719418Y-74145182D01*
X155607617Y-74033381D01*
X155607612Y-74033377D01*
X155499699Y-73971074D01*
X155451484Y-73920507D01*
X155437699Y-73863687D01*
X155437699Y-73566029D01*
X155437698Y-73566023D01*
X155437697Y-73566016D01*
X155431291Y-73506417D01*
X155416051Y-73465557D01*
X155380997Y-73371571D01*
X155380993Y-73371564D01*
X155294747Y-73256355D01*
X155294744Y-73256352D01*
X155179535Y-73170106D01*
X155179528Y-73170102D01*
X155044682Y-73119808D01*
X155044683Y-73119808D01*
X154985083Y-73113401D01*
X154985081Y-73113400D01*
X154985073Y-73113400D01*
X154985064Y-73113400D01*
X153089329Y-73113400D01*
X153089323Y-73113401D01*
X153029716Y-73119808D01*
X152894871Y-73170102D01*
X152894864Y-73170106D01*
X152779655Y-73256352D01*
X152779652Y-73256355D01*
X152693406Y-73371564D01*
X152693402Y-73371571D01*
X152643108Y-73506417D01*
X152636701Y-73566016D01*
X152636700Y-73566027D01*
X152636700Y-74316340D01*
X152636701Y-74991100D01*
X152617016Y-75058139D01*
X152564213Y-75103894D01*
X152512701Y-75115100D01*
X148802143Y-75115100D01*
X148649415Y-75156023D01*
X148627112Y-75168900D01*
X148627111Y-75168900D01*
X148512490Y-75235075D01*
X148512482Y-75235081D01*
X148400678Y-75346886D01*
X148400677Y-75346887D01*
X148342659Y-75404904D01*
X148281336Y-75438388D01*
X148211644Y-75433403D01*
X148159990Y-75396928D01*
X148030463Y-75242564D01*
X147987238Y-75201019D01*
X147862032Y-75130048D01*
X147862027Y-75130046D01*
X147740594Y-75101607D01*
X147721901Y-75097229D01*
X147721900Y-75097229D01*
X147578199Y-75105215D01*
X147442572Y-75153366D01*
X147442566Y-75153370D01*
X147392791Y-75186771D01*
X145940561Y-76405338D01*
X145940557Y-76405342D01*
X145899019Y-76448560D01*
X145828048Y-76573767D01*
X145828046Y-76573772D01*
X145795229Y-76713898D01*
X145803215Y-76857600D01*
X145851366Y-76993227D01*
X145851370Y-76993233D01*
X145884771Y-77043008D01*
X147103338Y-78495238D01*
X147103342Y-78495242D01*
X147146560Y-78536780D01*
X147259884Y-78601015D01*
X147271769Y-78607752D01*
X147271770Y-78607752D01*
X147271772Y-78607753D01*
X147291969Y-78612483D01*
X147411899Y-78640571D01*
X147551816Y-78632794D01*
X147555600Y-78632584D01*
X147633595Y-78604894D01*
X147703357Y-78601015D01*
X147764141Y-78635468D01*
X147796650Y-78697314D01*
X147799081Y-78721748D01*
X147799081Y-78924874D01*
X147833566Y-79142605D01*
X147901684Y-79352256D01*
X147901685Y-79352259D01*
X147936559Y-79420701D01*
X147994567Y-79534547D01*
X148001768Y-79548678D01*
X148131333Y-79727011D01*
X148131337Y-79727016D01*
X148287217Y-79882896D01*
X148287222Y-79882900D01*
X148442773Y-79995913D01*
X148465559Y-80012468D01*
X148593956Y-80077890D01*
X148661974Y-80112548D01*
X148661977Y-80112549D01*
X148766802Y-80146608D01*
X148871630Y-80180668D01*
X149089359Y-80215153D01*
X149089360Y-80215153D01*
X149309802Y-80215153D01*
X149309803Y-80215153D01*
X149527532Y-80180668D01*
X149737187Y-80112548D01*
X149933603Y-80012468D01*
X150111946Y-79882895D01*
X150267823Y-79727018D01*
X150397396Y-79548675D01*
X150497476Y-79352259D01*
X150565596Y-79142604D01*
X150600081Y-78924875D01*
X150600081Y-78704431D01*
X150584769Y-78607753D01*
X150565596Y-78486701D01*
X150545120Y-78423684D01*
X150542784Y-78416496D01*
X150540790Y-78346657D01*
X150573033Y-78290500D01*
X151172816Y-77690719D01*
X151234139Y-77657234D01*
X151260497Y-77654400D01*
X152695364Y-77654400D01*
X152762403Y-77674085D01*
X152805848Y-77722104D01*
X152839385Y-77787923D01*
X152968952Y-77966258D01*
X152968956Y-77966263D01*
X153124836Y-78122143D01*
X153124841Y-78122147D01*
X153243561Y-78208401D01*
X153303178Y-78251715D01*
X153431575Y-78317137D01*
X153499593Y-78351795D01*
X153499596Y-78351796D01*
X153566725Y-78373607D01*
X153709249Y-78419915D01*
X153926978Y-78454400D01*
X153926979Y-78454400D01*
X154147421Y-78454400D01*
X154147422Y-78454400D01*
X154365151Y-78419915D01*
X154435405Y-78397087D01*
X154505244Y-78395092D01*
X154561403Y-78427338D01*
X154879084Y-78745019D01*
X154912569Y-78806342D01*
X154907585Y-78876034D01*
X154865713Y-78931967D01*
X154800249Y-78956384D01*
X154791403Y-78956700D01*
X152205243Y-78956700D01*
X152052513Y-78997623D01*
X152006509Y-79024185D01*
X152006508Y-79024185D01*
X151915587Y-79076677D01*
X151915582Y-79076681D01*
X151803778Y-79188486D01*
X148148351Y-82843912D01*
X148087028Y-82877397D01*
X148017336Y-82872413D01*
X147961403Y-82830541D01*
X147942739Y-82794549D01*
X147923508Y-82735362D01*
X147923507Y-82735359D01*
X147887786Y-82665255D01*
X147823427Y-82538944D01*
X147779813Y-82478914D01*
X147693859Y-82360607D01*
X147693855Y-82360602D01*
X147537975Y-82204722D01*
X147537970Y-82204718D01*
X147359637Y-82075153D01*
X147359636Y-82075152D01*
X147359634Y-82075151D01*
X147257564Y-82023143D01*
X147163218Y-81975070D01*
X147163215Y-81975069D01*
X146953564Y-81906951D01*
X146763936Y-81876917D01*
X146735834Y-81872466D01*
X146515390Y-81872466D01*
X146487288Y-81876917D01*
X146297659Y-81906951D01*
X146088008Y-81975069D01*
X146088005Y-81975070D01*
X145891588Y-82075152D01*
X145856059Y-82100964D01*
X145790252Y-82124442D01*
X145722198Y-82108615D01*
X145673505Y-82058508D01*
X145661236Y-82023150D01*
X145645944Y-81940271D01*
X145611666Y-81872466D01*
X145581014Y-81811833D01*
X145581013Y-81811832D01*
X145581012Y-81811830D01*
X145482524Y-81706883D01*
X145482521Y-81706881D01*
X145482520Y-81706880D01*
X145358462Y-81633938D01*
X145358452Y-81633933D01*
X145300880Y-81617276D01*
X145300870Y-81617273D01*
X143433933Y-81288082D01*
X143433923Y-81288081D01*
X143374106Y-81284041D01*
X143374105Y-81284041D01*
X143374104Y-81284041D01*
X143303337Y-81297098D01*
X143232569Y-81310156D01*
X143104133Y-81375085D01*
X143104132Y-81375086D01*
X142999180Y-81473579D01*
X142926238Y-81597637D01*
X142926233Y-81597647D01*
X142909576Y-81655219D01*
X142909573Y-81655229D01*
X142580382Y-83522166D01*
X142580381Y-83522176D01*
X142576616Y-83577929D01*
X142576341Y-83581996D01*
X142588545Y-83648135D01*
X142602456Y-83723530D01*
X142667385Y-83851966D01*
X142667386Y-83851967D01*
X142667388Y-83851970D01*
X142765876Y-83956917D01*
X142765878Y-83956918D01*
X142765879Y-83956919D01*
X142826677Y-83992666D01*
X142889942Y-84029864D01*
X142889944Y-84029864D01*
X142889947Y-84029866D01*
X142947519Y-84046523D01*
X142947529Y-84046526D01*
X142947530Y-84046526D01*
X142947533Y-84046527D01*
X143977317Y-84228104D01*
X144039917Y-84259129D01*
X144075808Y-84319076D01*
X144073591Y-84388911D01*
X144043463Y-84437900D01*
X142968884Y-85512481D01*
X142907561Y-85545966D01*
X142881203Y-85548800D01*
X134346913Y-85548800D01*
X134279874Y-85529115D01*
X134234119Y-85476311D01*
X134224175Y-85407153D01*
X134228982Y-85386482D01*
X134270326Y-85259235D01*
X134304800Y-85041581D01*
X134304800Y-84821218D01*
X134270326Y-84603564D01*
X134202232Y-84393989D01*
X134102188Y-84197643D01*
X134055865Y-84133885D01*
X133346937Y-84842813D01*
X133324133Y-84757706D01*
X133264890Y-84655094D01*
X133181106Y-84571310D01*
X133078494Y-84512067D01*
X132993383Y-84489261D01*
X133702313Y-83780332D01*
X133677119Y-83762028D01*
X133634453Y-83706698D01*
X133628474Y-83637085D01*
X133661079Y-83575289D01*
X133677113Y-83561394D01*
X133817165Y-83459642D01*
X133973042Y-83303765D01*
X134102615Y-83125422D01*
X134202695Y-82929006D01*
X134270815Y-82719351D01*
X134305300Y-82501622D01*
X134305300Y-82281178D01*
X134270815Y-82063449D01*
X134227246Y-81929356D01*
X134202696Y-81853796D01*
X134202695Y-81853793D01*
X134165110Y-81780031D01*
X134102615Y-81657378D01*
X133996061Y-81510718D01*
X133973047Y-81479041D01*
X133973043Y-81479036D01*
X133817163Y-81323156D01*
X133817158Y-81323152D01*
X133638825Y-81193587D01*
X133638824Y-81193586D01*
X133638822Y-81193585D01*
X133565162Y-81156053D01*
X133442406Y-81093504D01*
X133442403Y-81093503D01*
X133232752Y-81025385D01*
X133123886Y-81008142D01*
X133015022Y-80990900D01*
X132794578Y-80990900D01*
X132728265Y-81001403D01*
X132576847Y-81025385D01*
X132367196Y-81093503D01*
X132367193Y-81093504D01*
X132170774Y-81193587D01*
X131992441Y-81323152D01*
X131992436Y-81323156D01*
X131836556Y-81479036D01*
X131836552Y-81479041D01*
X131706987Y-81657374D01*
X131606904Y-81853793D01*
X131606903Y-81853796D01*
X131538785Y-82063447D01*
X131504300Y-82281178D01*
X131504300Y-82501621D01*
X131538785Y-82719352D01*
X131606903Y-82929003D01*
X131606904Y-82929006D01*
X131706987Y-83125425D01*
X131836552Y-83303758D01*
X131836556Y-83303763D01*
X131992440Y-83459647D01*
X132132479Y-83561390D01*
X132175145Y-83616719D01*
X132181124Y-83686333D01*
X132148519Y-83748128D01*
X132132479Y-83762026D01*
X132107285Y-83780330D01*
X132107285Y-83780332D01*
X132816214Y-84489261D01*
X132731106Y-84512067D01*
X132628494Y-84571310D01*
X132544710Y-84655094D01*
X132485467Y-84757706D01*
X132462661Y-84842814D01*
X131753732Y-84133885D01*
X131753731Y-84133885D01*
X131707416Y-84197633D01*
X131607367Y-84393989D01*
X131539273Y-84603564D01*
X131504800Y-84821218D01*
X131504800Y-85041581D01*
X131539273Y-85259235D01*
X131580618Y-85386482D01*
X131582613Y-85456323D01*
X131546533Y-85516156D01*
X131483832Y-85546984D01*
X131462687Y-85548800D01*
X125056298Y-85548800D01*
X124989259Y-85529115D01*
X124968617Y-85512481D01*
X124690119Y-85233983D01*
X124656634Y-85172660D01*
X124653800Y-85146302D01*
X124653800Y-85031717D01*
X124653799Y-85031702D01*
X124653548Y-85028518D01*
X124650943Y-84995407D01*
X124649559Y-84990644D01*
X124617454Y-84880137D01*
X124605794Y-84840005D01*
X124593389Y-84819030D01*
X124576206Y-84751309D01*
X124593391Y-84692784D01*
X124605332Y-84672594D01*
X124647804Y-84526400D01*
X124341652Y-84526400D01*
X124278533Y-84509132D01*
X124269695Y-84503906D01*
X124269693Y-84503905D01*
X124269689Y-84503903D01*
X124114297Y-84458757D01*
X124114291Y-84458756D01*
X124077997Y-84455900D01*
X124077990Y-84455900D01*
X123608610Y-84455900D01*
X123608602Y-84455900D01*
X123572308Y-84458756D01*
X123572302Y-84458757D01*
X123416910Y-84503903D01*
X123416905Y-84503906D01*
X123408066Y-84509132D01*
X123344948Y-84526400D01*
X123038795Y-84526400D01*
X123024338Y-84545654D01*
X123024334Y-84547170D01*
X122986394Y-84605841D01*
X122930113Y-84633423D01*
X122917910Y-84635899D01*
X122906243Y-84635899D01*
X122869857Y-84645648D01*
X122866115Y-84646408D01*
X122834959Y-84643740D01*
X122803702Y-84642996D01*
X122800433Y-84640783D01*
X122796500Y-84640447D01*
X122771737Y-84621362D01*
X122745839Y-84603834D01*
X122744284Y-84600203D01*
X122741159Y-84597795D01*
X122730645Y-84568352D01*
X122718335Y-84539605D01*
X122718847Y-84535315D01*
X122717662Y-84531995D01*
X122720923Y-84517951D01*
X122725276Y-84481551D01*
X122764091Y-84377483D01*
X122770500Y-84317873D01*
X122770499Y-84026400D01*
X123038796Y-84026400D01*
X123593300Y-84026400D01*
X124093300Y-84026400D01*
X124647804Y-84026400D01*
X124605331Y-83880204D01*
X124523021Y-83741025D01*
X124523014Y-83741016D01*
X124408683Y-83626685D01*
X124408674Y-83626678D01*
X124269495Y-83544368D01*
X124269490Y-83544366D01*
X124114218Y-83499255D01*
X124114212Y-83499254D01*
X124093300Y-83497609D01*
X124093300Y-84026400D01*
X123593300Y-84026400D01*
X123593300Y-83497610D01*
X123593299Y-83497609D01*
X123572387Y-83499254D01*
X123572381Y-83499255D01*
X123417109Y-83544366D01*
X123417104Y-83544368D01*
X123277925Y-83626678D01*
X123277916Y-83626685D01*
X123163585Y-83741016D01*
X123163578Y-83741025D01*
X123081268Y-83880204D01*
X123038796Y-84026400D01*
X122770499Y-84026400D01*
X122770499Y-83820000D01*
X122770499Y-83322129D01*
X122770498Y-83322123D01*
X122770141Y-83318803D01*
X122764091Y-83262517D01*
X122760245Y-83252206D01*
X122713797Y-83127671D01*
X122713793Y-83127664D01*
X122627547Y-83012455D01*
X122627544Y-83012452D01*
X122512335Y-82926206D01*
X122512328Y-82926202D01*
X122377482Y-82875908D01*
X122377483Y-82875908D01*
X122317883Y-82869501D01*
X122317881Y-82869500D01*
X122317873Y-82869500D01*
X122317864Y-82869500D01*
X121522129Y-82869500D01*
X121522123Y-82869501D01*
X121462517Y-82875908D01*
X121412616Y-82894520D01*
X121342925Y-82899503D01*
X121325953Y-82894519D01*
X121277383Y-82876403D01*
X121277372Y-82876401D01*
X121217844Y-82870000D01*
X121070000Y-82870000D01*
X121070000Y-83310826D01*
X121069572Y-83318797D01*
X121069678Y-83318803D01*
X121069500Y-83322123D01*
X121069500Y-83322127D01*
X121069500Y-83696002D01*
X121049817Y-83763039D01*
X120997013Y-83808794D01*
X120945501Y-83820000D01*
X120820000Y-83820000D01*
X120820000Y-83946000D01*
X120800315Y-84013039D01*
X120747511Y-84058794D01*
X120696000Y-84070000D01*
X119970000Y-84070000D01*
X119970000Y-84317844D01*
X119976401Y-84377372D01*
X119976403Y-84377379D01*
X120026645Y-84512086D01*
X120026649Y-84512093D01*
X120112809Y-84627187D01*
X120123806Y-84635419D01*
X120165678Y-84691351D01*
X120170664Y-84761043D01*
X120137180Y-84822367D01*
X120123812Y-84833951D01*
X120112452Y-84842455D01*
X120026206Y-84957664D01*
X120026202Y-84957671D01*
X119975908Y-85092517D01*
X119969501Y-85152116D01*
X119969500Y-85152135D01*
X118499509Y-85152135D01*
X118499509Y-84276221D01*
X118499575Y-84272164D01*
X118502058Y-84196309D01*
X118530675Y-83322155D01*
X119970000Y-83322155D01*
X119970000Y-83570000D01*
X120570000Y-83570000D01*
X120570000Y-82870000D01*
X120422155Y-82870000D01*
X120362627Y-82876401D01*
X120362620Y-82876403D01*
X120227913Y-82926645D01*
X120227906Y-82926649D01*
X120112812Y-83012809D01*
X120112809Y-83012812D01*
X120026649Y-83127906D01*
X120026645Y-83127913D01*
X119976403Y-83262620D01*
X119976401Y-83262627D01*
X119970000Y-83322155D01*
X118530675Y-83322155D01*
X118537368Y-83117718D01*
X118537564Y-83113729D01*
X118613109Y-81961123D01*
X118613441Y-81957087D01*
X118614864Y-81942636D01*
X118726658Y-80807572D01*
X118727109Y-80803654D01*
X118877879Y-79658443D01*
X118878465Y-79654494D01*
X119066629Y-78514798D01*
X119067343Y-78510878D01*
X119292689Y-77377988D01*
X119293520Y-77374138D01*
X119555829Y-76249154D01*
X119556787Y-76245330D01*
X119855756Y-75129562D01*
X119856839Y-75125768D01*
X120192161Y-74020359D01*
X120193373Y-74016588D01*
X120564668Y-72922790D01*
X120566012Y-72919036D01*
X120972886Y-71837997D01*
X120974356Y-71834276D01*
X121416396Y-70767097D01*
X121417975Y-70763453D01*
X121894693Y-69711316D01*
X121896417Y-69707673D01*
X121961472Y-69575756D01*
X122407282Y-68671739D01*
X122409126Y-68668152D01*
X122410834Y-68664958D01*
X122953597Y-67649517D01*
X122955566Y-67645975D01*
X122961954Y-67634910D01*
X123533106Y-66645644D01*
X123535143Y-66642246D01*
X124145116Y-65661330D01*
X124147267Y-65657993D01*
X124789017Y-64697548D01*
X124791281Y-64694277D01*
X125464095Y-63755364D01*
X125466475Y-63752155D01*
X126169676Y-62835728D01*
X126172102Y-62832670D01*
X126904931Y-61939716D01*
X126907473Y-61936719D01*
X127669100Y-61068250D01*
X127671793Y-61065279D01*
X128461395Y-60222230D01*
X128464157Y-60219376D01*
X129280946Y-59402587D01*
X129283800Y-59399825D01*
X130126849Y-58610223D01*
X130129820Y-58607530D01*
X130497383Y-58285186D01*
X137299500Y-58285186D01*
X137299500Y-58554813D01*
X137329686Y-58822719D01*
X137329688Y-58822731D01*
X137389684Y-59085594D01*
X137389687Y-59085602D01*
X137478734Y-59340082D01*
X137595714Y-59582994D01*
X137595716Y-59582997D01*
X137739162Y-59811289D01*
X137907266Y-60022085D01*
X138097915Y-60212734D01*
X138308711Y-60380838D01*
X138537003Y-60524284D01*
X138779921Y-60641267D01*
X138971049Y-60708145D01*
X139034397Y-60730312D01*
X139034405Y-60730315D01*
X139034408Y-60730315D01*
X139034409Y-60730316D01*
X139297268Y-60790312D01*
X139565187Y-60820499D01*
X139565188Y-60820500D01*
X139565191Y-60820500D01*
X139834812Y-60820500D01*
X139834812Y-60820499D01*
X140102732Y-60790312D01*
X140365591Y-60730316D01*
X140620079Y-60641267D01*
X140862997Y-60524284D01*
X141091289Y-60380838D01*
X141302085Y-60212734D01*
X141492734Y-60022085D01*
X141660838Y-59811289D01*
X141804284Y-59582997D01*
X141921267Y-59340079D01*
X142010316Y-59085591D01*
X142070312Y-58822732D01*
X142100500Y-58554809D01*
X142100500Y-58285191D01*
X142070312Y-58017268D01*
X142010316Y-57754409D01*
X141921267Y-57499921D01*
X141804284Y-57257003D01*
X141660838Y-57028711D01*
X141492734Y-56817915D01*
X141302085Y-56627266D01*
X141091289Y-56459162D01*
X140862997Y-56315716D01*
X140862994Y-56315714D01*
X140620082Y-56198734D01*
X140365602Y-56109687D01*
X140365594Y-56109684D01*
X140168446Y-56064687D01*
X140102732Y-56049688D01*
X140102728Y-56049687D01*
X140102719Y-56049686D01*
X139834813Y-56019500D01*
X139834809Y-56019500D01*
X139565191Y-56019500D01*
X139565186Y-56019500D01*
X139297280Y-56049686D01*
X139297268Y-56049688D01*
X139034405Y-56109684D01*
X139034397Y-56109687D01*
X138779917Y-56198734D01*
X138537005Y-56315714D01*
X138308712Y-56459161D01*
X138097915Y-56627265D01*
X137907265Y-56817915D01*
X137739161Y-57028712D01*
X137595714Y-57257005D01*
X137478734Y-57499917D01*
X137389687Y-57754397D01*
X137389684Y-57754405D01*
X137329688Y-58017268D01*
X137329686Y-58017280D01*
X137299500Y-58285186D01*
X130497383Y-58285186D01*
X130998289Y-57845903D01*
X131001286Y-57843361D01*
X131894240Y-57110532D01*
X131897298Y-57108106D01*
X132813725Y-56404905D01*
X132816934Y-56402525D01*
X133755847Y-55729711D01*
X133759118Y-55727447D01*
X134719563Y-55085697D01*
X134722900Y-55083546D01*
X135703816Y-54473573D01*
X135707214Y-54471536D01*
X136707549Y-53893993D01*
X136711092Y-53892025D01*
X137729743Y-53347544D01*
X137733309Y-53345712D01*
X138769267Y-52834835D01*
X138772886Y-52833123D01*
X139825023Y-52356405D01*
X139828667Y-52354826D01*
X140895846Y-51912786D01*
X140899567Y-51911316D01*
X141980606Y-51504442D01*
X141984360Y-51503098D01*
X143078158Y-51131803D01*
X143081929Y-51130591D01*
X144187338Y-50795269D01*
X144191132Y-50794186D01*
X145306900Y-50495217D01*
X145310724Y-50494259D01*
X146435708Y-50231950D01*
X146439558Y-50231119D01*
X147572448Y-50005773D01*
X147576368Y-50005059D01*
X148716064Y-49816895D01*
X148720013Y-49816309D01*
X149865224Y-49665539D01*
X149869142Y-49665088D01*
X151018665Y-49551870D01*
X151022693Y-49551539D01*
X152175299Y-49475994D01*
X152179288Y-49475798D01*
X153333735Y-49438005D01*
X153337792Y-49437939D01*
X154492792Y-49437939D01*
X154496849Y-49438005D01*
G37*
%TD.AperFunction*%
%TA.AperFunction,Conductor*%
G36*
X173095072Y-87184275D02*
G01*
X173151005Y-87226147D01*
X173165271Y-87254292D01*
X173166532Y-87253770D01*
X173229202Y-87405072D01*
X173229209Y-87405085D01*
X173316810Y-87536188D01*
X173316813Y-87536192D01*
X173428307Y-87647686D01*
X173428311Y-87647689D01*
X173559414Y-87735290D01*
X173559427Y-87735297D01*
X173704830Y-87795524D01*
X173705103Y-87795637D01*
X173841710Y-87822810D01*
X173903621Y-87855195D01*
X173905200Y-87856746D01*
X174614050Y-88565596D01*
X174647535Y-88626919D01*
X174642551Y-88696611D01*
X174614050Y-88740958D01*
X174547208Y-88807800D01*
X174614050Y-88874642D01*
X174647535Y-88935965D01*
X174642551Y-89005657D01*
X174614050Y-89050004D01*
X174256254Y-89407800D01*
X174268379Y-89419925D01*
X174301864Y-89481248D01*
X174296880Y-89550940D01*
X174287431Y-89570726D01*
X174250954Y-89632405D01*
X174250954Y-89632406D01*
X174203334Y-89796315D01*
X174201843Y-89795882D01*
X174173917Y-89851353D01*
X174113747Y-89886867D01*
X174043927Y-89884213D01*
X173995676Y-89854330D01*
X173902700Y-89761354D01*
X173656254Y-90007800D01*
X173902700Y-90254246D01*
X173990519Y-90166427D01*
X174051842Y-90132942D01*
X174121534Y-90137926D01*
X174177467Y-90179798D01*
X174201884Y-90245262D01*
X174202200Y-90254108D01*
X174202200Y-90258501D01*
X174205101Y-90295367D01*
X174205102Y-90295373D01*
X174250954Y-90453193D01*
X174250954Y-90453194D01*
X174250955Y-90453196D01*
X174250956Y-90453198D01*
X174261415Y-90470884D01*
X174261417Y-90470886D01*
X174268419Y-90498488D01*
X174278368Y-90525160D01*
X174276899Y-90531910D01*
X174278599Y-90538610D01*
X174269567Y-90565613D01*
X174263516Y-90593433D01*
X174257637Y-90601285D01*
X174256438Y-90604872D01*
X174242365Y-90621687D01*
X174167157Y-90696895D01*
X174105834Y-90730380D01*
X174036142Y-90725396D01*
X173991795Y-90696895D01*
X173973410Y-90678510D01*
X173987476Y-90664445D01*
X174002700Y-90627691D01*
X174002700Y-90587909D01*
X173987476Y-90551155D01*
X173959345Y-90523024D01*
X173922591Y-90507800D01*
X173882809Y-90507800D01*
X173846055Y-90523024D01*
X173817924Y-90551155D01*
X173802700Y-90587909D01*
X173802700Y-90627691D01*
X173817924Y-90664445D01*
X173831989Y-90678510D01*
X173813604Y-90696896D01*
X173752281Y-90730381D01*
X173682589Y-90725397D01*
X173638242Y-90696896D01*
X173224768Y-90283422D01*
X173180629Y-90283422D01*
X172767157Y-90696895D01*
X172705834Y-90730380D01*
X172636142Y-90725396D01*
X172591795Y-90696895D01*
X172573410Y-90678510D01*
X172587476Y-90664445D01*
X172602700Y-90627691D01*
X172602700Y-90587909D01*
X172587476Y-90551155D01*
X172559345Y-90523024D01*
X172522591Y-90507800D01*
X172482809Y-90507800D01*
X172446055Y-90523024D01*
X172417924Y-90551155D01*
X172402700Y-90587909D01*
X172402700Y-90627691D01*
X172417924Y-90664445D01*
X172431989Y-90678510D01*
X172413604Y-90696896D01*
X172405658Y-90701234D01*
X172400233Y-90708482D01*
X172375473Y-90717716D01*
X172352281Y-90730381D01*
X172343251Y-90729735D01*
X172334769Y-90732899D01*
X172308948Y-90727282D01*
X172282589Y-90725397D01*
X172273535Y-90719578D01*
X172266496Y-90718047D01*
X172238242Y-90696896D01*
X172163034Y-90621688D01*
X172129549Y-90560365D01*
X172134533Y-90490673D01*
X172143983Y-90470886D01*
X172154444Y-90453198D01*
X172200298Y-90295369D01*
X172203200Y-90258494D01*
X172203200Y-90254108D01*
X172222885Y-90187069D01*
X172275689Y-90141314D01*
X172344847Y-90131370D01*
X172408403Y-90160395D01*
X172414881Y-90166427D01*
X172502700Y-90254246D01*
X172749146Y-90007800D01*
X172502700Y-89761354D01*
X172409723Y-89854331D01*
X172348400Y-89887815D01*
X172278708Y-89882831D01*
X172222775Y-89840959D01*
X172203148Y-89796000D01*
X172202066Y-89796315D01*
X172154445Y-89632406D01*
X172154444Y-89632403D01*
X172154444Y-89632402D01*
X172117968Y-89570725D01*
X172100786Y-89503004D01*
X172106617Y-89469763D01*
X172132823Y-89387988D01*
X172132780Y-89387909D01*
X172402700Y-89387909D01*
X172402700Y-89427691D01*
X172417924Y-89464445D01*
X172446055Y-89492576D01*
X172482809Y-89507800D01*
X172522591Y-89507800D01*
X172559345Y-89492576D01*
X172587476Y-89464445D01*
X172602700Y-89427691D01*
X172602700Y-89407799D01*
X172856254Y-89407799D01*
X172856254Y-89407801D01*
X173180629Y-89732176D01*
X173224769Y-89732176D01*
X173549146Y-89407800D01*
X173529255Y-89387909D01*
X173802700Y-89387909D01*
X173802700Y-89427691D01*
X173817924Y-89464445D01*
X173846055Y-89492576D01*
X173882809Y-89507800D01*
X173922591Y-89507800D01*
X173959345Y-89492576D01*
X173987476Y-89464445D01*
X174002700Y-89427691D01*
X174002700Y-89387909D01*
X173987476Y-89351155D01*
X173959345Y-89323024D01*
X173922591Y-89307800D01*
X173882809Y-89307800D01*
X173846055Y-89323024D01*
X173817924Y-89351155D01*
X173802700Y-89387909D01*
X173529255Y-89387909D01*
X173224768Y-89083422D01*
X173180630Y-89083422D01*
X172856254Y-89407799D01*
X172602700Y-89407799D01*
X172602700Y-89387909D01*
X172587476Y-89351155D01*
X172559345Y-89323024D01*
X172522591Y-89307800D01*
X172482809Y-89307800D01*
X172446055Y-89323024D01*
X172417924Y-89351155D01*
X172402700Y-89387909D01*
X172132780Y-89387909D01*
X172103535Y-89334351D01*
X172108519Y-89264659D01*
X172117966Y-89244878D01*
X172154444Y-89183198D01*
X172183432Y-89083422D01*
X172202066Y-89019285D01*
X172203560Y-89019719D01*
X172231462Y-88964267D01*
X172291625Y-88928739D01*
X172361444Y-88931377D01*
X172409723Y-88961269D01*
X172502700Y-89054246D01*
X172749146Y-88807800D01*
X173656254Y-88807800D01*
X173902700Y-89054246D01*
X174149146Y-88807800D01*
X173902700Y-88561354D01*
X173656254Y-88807800D01*
X172749146Y-88807800D01*
X172502700Y-88561354D01*
X172414881Y-88649173D01*
X172353558Y-88682658D01*
X172283866Y-88677674D01*
X172227933Y-88635802D01*
X172203516Y-88570338D01*
X172203200Y-88561492D01*
X172203200Y-88557113D01*
X172203199Y-88557098D01*
X172200298Y-88520232D01*
X172200297Y-88520226D01*
X172154445Y-88362406D01*
X172154445Y-88362405D01*
X172154444Y-88362404D01*
X172154444Y-88362402D01*
X172143982Y-88344712D01*
X172136979Y-88317114D01*
X172127030Y-88290437D01*
X172128498Y-88283687D01*
X172126799Y-88276991D01*
X172135829Y-88249986D01*
X172141882Y-88222164D01*
X172147759Y-88214313D01*
X172148958Y-88210728D01*
X172163033Y-88193910D01*
X172169034Y-88187909D01*
X172402700Y-88187909D01*
X172402700Y-88227691D01*
X172417924Y-88264445D01*
X172446055Y-88292576D01*
X172482809Y-88307800D01*
X172522591Y-88307800D01*
X172559345Y-88292576D01*
X172587476Y-88264445D01*
X172602700Y-88227691D01*
X172602700Y-88207799D01*
X172856254Y-88207799D01*
X172856254Y-88207801D01*
X173180629Y-88532176D01*
X173224769Y-88532176D01*
X173549146Y-88207800D01*
X173529255Y-88187909D01*
X173802700Y-88187909D01*
X173802700Y-88227691D01*
X173817924Y-88264445D01*
X173846055Y-88292576D01*
X173882809Y-88307800D01*
X173922591Y-88307800D01*
X173959345Y-88292576D01*
X173987476Y-88264445D01*
X174002700Y-88227691D01*
X174002700Y-88187909D01*
X173987476Y-88151155D01*
X173959345Y-88123024D01*
X173922591Y-88107800D01*
X173882809Y-88107800D01*
X173846055Y-88123024D01*
X173817924Y-88151155D01*
X173802700Y-88187909D01*
X173529255Y-88187909D01*
X173224768Y-87883422D01*
X173180630Y-87883422D01*
X172856254Y-88207799D01*
X172602700Y-88207799D01*
X172602700Y-88187909D01*
X172587476Y-88151155D01*
X172559345Y-88123024D01*
X172522591Y-88107800D01*
X172482809Y-88107800D01*
X172446055Y-88123024D01*
X172417924Y-88151155D01*
X172402700Y-88187909D01*
X172169034Y-88187909D01*
X172288189Y-88068756D01*
X172288191Y-88068754D01*
X172325923Y-88031023D01*
X172826724Y-87530221D01*
X172822936Y-87511177D01*
X172819004Y-87508234D01*
X172818201Y-87506083D01*
X172816413Y-87504642D01*
X172806048Y-87473499D01*
X172794587Y-87442770D01*
X172795075Y-87440526D01*
X172794350Y-87438348D01*
X172802465Y-87406553D01*
X172809439Y-87374497D01*
X172811273Y-87372046D01*
X172811630Y-87370649D01*
X172830584Y-87346250D01*
X172964060Y-87212773D01*
X173025380Y-87179291D01*
X173095072Y-87184275D01*
G37*
%TD.AperFunction*%
%TA.AperFunction,Conductor*%
G36*
X178330456Y-82659085D02*
G01*
X178376211Y-82711889D01*
X178386155Y-82781047D01*
X178382493Y-82797995D01*
X178360035Y-82875291D01*
X178360034Y-82875297D01*
X178357200Y-82911311D01*
X178357200Y-83409669D01*
X178357201Y-83409691D01*
X178360035Y-83445705D01*
X178404829Y-83599888D01*
X178404831Y-83599893D01*
X178486563Y-83738095D01*
X178486569Y-83738103D01*
X178600096Y-83851630D01*
X178600100Y-83851633D01*
X178600102Y-83851635D01*
X178738307Y-83933369D01*
X178772280Y-83943239D01*
X178892491Y-83978164D01*
X178892494Y-83978164D01*
X178892496Y-83978165D01*
X178928519Y-83981000D01*
X179326880Y-83980999D01*
X179362904Y-83978165D01*
X179517093Y-83933369D01*
X179575069Y-83899081D01*
X179642793Y-83881898D01*
X179701312Y-83899081D01*
X179758505Y-83932904D01*
X179897700Y-83973344D01*
X179897700Y-83420908D01*
X179897701Y-83420433D01*
X179897718Y-83415795D01*
X179898200Y-83409681D01*
X179898199Y-83290305D01*
X179898200Y-83290123D01*
X179908096Y-83256891D01*
X179917883Y-83223559D01*
X179918103Y-83223285D01*
X179918141Y-83223160D01*
X179918348Y-83222981D01*
X179934525Y-83202910D01*
X179940624Y-83196812D01*
X179962976Y-83184608D01*
X179971120Y-83177607D01*
X179977414Y-83176726D01*
X180001950Y-83163332D01*
X180028298Y-83160500D01*
X180198803Y-83160500D01*
X180265842Y-83180185D01*
X180286484Y-83196819D01*
X180361381Y-83271716D01*
X180394866Y-83333039D01*
X180397700Y-83359397D01*
X180397700Y-83973344D01*
X180399821Y-83974937D01*
X180441612Y-84030930D01*
X180446498Y-84100629D01*
X180412925Y-84161904D01*
X180387451Y-84180769D01*
X180387486Y-84180821D01*
X180386418Y-84181534D01*
X180383825Y-84183455D01*
X180382419Y-84184206D01*
X180251311Y-84271810D01*
X180251309Y-84271812D01*
X180139813Y-84383307D01*
X180139810Y-84383311D01*
X180052209Y-84514414D01*
X180052202Y-84514427D01*
X179991864Y-84660098D01*
X179991861Y-84660110D01*
X179960626Y-84817132D01*
X179960742Y-84817853D01*
X179960268Y-84818933D01*
X179959911Y-84820732D01*
X179959515Y-84820653D01*
X179947419Y-84848268D01*
X179934988Y-84879056D01*
X179933460Y-84880137D01*
X179932709Y-84881852D01*
X179905065Y-84900230D01*
X179877955Y-84919416D01*
X179875587Y-84919829D01*
X179874525Y-84920536D01*
X179851784Y-84923986D01*
X179839673Y-84926101D01*
X179838708Y-84926116D01*
X179697594Y-84926116D01*
X179688900Y-84928445D01*
X179673558Y-84928684D01*
X179672973Y-84928522D01*
X179671630Y-84928699D01*
X179654043Y-84928699D01*
X179579456Y-84948685D01*
X179501314Y-84969623D01*
X179501309Y-84969626D01*
X179364390Y-85048675D01*
X179364386Y-85048678D01*
X179118481Y-85294582D01*
X179057158Y-85328066D01*
X179030801Y-85330900D01*
X178911731Y-85330900D01*
X178911707Y-85330901D01*
X178875694Y-85333735D01*
X178721511Y-85378529D01*
X178721506Y-85378531D01*
X178583304Y-85460263D01*
X178583296Y-85460269D01*
X178469769Y-85573796D01*
X178469763Y-85573804D01*
X178388031Y-85712006D01*
X178388029Y-85712011D01*
X178343235Y-85866191D01*
X178343234Y-85866197D01*
X178340400Y-85902211D01*
X178340400Y-86400569D01*
X178340401Y-86400591D01*
X178343235Y-86436605D01*
X178388029Y-86590788D01*
X178388031Y-86590793D01*
X178469763Y-86728995D01*
X178469769Y-86729003D01*
X178505585Y-86764819D01*
X178539070Y-86826142D01*
X178534086Y-86895834D01*
X178492214Y-86951767D01*
X178426750Y-86976184D01*
X178417904Y-86976500D01*
X177846597Y-86976500D01*
X177779558Y-86956815D01*
X177758916Y-86940181D01*
X177211819Y-86393084D01*
X177178334Y-86331761D01*
X177175500Y-86305403D01*
X177175500Y-82763400D01*
X177195185Y-82696361D01*
X177247989Y-82650606D01*
X177299500Y-82639400D01*
X178263417Y-82639400D01*
X178330456Y-82659085D01*
G37*
%TD.AperFunction*%
%TA.AperFunction,Conductor*%
G36*
X181680724Y-80855887D02*
G01*
X181717911Y-80881460D01*
X182280394Y-81443943D01*
X182313879Y-81505266D01*
X182308895Y-81574958D01*
X182280394Y-81619305D01*
X182228119Y-81671580D01*
X182166796Y-81705065D01*
X182140438Y-81707899D01*
X181888608Y-81707899D01*
X181821569Y-81688214D01*
X181800927Y-81671580D01*
X181571789Y-81442442D01*
X181538304Y-81381119D01*
X181537853Y-81330568D01*
X181541200Y-81313742D01*
X181541200Y-81156055D01*
X181541199Y-81156053D01*
X181509249Y-80995428D01*
X181511480Y-80994984D01*
X181510943Y-80935279D01*
X181548187Y-80876163D01*
X181611478Y-80846567D01*
X181680724Y-80855887D01*
G37*
%TD.AperFunction*%
%TA.AperFunction,Conductor*%
G36*
X172879102Y-68166213D02*
G01*
X172903763Y-68165422D01*
X172913087Y-68171000D01*
X172923849Y-68172516D01*
X172942544Y-68188622D01*
X172963722Y-68201291D01*
X172973172Y-68215007D01*
X172976784Y-68218119D01*
X172980576Y-68224785D01*
X172982392Y-68227625D01*
X173101630Y-68375964D01*
X173170884Y-68431631D01*
X173210803Y-68488975D01*
X173213383Y-68558797D01*
X173177805Y-68618929D01*
X173170885Y-68624926D01*
X173151996Y-68640110D01*
X173101581Y-68680635D01*
X173101276Y-68680880D01*
X173013947Y-68789522D01*
X172956604Y-68829441D01*
X172886782Y-68832021D01*
X172826649Y-68796442D01*
X172795297Y-68734001D01*
X172793300Y-68711835D01*
X172793300Y-68640117D01*
X172793299Y-68640102D01*
X172790443Y-68603808D01*
X172790442Y-68603802D01*
X172745295Y-68448409D01*
X172745294Y-68448405D01*
X172732889Y-68427430D01*
X172715706Y-68359709D01*
X172732891Y-68301184D01*
X172744832Y-68280993D01*
X172753585Y-68250865D01*
X172766867Y-68230065D01*
X172776393Y-68207303D01*
X172785340Y-68201138D01*
X172791190Y-68191979D01*
X172813610Y-68181661D01*
X172833929Y-68167663D01*
X172844788Y-68167314D01*
X172854662Y-68162771D01*
X172879102Y-68166213D01*
G37*
%TD.AperFunction*%
%TD*%
M02*
