%TF.GenerationSoftware,KiCad,Pcbnew,9.0.2*%
%TF.CreationDate,2025-06-14T23:39:35+05:30*%
%TF.ProjectId,ir hub,69722068-7562-42e6-9b69-6361645f7063,rev?*%
%TF.SameCoordinates,Original*%
%TF.FileFunction,Paste,Top*%
%TF.FilePolarity,Positive*%
%FSLAX46Y46*%
G04 Gerber Fmt 4.6, Leading zero omitted, Abs format (unit mm)*
G04 Created by KiCad (PCBNEW 9.0.2) date 2025-06-14 23:39:35*
%MOMM*%
%LPD*%
G01*
G04 APERTURE LIST*
G04 Aperture macros list*
%AMRoundRect*
0 Rectangle with rounded corners*
0 $1 Rounding radius*
0 $2 $3 $4 $5 $6 $7 $8 $9 X,Y pos of 4 corners*
0 Add a 4 corners polygon primitive as box body*
4,1,4,$2,$3,$4,$5,$6,$7,$8,$9,$2,$3,0*
0 Add four circle primitives for the rounded corners*
1,1,$1+$1,$2,$3*
1,1,$1+$1,$4,$5*
1,1,$1+$1,$6,$7*
1,1,$1+$1,$8,$9*
0 Add four rect primitives between the rounded corners*
20,1,$1+$1,$2,$3,$4,$5,0*
20,1,$1+$1,$4,$5,$6,$7,0*
20,1,$1+$1,$6,$7,$8,$9,0*
20,1,$1+$1,$8,$9,$2,$3,0*%
G04 Aperture macros list end*
%ADD10RoundRect,0.135000X0.185000X-0.135000X0.185000X0.135000X-0.185000X0.135000X-0.185000X-0.135000X0*%
%ADD11RoundRect,0.140000X0.170000X-0.140000X0.170000X0.140000X-0.170000X0.140000X-0.170000X-0.140000X0*%
%ADD12RoundRect,0.135000X-0.135000X-0.185000X0.135000X-0.185000X0.135000X0.185000X-0.135000X0.185000X0*%
%ADD13RoundRect,0.140000X-0.170000X0.140000X-0.170000X-0.140000X0.170000X-0.140000X0.170000X0.140000X0*%
%ADD14RoundRect,0.250000X0.475000X-0.250000X0.475000X0.250000X-0.475000X0.250000X-0.475000X-0.250000X0*%
%ADD15RoundRect,0.135000X0.135000X0.185000X-0.135000X0.185000X-0.135000X-0.185000X0.135000X-0.185000X0*%
%ADD16RoundRect,0.250000X-0.475000X0.250000X-0.475000X-0.250000X0.475000X-0.250000X0.475000X0.250000X0*%
%ADD17RoundRect,0.150000X0.425000X-0.150000X0.425000X0.150000X-0.425000X0.150000X-0.425000X-0.150000X0*%
%ADD18RoundRect,0.075000X0.500000X-0.075000X0.500000X0.075000X-0.500000X0.075000X-0.500000X-0.075000X0*%
%ADD19RoundRect,0.250000X0.750000X-0.840000X0.750000X0.840000X-0.750000X0.840000X-0.750000X-0.840000X0*%
%ADD20RoundRect,0.079500X-0.079500X-0.100500X0.079500X-0.100500X0.079500X0.100500X-0.079500X0.100500X0*%
%ADD21RoundRect,0.250000X-1.000000X-0.650000X1.000000X-0.650000X1.000000X0.650000X-1.000000X0.650000X0*%
%ADD22R,0.700000X0.900000*%
%ADD23RoundRect,0.250000X0.255000X0.440000X-0.255000X0.440000X-0.255000X-0.440000X0.255000X-0.440000X0*%
%ADD24RoundRect,0.150000X0.825000X0.150000X-0.825000X0.150000X-0.825000X-0.150000X0.825000X-0.150000X0*%
%ADD25RoundRect,0.375000X-0.625000X-0.375000X0.625000X-0.375000X0.625000X0.375000X-0.625000X0.375000X0*%
%ADD26RoundRect,0.500000X-0.500000X-1.400000X0.500000X-1.400000X0.500000X1.400000X-0.500000X1.400000X0*%
G04 APERTURE END LIST*
D10*
%TO.C,R4*%
X167319600Y-91059200D03*
X167319600Y-90039200D03*
%TD*%
D11*
%TO.C,C5*%
X123843300Y-85236400D03*
X123843300Y-84276400D03*
%TD*%
D12*
%TO.C,R2*%
X179110900Y-86151400D03*
X180130900Y-86151400D03*
%TD*%
D13*
%TO.C,C3*%
X175925300Y-74243200D03*
X175925300Y-75203200D03*
%TD*%
D14*
%TO.C,C4*%
X170385100Y-68857100D03*
X170385100Y-66957100D03*
%TD*%
D12*
%TO.C,R3*%
X179127700Y-83160500D03*
X180147700Y-83160500D03*
%TD*%
D15*
%TO.C,R6*%
X180127100Y-90034500D03*
X179107100Y-90034500D03*
%TD*%
D16*
%TO.C,C2*%
X174293400Y-74568400D03*
X174293400Y-76468400D03*
%TD*%
D17*
%TO.C,J1*%
X182191300Y-88108400D03*
X182191300Y-87308400D03*
D18*
X182191301Y-86158400D03*
X182191299Y-85158401D03*
X182191299Y-84658399D03*
X182191300Y-83658399D03*
D17*
X182191299Y-82508399D03*
X182191299Y-81708400D03*
X182191299Y-81708400D03*
X182191299Y-82508399D03*
D18*
X182191300Y-83158400D03*
X182191301Y-84158400D03*
X182191300Y-85658400D03*
X182191301Y-86658400D03*
D17*
X182191300Y-87308400D03*
X182191300Y-88108400D03*
D19*
X186696299Y-90018401D03*
X182766300Y-90018399D03*
X182766300Y-79798400D03*
X186696300Y-79798400D03*
%TD*%
D20*
%TO.C,D1*%
X170066800Y-92866100D03*
X170756800Y-92866100D03*
%TD*%
D21*
%TO.C,D3*%
X170999100Y-84328500D03*
X174999100Y-84328500D03*
%TD*%
D22*
%TO.C,D4*%
X121920000Y-83820000D03*
X120820000Y-83820000D03*
X120820000Y-85650000D03*
X121920000Y-85650000D03*
%TD*%
D23*
%TO.C,U3*%
X173802700Y-90232800D03*
X173802700Y-88582800D03*
X172602700Y-90232800D03*
X172602700Y-88582800D03*
D24*
X175677700Y-91312800D03*
X175677700Y-90042800D03*
X175677700Y-88772800D03*
X175677700Y-87502800D03*
X170727700Y-87502800D03*
X170727700Y-88772800D03*
X170727700Y-90042800D03*
X170727700Y-91312800D03*
%TD*%
D25*
%TO.C,U4*%
X174349000Y-67378600D03*
X174349000Y-69678600D03*
D26*
X180649000Y-69678600D03*
D25*
X174349000Y-71978600D03*
%TD*%
D12*
%TO.C,R7*%
X120819900Y-87361700D03*
X121839900Y-87361700D03*
%TD*%
D11*
%TO.C,C6*%
X171982800Y-68844800D03*
X171982800Y-67884800D03*
%TD*%
D21*
%TO.C,D2*%
X171004100Y-80810700D03*
X175004100Y-80810700D03*
%TD*%
M02*
