%TF.GenerationSoftware,KiCad,Pcbnew,9.0.2*%
%TF.CreationDate,2025-06-14T23:39:35+05:30*%
%TF.ProjectId,ir hub,69722068-7562-42e6-9b69-6361645f7063,rev?*%
%TF.SameCoordinates,Original*%
%TF.FileFunction,Soldermask,Top*%
%TF.FilePolarity,Negative*%
%FSLAX46Y46*%
G04 Gerber Fmt 4.6, Leading zero omitted, Abs format (unit mm)*
G04 Created by KiCad (PCBNEW 9.0.2) date 2025-06-14 23:39:35*
%MOMM*%
%LPD*%
G01*
G04 APERTURE LIST*
G04 Aperture macros list*
%AMRoundRect*
0 Rectangle with rounded corners*
0 $1 Rounding radius*
0 $2 $3 $4 $5 $6 $7 $8 $9 X,Y pos of 4 corners*
0 Add a 4 corners polygon primitive as box body*
4,1,4,$2,$3,$4,$5,$6,$7,$8,$9,$2,$3,0*
0 Add four circle primitives for the rounded corners*
1,1,$1+$1,$2,$3*
1,1,$1+$1,$4,$5*
1,1,$1+$1,$6,$7*
1,1,$1+$1,$8,$9*
0 Add four rect primitives between the rounded corners*
20,1,$1+$1,$2,$3,$4,$5,0*
20,1,$1+$1,$4,$5,$6,$7,0*
20,1,$1+$1,$6,$7,$8,$9,0*
20,1,$1+$1,$8,$9,$2,$3,0*%
%AMRotRect*
0 Rectangle, with rotation*
0 The origin of the aperture is its center*
0 $1 length*
0 $2 width*
0 $3 Rotation angle, in degrees counterclockwise*
0 Add horizontal line*
21,1,$1,$2,0,0,$3*%
%AMFreePoly0*
4,1,23,0.500000,-0.750000,0.000000,-0.750000,0.000000,-0.745722,-0.065263,-0.745722,-0.191342,-0.711940,-0.304381,-0.646677,-0.396677,-0.554381,-0.461940,-0.441342,-0.495722,-0.315263,-0.495722,-0.250000,-0.500000,-0.250000,-0.500000,0.250000,-0.495722,0.250000,-0.495722,0.315263,-0.461940,0.441342,-0.396677,0.554381,-0.304381,0.646677,-0.191342,0.711940,-0.065263,0.745722,0.000000,0.745722,
0.000000,0.750000,0.500000,0.750000,0.500000,-0.750000,0.500000,-0.750000,$1*%
%AMFreePoly1*
4,1,23,0.000000,0.745722,0.065263,0.745722,0.191342,0.711940,0.304381,0.646677,0.396677,0.554381,0.461940,0.441342,0.495722,0.315263,0.495722,0.250000,0.500000,0.250000,0.500000,-0.250000,0.495722,-0.250000,0.495722,-0.315263,0.461940,-0.441342,0.396677,-0.554381,0.304381,-0.646677,0.191342,-0.711940,0.065263,-0.745722,0.000000,-0.745722,0.000000,-0.750000,-0.500000,-0.750000,
-0.500000,0.750000,0.000000,0.750000,0.000000,0.745722,0.000000,0.745722,$1*%
G04 Aperture macros list end*
%ADD10RotRect,1.800000X1.800000X70.000000*%
%ADD11C,1.800000*%
%ADD12RotRect,1.800000X1.800000X150.000000*%
%ADD13R,1.800000X1.800000*%
%ADD14RoundRect,0.250000X-0.350000X-0.625000X0.350000X-0.625000X0.350000X0.625000X-0.350000X0.625000X0*%
%ADD15O,1.200000X1.750000*%
%ADD16C,3.800000*%
%ADD17RoundRect,0.135000X0.185000X-0.135000X0.185000X0.135000X-0.185000X0.135000X-0.185000X-0.135000X0*%
%ADD18RotRect,1.800000X1.800000X30.000000*%
%ADD19RotRect,1.800000X1.800000X110.000000*%
%ADD20RoundRect,0.140000X0.170000X-0.140000X0.170000X0.140000X-0.170000X0.140000X-0.170000X-0.140000X0*%
%ADD21RoundRect,0.135000X-0.135000X-0.185000X0.135000X-0.185000X0.135000X0.185000X-0.135000X0.185000X0*%
%ADD22RoundRect,0.140000X-0.170000X0.140000X-0.170000X-0.140000X0.170000X-0.140000X0.170000X0.140000X0*%
%ADD23RoundRect,0.250000X0.475000X-0.250000X0.475000X0.250000X-0.475000X0.250000X-0.475000X-0.250000X0*%
%ADD24RotRect,1.800000X1.800000X230.000000*%
%ADD25RoundRect,0.135000X0.135000X0.185000X-0.135000X0.185000X-0.135000X-0.185000X0.135000X-0.185000X0*%
%ADD26RotRect,1.800000X1.800000X310.000000*%
%ADD27RoundRect,0.250000X-0.475000X0.250000X-0.475000X-0.250000X0.475000X-0.250000X0.475000X0.250000X0*%
%ADD28C,2.100000*%
%ADD29C,1.750000*%
%ADD30RoundRect,0.250200X0.649800X-0.649800X0.649800X0.649800X-0.649800X0.649800X-0.649800X-0.649800X0*%
%ADD31C,0.650000*%
%ADD32RoundRect,0.150000X0.425000X-0.150000X0.425000X0.150000X-0.425000X0.150000X-0.425000X-0.150000X0*%
%ADD33RoundRect,0.075000X0.500000X-0.075000X0.500000X0.075000X-0.500000X0.075000X-0.500000X-0.075000X0*%
%ADD34RoundRect,0.250000X0.750000X-0.840000X0.750000X0.840000X-0.750000X0.840000X-0.750000X-0.840000X0*%
%ADD35RoundRect,0.100000X-0.130000X-0.100000X0.130000X-0.100000X0.130000X0.100000X-0.130000X0.100000X0*%
%ADD36RoundRect,0.250000X-1.000000X-0.650000X1.000000X-0.650000X1.000000X0.650000X-1.000000X0.650000X0*%
%ADD37R,0.700000X0.900000*%
%ADD38RoundRect,0.150000X0.825000X0.150000X-0.825000X0.150000X-0.825000X-0.150000X0.825000X-0.150000X0*%
%ADD39R,2.410000X3.300000*%
%ADD40RotRect,1.800000X1.800000X190.000000*%
%ADD41RoundRect,0.375000X-0.625000X-0.375000X0.625000X-0.375000X0.625000X0.375000X-0.625000X0.375000X0*%
%ADD42RoundRect,0.500000X-0.500000X-1.400000X0.500000X-1.400000X0.500000X1.400000X-0.500000X1.400000X0*%
%ADD43RotRect,1.800000X1.800000X350.000000*%
%ADD44FreePoly0,180.000000*%
%ADD45FreePoly1,180.000000*%
%ADD46R,1.050000X1.500000*%
%ADD47O,1.050000X1.500000*%
G04 APERTURE END LIST*
%TO.C,En_Boot*%
G36*
X135678300Y-61207500D02*
G01*
X135378300Y-61207500D01*
X135378300Y-59707500D01*
X135678300Y-59707500D01*
X135678300Y-61207500D01*
G37*
%TD*%
D10*
%TO.C,D10*%
X150594500Y-94038800D03*
D11*
X151463231Y-91651981D03*
%TD*%
D12*
%TO.C,D12*%
X162754600Y-89612900D03*
D11*
X160554895Y-88342900D03*
%TD*%
D13*
%TO.C,D14*%
X153199600Y-84596000D03*
D11*
X155739600Y-84596000D03*
%TD*%
D14*
%TO.C,J2*%
X150879900Y-116271700D03*
D15*
X152879900Y-116271700D03*
X154879900Y-116271700D03*
X156879900Y-116271700D03*
%TD*%
D16*
%TO.C,*%
X183550650Y-75236419D03*
%TD*%
D17*
%TO.C,R4*%
X167319600Y-91059200D03*
X167319600Y-90039200D03*
%TD*%
D18*
%TO.C,D9*%
X145319800Y-89612900D03*
D11*
X147519505Y-88342900D03*
%TD*%
D19*
%TO.C,D11*%
X157480000Y-94038800D03*
D11*
X156611269Y-91651981D03*
%TD*%
D20*
%TO.C,C5*%
X123843300Y-85236400D03*
X123843300Y-84276400D03*
%TD*%
D21*
%TO.C,R2*%
X179110900Y-86151400D03*
X180130900Y-86151400D03*
%TD*%
D22*
%TO.C,C3*%
X175925300Y-74243200D03*
X175925300Y-75203200D03*
%TD*%
D16*
%TO.C,*%
X139700000Y-58420000D03*
%TD*%
D23*
%TO.C,C4*%
X170385100Y-68857100D03*
X170385100Y-66957100D03*
%TD*%
D16*
%TO.C,*%
X137101413Y-96302615D03*
%TD*%
D21*
%TO.C,R3*%
X179127700Y-83160500D03*
X180147700Y-83160500D03*
%TD*%
D24*
%TO.C,D5*%
X160507500Y-76868900D03*
D11*
X158874819Y-78814653D03*
%TD*%
D13*
%TO.C,D6*%
X154037200Y-74513900D03*
D11*
X154037200Y-77053900D03*
%TD*%
D25*
%TO.C,R6*%
X180127100Y-90034500D03*
X179107100Y-90034500D03*
%TD*%
D26*
%TO.C,D7*%
X147566900Y-76868900D03*
D11*
X149199581Y-78814653D03*
%TD*%
D27*
%TO.C,C2*%
X174293400Y-74568400D03*
X174293400Y-76468400D03*
%TD*%
D28*
%TO.C,SW1*%
X179530034Y-101476503D03*
X175024092Y-106846476D03*
D29*
X180634000Y-104034600D03*
X177741456Y-107481800D03*
%TD*%
D16*
%TO.C,REF\u002A\u002A*%
X167640000Y-109220000D03*
%TD*%
D30*
%TO.C,U1*%
X132904800Y-87471400D03*
D11*
X132904800Y-84931400D03*
X132904800Y-82391400D03*
%TD*%
D31*
%TO.C,J1*%
X183266299Y-87798401D03*
X183266299Y-82018400D03*
D32*
X182191300Y-88108400D03*
X182191300Y-87308400D03*
D33*
X182191301Y-86158400D03*
X182191299Y-85158401D03*
X182191299Y-84658399D03*
X182191300Y-83658399D03*
D32*
X182191299Y-82508399D03*
X182191299Y-81708400D03*
X182191299Y-81708400D03*
X182191299Y-82508399D03*
D33*
X182191300Y-83158400D03*
X182191301Y-84158400D03*
X182191300Y-85658400D03*
X182191301Y-86658400D03*
D32*
X182191300Y-87308400D03*
X182191300Y-88108400D03*
D34*
X186696299Y-90018401D03*
X182766300Y-90018399D03*
X182766300Y-79798400D03*
X186696300Y-79798400D03*
%TD*%
D35*
%TO.C,D1*%
X170091800Y-92866100D03*
X170731800Y-92866100D03*
%TD*%
D36*
%TO.C,D3*%
X170999100Y-84328500D03*
X174999100Y-84328500D03*
%TD*%
D37*
%TO.C,D4*%
X121920000Y-83820000D03*
X120820000Y-83820000D03*
X120820000Y-85650000D03*
X121920000Y-85650000D03*
%TD*%
D38*
%TO.C,U3*%
X175677700Y-91312800D03*
X175677700Y-90042800D03*
X175677700Y-88772800D03*
X175677700Y-87502800D03*
X170727700Y-87502800D03*
X170727700Y-88772800D03*
X170727700Y-90042800D03*
X170727700Y-91312800D03*
D39*
X173202700Y-89407800D03*
%TD*%
D40*
%TO.C,D13*%
X163950300Y-82831900D03*
D11*
X161448888Y-83272966D03*
%TD*%
D41*
%TO.C,U4*%
X174349000Y-67378600D03*
X174349000Y-69678600D03*
D42*
X180649000Y-69678600D03*
D41*
X174349000Y-71978600D03*
%TD*%
D43*
%TO.C,D8*%
X144124200Y-82831900D03*
D11*
X146625612Y-83272966D03*
%TD*%
D44*
%TO.C,En_Boot*%
X136178300Y-60457500D03*
D45*
X134878300Y-60457500D03*
%TD*%
D21*
%TO.C,R7*%
X120819900Y-87361700D03*
X121839900Y-87361700D03*
%TD*%
D46*
%TO.C,U2*%
X137160000Y-105193300D03*
D47*
X135890000Y-105193300D03*
X134620000Y-105193300D03*
%TD*%
D20*
%TO.C,C6*%
X171982800Y-68844800D03*
X171982800Y-67884800D03*
%TD*%
D14*
%TO.C,J3*%
X132361300Y-66520500D03*
D15*
X134361301Y-66520499D03*
X136361299Y-66520501D03*
X138361300Y-66520500D03*
%TD*%
D36*
%TO.C,D2*%
X171004100Y-80810700D03*
X175004100Y-80810700D03*
%TD*%
D14*
%TO.C,J4*%
X152912000Y-103552300D03*
D15*
X154912000Y-103552300D03*
%TD*%
M02*
