%TF.GenerationSoftware,KiCad,Pcbnew,9.0.2*%
%TF.CreationDate,2025-06-14T23:39:35+05:30*%
%TF.ProjectId,ir hub,69722068-7562-42e6-9b69-6361645f7063,rev?*%
%TF.SameCoordinates,Original*%
%TF.FileFunction,Soldermask,Bot*%
%TF.FilePolarity,Negative*%
%FSLAX46Y46*%
G04 Gerber Fmt 4.6, Leading zero omitted, Abs format (unit mm)*
G04 Created by KiCad (PCBNEW 9.0.2) date 2025-06-14 23:39:35*
%MOMM*%
%LPD*%
G01*
G04 APERTURE LIST*
G04 Aperture macros list*
%AMRoundRect*
0 Rectangle with rounded corners*
0 $1 Rounding radius*
0 $2 $3 $4 $5 $6 $7 $8 $9 X,Y pos of 4 corners*
0 Add a 4 corners polygon primitive as box body*
4,1,4,$2,$3,$4,$5,$6,$7,$8,$9,$2,$3,0*
0 Add four circle primitives for the rounded corners*
1,1,$1+$1,$2,$3*
1,1,$1+$1,$4,$5*
1,1,$1+$1,$6,$7*
1,1,$1+$1,$8,$9*
0 Add four rect primitives between the rounded corners*
20,1,$1+$1,$2,$3,$4,$5,0*
20,1,$1+$1,$4,$5,$6,$7,0*
20,1,$1+$1,$6,$7,$8,$9,0*
20,1,$1+$1,$8,$9,$2,$3,0*%
%AMRotRect*
0 Rectangle, with rotation*
0 The origin of the aperture is its center*
0 $1 length*
0 $2 width*
0 $3 Rotation angle, in degrees counterclockwise*
0 Add horizontal line*
21,1,$1,$2,0,0,$3*%
G04 Aperture macros list end*
%ADD10RotRect,1.800000X1.800000X70.000000*%
%ADD11C,1.800000*%
%ADD12RotRect,1.800000X1.800000X150.000000*%
%ADD13R,1.800000X1.800000*%
%ADD14RoundRect,0.250000X-0.350000X-0.625000X0.350000X-0.625000X0.350000X0.625000X-0.350000X0.625000X0*%
%ADD15O,1.200000X1.750000*%
%ADD16C,3.800000*%
%ADD17RotRect,1.800000X1.800000X30.000000*%
%ADD18RotRect,1.800000X1.800000X110.000000*%
%ADD19RotRect,1.800000X1.800000X230.000000*%
%ADD20RotRect,1.800000X1.800000X310.000000*%
%ADD21C,2.100000*%
%ADD22C,1.750000*%
%ADD23RoundRect,0.250200X0.649800X-0.649800X0.649800X0.649800X-0.649800X0.649800X-0.649800X-0.649800X0*%
%ADD24C,0.650000*%
%ADD25RotRect,1.800000X1.800000X190.000000*%
%ADD26RotRect,1.800000X1.800000X350.000000*%
%ADD27R,1.050000X1.500000*%
%ADD28O,1.050000X1.500000*%
%ADD29RoundRect,0.135000X0.135000X0.185000X-0.135000X0.185000X-0.135000X-0.185000X0.135000X-0.185000X0*%
%ADD30RoundRect,0.135000X-0.135000X-0.185000X0.135000X-0.185000X0.135000X0.185000X-0.135000X0.185000X0*%
%ADD31RoundRect,0.140000X-0.140000X-0.170000X0.140000X-0.170000X0.140000X0.170000X-0.140000X0.170000X0*%
%ADD32RoundRect,0.150000X0.587500X0.150000X-0.587500X0.150000X-0.587500X-0.150000X0.587500X-0.150000X0*%
%ADD33RoundRect,0.225000X-0.250000X0.225000X-0.250000X-0.225000X0.250000X-0.225000X0.250000X0.225000X0*%
%ADD34RoundRect,0.135000X-0.185000X0.135000X-0.185000X-0.135000X0.185000X-0.135000X0.185000X0.135000X0*%
%ADD35RoundRect,0.140000X-0.170000X0.140000X-0.170000X-0.140000X0.170000X-0.140000X0.170000X0.140000X0*%
%ADD36RoundRect,0.225000X0.250000X-0.225000X0.250000X0.225000X-0.250000X0.225000X-0.250000X-0.225000X0*%
%ADD37R,1.500000X0.900000*%
%ADD38R,0.900000X1.500000*%
%ADD39C,0.600000*%
%ADD40R,3.900000X3.900000*%
%ADD41RoundRect,0.162500X0.650000X0.162500X-0.650000X0.162500X-0.650000X-0.162500X0.650000X-0.162500X0*%
%ADD42RoundRect,0.135000X0.185000X-0.135000X0.185000X0.135000X-0.185000X0.135000X-0.185000X-0.135000X0*%
G04 APERTURE END LIST*
D10*
%TO.C,D10*%
X150594500Y-94038800D03*
D11*
X151463231Y-91651981D03*
%TD*%
D12*
%TO.C,D12*%
X162754600Y-89612900D03*
D11*
X160554895Y-88342900D03*
%TD*%
D13*
%TO.C,D14*%
X153199600Y-84596000D03*
D11*
X155739600Y-84596000D03*
%TD*%
D14*
%TO.C,J2*%
X150879900Y-116271700D03*
D15*
X152879900Y-116271700D03*
X154879900Y-116271700D03*
X156879900Y-116271700D03*
%TD*%
D16*
%TO.C,*%
X183550650Y-75236419D03*
%TD*%
D17*
%TO.C,D9*%
X145319800Y-89612900D03*
D11*
X147519505Y-88342900D03*
%TD*%
D18*
%TO.C,D11*%
X157480000Y-94038800D03*
D11*
X156611269Y-91651981D03*
%TD*%
D16*
%TO.C,*%
X139700000Y-58420000D03*
%TD*%
%TO.C,*%
X137101413Y-96302615D03*
%TD*%
D19*
%TO.C,D5*%
X160507500Y-76868900D03*
D11*
X158874819Y-78814653D03*
%TD*%
D13*
%TO.C,D6*%
X154037200Y-74513900D03*
D11*
X154037200Y-77053900D03*
%TD*%
D20*
%TO.C,D7*%
X147566900Y-76868900D03*
D11*
X149199581Y-78814653D03*
%TD*%
D21*
%TO.C,SW1*%
X179530034Y-101476503D03*
X175024092Y-106846476D03*
D22*
X180634000Y-104034600D03*
X177741456Y-107481800D03*
%TD*%
D16*
%TO.C,REF\u002A\u002A*%
X167640000Y-109220000D03*
%TD*%
D23*
%TO.C,U1*%
X132904800Y-87471400D03*
D11*
X132904800Y-84931400D03*
X132904800Y-82391400D03*
%TD*%
D24*
%TO.C,J1*%
X183266299Y-87798401D03*
X183266299Y-82018400D03*
%TD*%
D25*
%TO.C,D13*%
X163950300Y-82831900D03*
D11*
X161448888Y-83272966D03*
%TD*%
D26*
%TO.C,D8*%
X144124200Y-82831900D03*
D11*
X146625612Y-83272966D03*
%TD*%
D27*
%TO.C,U2*%
X137160000Y-105193300D03*
D28*
X135890000Y-105193300D03*
X134620000Y-105193300D03*
%TD*%
D14*
%TO.C,J3*%
X132361300Y-66520500D03*
D15*
X134361301Y-66520499D03*
X136361299Y-66520501D03*
X138361300Y-66520500D03*
%TD*%
D29*
%TO.C,R8*%
X148081600Y-73270500D03*
X147061600Y-73270500D03*
%TD*%
D30*
%TO.C,R11*%
X140255900Y-70396100D03*
X141275900Y-70396100D03*
%TD*%
D31*
%TO.C,C9*%
X172618000Y-66367600D03*
X173578000Y-66367600D03*
%TD*%
%TO.C,C1*%
X135233700Y-108885800D03*
X136193700Y-108885800D03*
%TD*%
D32*
%TO.C,Q1*%
X143240400Y-73243900D03*
X143240400Y-75143900D03*
X141365400Y-74193900D03*
%TD*%
D33*
%TO.C,C20*%
X174462900Y-59182400D03*
X174462900Y-60732400D03*
%TD*%
D29*
%TO.C,R5*%
X135781300Y-101214300D03*
X134761300Y-101214300D03*
%TD*%
D34*
%TO.C,R10*%
X165179000Y-53754400D03*
X165179000Y-54774400D03*
%TD*%
D31*
%TO.C,C22*%
X141273000Y-69185200D03*
X142233000Y-69185200D03*
%TD*%
%TO.C,C21*%
X170655100Y-66366900D03*
X171615100Y-66366900D03*
%TD*%
%TO.C,C16*%
X170655100Y-63226500D03*
X171615100Y-63226500D03*
%TD*%
%TO.C,C11*%
X172609800Y-64271900D03*
X173569800Y-64271900D03*
%TD*%
D34*
%TO.C,R9*%
X171667600Y-103124800D03*
X171667600Y-104144800D03*
%TD*%
D31*
%TO.C,C13*%
X172613900Y-62176100D03*
X173573900Y-62176100D03*
%TD*%
%TO.C,C17*%
X170650700Y-64276200D03*
X171610700Y-64276200D03*
%TD*%
%TO.C,C15*%
X170650700Y-62181200D03*
X171610700Y-62181200D03*
%TD*%
D35*
%TO.C,C7*%
X166389800Y-54787600D03*
X166389800Y-55747600D03*
%TD*%
D31*
%TO.C,C12*%
X172613900Y-63224000D03*
X173573900Y-63224000D03*
%TD*%
D36*
%TO.C,C8*%
X169736600Y-60722100D03*
X169736600Y-59172100D03*
%TD*%
D37*
%TO.C,U5*%
X162595100Y-52275400D03*
X162595100Y-53545400D03*
X162595100Y-54815400D03*
X162595100Y-56085400D03*
X162595100Y-57355400D03*
X162595100Y-58625400D03*
X162595100Y-59895400D03*
X162595100Y-61165400D03*
X162595100Y-62435400D03*
X162595100Y-63705400D03*
X162595100Y-64975400D03*
X162595100Y-66245400D03*
X162595100Y-67515400D03*
X162595100Y-68785400D03*
D38*
X160830100Y-70035400D03*
X159560100Y-70035400D03*
X158290100Y-70035400D03*
X157020100Y-70035400D03*
X155750100Y-70035400D03*
X154480100Y-70035400D03*
X153210100Y-70035400D03*
X151940100Y-70035400D03*
X150670100Y-70035400D03*
X149400100Y-70035400D03*
X148130100Y-70035400D03*
X146860100Y-70035400D03*
D37*
X145095100Y-68785400D03*
X145095100Y-67515400D03*
X145095100Y-66245400D03*
X145095100Y-64975400D03*
X145095100Y-63705400D03*
X145095100Y-62435400D03*
X145095100Y-61165400D03*
X145095100Y-59895400D03*
X145095100Y-58625400D03*
X145095100Y-57355400D03*
X145095100Y-56085400D03*
X145095100Y-54815400D03*
X145095100Y-53545400D03*
X145095100Y-52275400D03*
D39*
X156745100Y-60695400D03*
X156745100Y-59295400D03*
X156045100Y-61395400D03*
X156045100Y-59995400D03*
X156045100Y-58595400D03*
X155345100Y-60695400D03*
D40*
X155345100Y-59995400D03*
D39*
X155345100Y-59295400D03*
X154645100Y-61395400D03*
X154645100Y-59995400D03*
X154645100Y-58595400D03*
X153945100Y-60695400D03*
X153945100Y-59295400D03*
%TD*%
D36*
%TO.C,C19*%
X172879600Y-60732400D03*
X172879600Y-59182400D03*
%TD*%
D31*
%TO.C,C18*%
X170655100Y-65321600D03*
X171615100Y-65321600D03*
%TD*%
%TO.C,C10*%
X172608700Y-65319500D03*
X173568700Y-65319500D03*
%TD*%
D14*
%TO.C,J4*%
X152912000Y-103552300D03*
D15*
X154912000Y-103552300D03*
%TD*%
D36*
%TO.C,C14*%
X171301000Y-60733100D03*
X171301000Y-59183100D03*
%TD*%
D41*
%TO.C,U6*%
X174470000Y-71687900D03*
X174470000Y-72957900D03*
X174470000Y-74227900D03*
X174470000Y-75497900D03*
X167295000Y-75497900D03*
X167295000Y-74227900D03*
X167295000Y-72957900D03*
X167295000Y-71687900D03*
%TD*%
D42*
%TO.C,R1*%
X129374700Y-85368400D03*
X129374700Y-84348400D03*
%TD*%
M02*
